<?xml version="1.0" encoding="UTF-8" standalone="no"?>
<!-- Created with Inkscape (http://www.inkscape.org/) -->

<svg
   xmlns:dc="http://purl.org/dc/elements/1.1/"
   xmlns:cc="http://creativecommons.org/ns#"
   xmlns:rdf="http://www.w3.org/1999/02/22-rdf-syntax-ns#"
   xmlns:svg="http://www.w3.org/2000/svg"
   xmlns="http://www.w3.org/2000/svg"
   xmlns:sodipodi="http://sodipodi.sourceforge.net/DTD/sodipodi-0.dtd"
   xmlns:inkscape="http://www.inkscape.org/namespaces/inkscape"
   width="162.95045"
   height="194.27945"
   id="svg2"
   version="1.1"
   inkscape:version="0.48.2 r9819"
   sodipodi:docname="aau.svg"
   inkscape:export-filename="/Users/pmn/Pictures/mine/tony/sports id/aau-gutter.png"
   inkscape:export-xdpi="90"
   inkscape:export-ydpi="90">
  <defs
     id="defs4">
    <clipPath
       clipPathUnits="userSpaceOnUse"
       id="clipPath3160">
      <rect
         y="619.7193"
         x="54.976116"
         height="224"
         width="175.467"
         id="rect3162"
         style="fill:#00ff00;fill-opacity:1;stroke:none" />
    </clipPath>
  </defs>
  <sodipodi:namedview
     id="base"
     pagecolor="#d6d6d6"
     bordercolor="#666666"
     borderopacity="1.0"
     inkscape:pageopacity="0"
     inkscape:pageshadow="2"
     inkscape:zoom="1.4142136"
     inkscape:cx="100.54939"
     inkscape:cy="61.198069"
     inkscape:document-units="px"
     inkscape:current-layer="layer1"
     showgrid="false"
     fit-margin-top="0"
     fit-margin-left="0"
     fit-margin-right="0"
     fit-margin-bottom="0"
     inkscape:window-width="1280"
     inkscape:window-height="752"
     inkscape:window-x="0"
     inkscape:window-y="0"
     inkscape:window-maximized="1">
    <inkscape:grid
       type="xygrid"
       id="grid3031"
       empspacing="5"
       visible="true"
       enabled="true"
       snapvisiblegridlinesonly="true" />
  </sodipodi:namedview>
  <metadata
     id="metadata7">
    <rdf:RDF>
      <cc:Work
         rdf:about="">
        <dc:format>image/svg+xml</dc:format>
        <dc:type
           rdf:resource="http://purl.org/dc/dcmitype/StillImage" />
        <dc:title></dc:title>
      </cc:Work>
    </rdf:RDF>
  </metadata>
  <g
     inkscape:label="Layer 1"
     inkscape:groupmode="layer"
     id="layer1"
     transform="translate(-33.265723,-640.00177)">
    <path
       inkscape:connector-curvature="0"
       id="path3958"
       d="m 115.24746,640.00177 -3.57489,3.37882 c -4.53929,4.29647 -4.78622,4.4855 -8.83928,6.60674 -8.244832,4.31525 -18.243332,6.68393 -28.191952,6.66716 -4.40698,-0.006 -14.37333,-1.11401 -23.21426,-2.57935 -2.25646,-0.37432 -4.172,-0.61588 -4.26871,-0.52781 -0.0967,0.0881 0.24334,0.88806 0.7693,1.76486 3.14952,5.25072 4.94713,13.3632 4.96263,22.44496 l 0.01,6.65201 5.62629,3.62018 c 3.094,1.99105 6.94063,4.54276 8.55262,5.65644 l 2.92633,2.0213 54.257072,0.0325 54.24191,0.0131 -0.34679,-2.29278 c -0.19137,-1.26102 -0.43082,-6.96273 -0.52796,-12.67053 -0.14619,-8.59327 -0.0291,-11.12476 0.69387,-14.72195 0.94517,-4.70718 2.46157,-9.46242 3.95203,-12.38396 0.51771,-1.01447 0.87854,-1.85532 0.79946,-1.85532 -0.0787,0 -3.7271,0.7476 -8.10014,1.65923 -4.37313,0.91169 -11.21517,2.03063 -15.21966,2.48887 -6.90251,0.79014 -7.63586,0.79378 -13.98292,0 -3.68228,-0.46044 -7.0678,-1.03642 -7.52688,-1.28212 -0.45947,-0.24543 -1.18146,-0.45268 -1.59892,-0.45268 -0.4177,0 -2.76518,-0.78781 -5.21903,-1.74976 -6.65397,-2.60823 -11.03798,-5.7837 -14.90303,-10.8152 l -1.2821,-1.67426 z m 47.19772,23.89301 0,12.54988 0,12.54988 -48.02735,-7e-5 -48.042502,0 0.136,-12.42916 0.12045,-12.42916 47.906702,-0.12046 47.90665,-0.12045 z m -78.150092,2.03633 c -0.46335,0.0194 -0.9306,0.0583 -1.37258,0.12046 -3.74935,0.54655 -7.78493,2.60324 -9.35208,4.76657 -1.37293,1.89527 -1.38774,1.95861 -1.38774,9.08052 l 0,7.16491 2.89612,0 2.89608,0 0,-6.16934 c 0,-6.75395 0.31182,-7.69123 2.91128,-9.03527 2.00948,-1.03921 6.16113,-0.91927 8.03967,0.226 1.78174,1.08636 2.69393,2.52055 2.27773,3.60509 -0.24333,0.63336 -1.28049,0.7542 -6.27493,0.7542 l -5.98833,0 0,2.15698 0,2.15705 6.15424,0.13599 6.15429,0.136 0.15057,3.01681 0.13599,3.0168 2.88102,0 2.86596,0 0,-6.77272 c 0,-8.0737 -0.39875,-9.343 -3.69553,-11.73532 -2.39037,-1.73468 -6.04462,-2.74624 -9.29181,-2.62462 z m 31.012642,0.136 c -2.92463,0.052 -5.9179,0.82874 -8.47714,2.3532 -3.95004,2.35282 -4.72128,4.29207 -4.72128,11.91633 0,3.3507 0.15493,6.23372 0.33124,6.41071 0.17631,0.17679 1.58887,0.31667 3.13752,0.31667 l 2.80564,0 0,-5.76206 c 0,-6.6581 0.4075,-7.92313 2.9715,-9.23142 4.18449,-2.13477 10.54365,-0.0194 10.54365,3.51455 0,0.77842 -0.57182,0.85983 -6.28995,0.85983 l -6.30509,0 0.15105,2.05142 0.13599,2.05142 6.0336,0.24154 6.03359,0.24154 0.15105,3.0168 0.136,3.01681 2.88102,0 2.86591,0 0,-7.01409 c 0,-7.45815 -0.27831,-8.65382 -2.48877,-10.66431 -2.48984,-2.26481 -6.13476,-3.38685 -9.89509,-3.31852 z m 16.72819,0.67882 0,6.83301 c 0,6.01218 0.11997,7.05469 0.99559,8.61296 1.59125,2.83139 5.5526,4.87847 10.58891,5.4755 3.92668,0.46564 10.20225,-1.975 12.38391,-4.82686 1.36642,-1.78616 1.37263,-1.85681 1.37263,-8.80906 l 0,-6.99899 -2.97155,-0.13599 -2.97155,-0.15091 -0.16563,6.01852 c -0.14959,5.59984 -0.24867,6.10776 -1.34247,7.2704 -2.46128,2.61685 -7.56825,2.69897 -10.45316,0.16577 l -1.61397,-1.41793 -0.136,-5.86763 -0.136,-5.88278 -2.77542,-0.136 -2.77548,-0.1509 z m -60.049312,9.23135 c -0.0515,0.052 -0.0903,1.53256 -0.0908,4.08775 -7.8e-4,3.71673 0.0733,5.31005 0.16562,3.52971 0.0928,-1.78039 0.0918,-4.8213 0,-6.75763 -0.0291,-0.60487 -0.0515,-0.88282 -0.0748,-0.85983 z m -19.08125,11.91639 c -0.14911,0.0583 -0.62107,2.22615 -1.05587,4.82686 -1.2038,7.20422 -4.69189,16.15788 -8.95987,22.97289 -1.4317,2.28606 -1.16597,3.16641 1.40284,4.63077 1.11342,0.63465 2.25354,1.34269 2.53404,1.58386 0.28073,0.2409 4.40757,3.05798 9.18616,6.25981 38.61281,25.87196 47.101612,31.52083 51.014052,33.93892 0.44588,0.27524 6.03049,3.97313 12.41403,8.22077 6.38368,4.24764 14.71827,9.7449 18.50808,12.20295 3.78981,2.45805 10.78805,7.0536 15.56669,10.22692 4.7786,3.17333 8.91845,5.78221 9.18617,5.79225 0.4823,0.0194 6.92227,-4.93896 10.61907,-8.1755 4.51321,-3.95136 9.92011,-9.86723 11.94654,-13.04763 l 0.85973,-1.34248 -1.82515,-1.11621 c -1.00443,-0.6107 -1.93377,-1.2335 -2.06651,-1.3877 -0.13259,-0.15411 -6.1571,-4.18877 -13.39455,-8.95993 -15.71366,-10.35897 -67.18364,-44.59657 -91.831302,-61.09011 -18.52081,-12.39367 -23.65857,-15.7019 -24.10415,-15.53644 z m 45.82509,10.2571 -7.8436,0.13599 -7.8437,0.12046 -0.13599,2.66988 -0.136,2.65479 7.60231,5.18887 c 4.18856,2.84972 7.79123,5.17379 7.9945,5.17379 0.20351,6e-5 0.36233,-3.57737 0.36233,-7.96432 l 0,-7.9794 z m 72.885792,0.48244 -8.32628,0.136 -8.32643,0.12045 -0.12046,26.62319 -0.12045,26.60816 6.63693,4.25366 c 3.65255,2.33909 7.16532,4.64903 7.79842,5.12858 2.58324,1.95649 2.45866,3.38944 2.45866,-30.99763 l 0,-31.87241 z m -65.16275,0.0131 0,10.57384 0,10.57384 7.84365,5.32468 c 4.31402,2.92971 8.11515,5.33776 8.44703,5.35486 0.47064,0.0257 0.60358,-3.46086 0.60358,-15.89859 l 0,-15.92863 -8.44699,0 -8.44702,0 z m 24.61706,0 0.12045,18.94544 0.12046,18.94551 7.46659,4.94751 c 4.10561,2.72116 7.63528,4.94757 7.84365,4.94757 0.20836,0 0.37739,-10.75187 0.37739,-23.89301 l 0,-23.89302 -7.96434,0 -7.9644,0 z m 47.36369,0.12046 c -0.40945,0.35616 -0.53655,8.61146 -0.52801,34.24064 l 0.01,34.42165 4.44977,2.98662 c 2.44933,1.64175 4.71395,2.99932 5.03806,3.01674 0.50969,0.0257 3.19842,-5.05547 4.91731,-9.3068 4.76466,-11.78382 5.16478,-24.09474 1.16155,-35.23614 -1.73438,-4.82686 -4.82362,-10.84862 -8.79396,-17.13538 -2.24646,-3.5571 -3.76125,-6.61788 -4.51015,-9.08059 -0.6217,-2.04326 -1.38779,-3.80119 -1.70451,-3.90674 -0.01,-0.004 -0.034,-0.0131 -0.0437,0 z m -107.473332,6.63698 c 0.1496,-7e-5 1.47016,0.79804 2.92624,1.76479 l 2.63977,1.74976 0,10.12136 c 0,8.32355 0.14086,10.41007 0.78436,11.7655 1.17155,2.469 3.30571,4.04249 5.46037,4.04249 3.15335,0 3.37857,-0.61847 3.52967,-9.88 0.0865,-5.25966 0.31327,-8.19998 0.64855,-8.3113 0.28511,-0.0946 1.53408,0.60551 2.77543,1.55366 l 2.24757,1.71959 0,7.96432 c 0,9.03889 -0.37642,10.55584 -3.01682,12.18786 -2.32873,1.43924 -6.58146,1.42357 -9.47273,-0.0452 -2.9122,-1.47945 -5.89832,-4.48052 -7.31579,-7.361 -1.14989,-2.33689 -1.18792,-2.76923 -1.32736,-14.8426 -0.0787,-6.83606 -0.0291,-12.42923 0.12045,-12.42923 z m -30.59032,15.92863 c -0.47744,6e-5 -3.6339,6.72746 -4.6459,9.89515 -1.49528,4.6807 -2.15651,9.23168 -2.15694,14.99342 -8.3e-4,9.34314 1.02356,13.4272 5.77714,23.13882 2.81861,5.75857 4.55012,8.39069 8.70338,13.18342 1.19472,1.37856 2.33505,2.50384 2.53418,2.50397 0.19865,7e-5 0.36233,-12.81591 0.36233,-28.47858 l 0,-28.47857 -5.09842,-3.37881 c -2.8053,-1.85883 -5.26959,-3.37876 -5.47548,-3.37882 z m 65.962262,8.80905 c 0.23264,8.5e-4 0.48035,0.006 0.72403,0.0325 1.92769,0.16577 5.17235,1.74154 6.63692,3.22799 0.1326,0.13469 2.35919,1.65658 4.94752,3.37882 l 4.70623,3.13745 0,2.77551 0,2.76035 -1.34247,-0.82964 c -0.73773,-0.46045 -3.98739,-2.63667 -7.22525,-4.82687 -3.23787,-2.1902 -6.27319,-3.98219 -6.75763,-3.98219 -1.26063,0 -2.05139,0.9637 -2.05139,2.50396 0,1.16233 0.7267,1.80572 5.59612,5.08332 7.38393,4.96998 7.34046,4.95373 9.4124,6.92355 2.2179,2.1086 3.12509,4.94745 2.39838,7.57212 -0.65423,2.36286 -0.91768,2.70402 -2.92633,3.92184 -0.92914,0.56341 -2.34097,1.02761 -3.13742,1.02567 -1.27321,-0.003 -6.55883,-2.5377 -8.1152,-3.89159 -0.31085,-0.27068 -2.63667,-1.85862 -5.1587,-3.51455 l -4.585582,-3.00178 -0.136,-2.51899 c -0.17631,-3.04472 -0.12385,-3.03079 5.445322,0.85976 9.22589,6.44529 11.07431,7.15921 12.33873,4.79675 0.80248,-1.49953 -0.0646,-2.42438 -5.91289,-6.41071 -3.00177,-2.04585 -6.31622,-4.32063 -7.37611,-5.05313 -6.635042,-4.58582 -4.696472,-13.9934 2.51907,-13.96775 z m -47.816222,3.25817 c -0.18359,0 -0.33124,13.20888 -0.33124,29.35342 l 0,29.35343 1.32741,1.22177 c 1.56793,1.43049 6.74072,5.18388 11.43364,8.3113 1.84143,1.22708 3.52472,2.23242 3.74085,2.23242 0.21614,0 0.39439,-13.41267 0.39245,-29.80596 l 0,-29.80591 -8.1152,-5.43023 c -4.46061,-2.98663 -8.26402,-5.43024 -8.44698,-5.43024 z m -25.16007,9.89509 c -0.0583,0.0257 -0.0894,1.07094 -0.0908,2.89609 -0.002,2.65479 0.0821,3.80131 0.18116,2.54923 0.0991,-1.25215 0.0976,-3.42422 0,-4.82693 -0.034,-0.43844 -0.0646,-0.63011 -0.0908,-0.61846 z m 49.80734,6.53136 c -0.19962,-0.002 -0.36233,13.31566 -0.36233,29.60987 l 0,29.6249 4.70622,2.80562 c 2.58839,1.54311 6.00941,3.66168 7.60226,4.69112 l 2.89622,1.87041 0.31667,-4.26875 c 0.17097,-2.34077 0.33417,-15.49176 0.36234,-29.23277 l 0.0437,-24.97904 -1.81005,-1.23693 c -5.32569,-3.64155 -13.44147,-8.88204 -13.7565,-8.88443 z m 55.780512,1.62904 c 0.76172,0.006 1.54126,0.11074 2.35306,0.30177 1.40925,0.33159 3.21596,0.93067 4.01236,1.32739 2.77611,1.38264 6.42875,4.91481 7.69283,7.45148 1.24898,2.50643 1.23683,2.51336 1.23683,15.20461 0,6.98306 -0.16222,12.67862 -0.36233,12.67058 -0.19865,-0.006 -1.39376,-0.78813 -2.65478,-1.73467 l -2.29279,-1.71958 0,-3.99728 0,-4.01231 -4.82687,-3.21289 -4.82683,-3.2129 0,-2.6548 c 0,-3.09095 -0.2273,-3.12444 5.61123,0.84474 1.89044,1.28523 3.57387,2.33798 3.74081,2.33798 0.16708,0 0.30162,-1.52498 0.30162,-3.39383 0,-3.89179 -0.885,-6.05744 -3.49946,-8.56776 -2.71108,-2.60305 -7.436,-2.56744 -8.3565,0.0583 -0.20156,0.57572 -0.49255,4.79442 -0.64865,9.36716 l -0.28705,8.31123 -2.3229,-1.50833 -2.30785,-1.52349 0.136,-9.30681 0.15105,-9.30686 1.37263,-1.41787 c 1.47089,-1.53391 3.49184,-2.33132 5.7772,-2.30787 z m -32.24953,13.78681 -0.12045,29.4288 -0.12045,29.4439 3.12236,3.87663 c 1.71874,2.12887 3.48416,4.41537 3.92182,5.08325 0.43762,0.66794 0.84784,1.20674 0.90505,1.20674 0.0583,-6e-5 0.83055,-1.00955 1.71952,-2.24751 0.88908,-1.23796 2.76577,-3.54551 4.17832,-5.12852 l 2.5643,-2.88106 0,-24.01373 0,-24.01365 -8.08509,-5.36988 -8.08489,-5.38497 z m -0.42207,11.93135 c -0.0437,0.40993 -0.0748,6.9681 -0.0748,18.0103 0,16.06145 0.0583,22.63199 0.13599,14.60129 0.0743,-8.03069 0.0743,-21.17184 0,-29.20259 -0.0291,-2.50961 -0.0389,-3.59525 -0.0583,-3.409 z m 24.93378,4.49509 c -0.47938,0 -0.61849,3.70877 -0.61849,17.34656 0,9.53547 0.13649,17.68637 0.30162,18.11586 0.25937,0.67584 0.43762,0.6884 1.32737,0.12045 0.56516,-0.36073 3.7408,-2.24777 7.05929,-4.19331 3.31844,-1.9456 6.42273,-3.8642 6.89338,-4.26882 0.7673,-0.65965 0.8421,-1.58482 0.72403,-8.97497 l -0.136,-8.25088 -7.46655,-4.94757 c -4.11168,-2.72118 -7.74995,-4.94751 -8.08508,-4.94751 z m 23.80254,15.44597 c -0.15153,-6e-5 -0.28704,1.52045 -0.28607,3.37882 0,1.8583 0.10102,3.37881 0.22633,3.37881 0.46919,0 4.60064,-3.08771 4.60059,-3.43917 5e-5,-0.37044 -4.03091,-3.31846 -4.54026,-3.31846 z m 13.18337,1.56869 c -0.64884,0.0194 -1.34723,0.14829 -2.09661,0.40736 -3.81016,1.31736 -4.64411,5.90409 -1.59892,8.74876 1.06737,0.99705 1.92535,1.34241 3.33354,1.34241 4.90731,0 7.33886,-5.29857 4.05762,-8.83916 -1.06688,-1.15112 -2.26806,-1.69989 -3.69563,-1.65929 z m -0.3769,0.7693 c 1.15757,-0.0131 2.35234,0.48181 3.36371,1.49331 1.79873,1.79872 1.85857,3.78072 0.16562,5.79231 -1.04046,1.23648 -1.61155,1.47822 -3.34865,1.47822 -1.73705,0 -2.29308,-0.24153 -3.33354,-1.47828 -0.70393,-0.83651 -1.25194,-2.09197 -1.25194,-2.86592 0,-0.77395 0.54796,-2.01437 1.25194,-2.85088 0.86906,-1.03287 1.9951,-1.55555 3.15252,-1.56876 z m -1.99107,1.04083 0,3.13745 c 0,2.95516 0.71941,4.38377 1.05586,2.09669 0.22148,-1.50484 1.0832,-1.58048 1.84031,-0.16577 0.35844,0.66976 0.94381,1.20668 1.2972,1.20668 0.77994,0 0.78946,-0.24542 0.10589,-1.52348 -0.38176,-0.71269 -0.38176,-1.12696 0,-1.5084 1.48055,-1.48056 -0.0437,-3.24302 -2.8207,-3.24302 l -1.47827,0 z m 2.18715,1.23686 c 0.61917,0.006 1.19171,0.31537 1.19171,0.73911 0,0.24348 -0.54287,0.43713 -1.20672,0.43713 -1.25869,0 -1.64817,-0.70187 -0.60358,-1.08603 0.19525,-0.0719 0.41187,-0.0933 0.61849,-0.0907 z"
       style="fill:#d0c6b1;fill-opacity:1" />
  </g>
</svg>
