<?xml version="1.0" encoding="UTF-8" standalone="no"?>
<!-- Created with Inkscape (http://www.inkscape.org/) -->

<svg
   xmlns:dc="http://purl.org/dc/elements/1.1/"
   xmlns:cc="http://creativecommons.org/ns#"
   xmlns:rdf="http://www.w3.org/1999/02/22-rdf-syntax-ns#"
   xmlns:svg="http://www.w3.org/2000/svg"
   xmlns="http://www.w3.org/2000/svg"
   xmlns:sodipodi="http://sodipodi.sourceforge.net/DTD/sodipodi-0.dtd"
   xmlns:inkscape="http://www.inkscape.org/namespaces/inkscape"
   width="1274.5312"
   height="1274.5312"
   id="svg16853"
   version="1.1"
   inkscape:version="0.48.2 r9819"
   sodipodi:docname="audience-organization.svg"
   inkscape:export-filename="/Users/pmn/code/personal/id-me/public/images/audience-organization.png"
   inkscape:export-xdpi="10.59213"
   inkscape:export-ydpi="10.59213">
  <defs
     id="defs16855" />
  <sodipodi:namedview
     id="base"
     pagecolor="#ffffff"
     bordercolor="#666666"
     borderopacity="1.0"
     inkscape:pageopacity="0.0"
     inkscape:pageshadow="2"
     inkscape:zoom="0.35355339"
     inkscape:cx="451.8359"
     inkscape:cy="722.54415"
     inkscape:document-units="px"
     inkscape:current-layer="layer1"
     showgrid="false"
     fit-margin-top="0"
     fit-margin-left="0"
     fit-margin-right="0"
     fit-margin-bottom="0"
     inkscape:window-width="1017"
     inkscape:window-height="683"
     inkscape:window-x="63"
     inkscape:window-y="506"
     inkscape:window-maximized="0" />
  <metadata
     id="metadata16858">
    <rdf:RDF>
      <cc:Work
         rdf:about="">
        <dc:format>image/svg+xml</dc:format>
        <dc:type
           rdf:resource="http://purl.org/dc/dcmitype/StillImage" />
        <dc:title></dc:title>
      </cc:Work>
    </rdf:RDF>
  </metadata>
  <g
     inkscape:label="Layer 1"
     inkscape:groupmode="layer"
     id="layer1"
     transform="translate(2007.0313,356.65625)">
    <path
       sodipodi:type="star"
       style="fill:none;stroke:#ffcc2f;stroke-width:38.51411438000000231;stroke-linecap:round;stroke-linejoin:round;stroke-miterlimit:4;stroke-opacity:1;stroke-dasharray:none"
       id="path18054"
       sodipodi:sides="6"
       sodipodi:cx="-929.34033"
       sodipodi:cy="-357.87527"
       sodipodi:r1="798.52924"
       sodipodi:r2="691.54663"
       sodipodi:arg1="2.6179939"
       sodipodi:arg2="3.1415927"
       inkscape:flatsided="true"
       inkscape:rounded="0"
       inkscape:randomized="0"
       d="m -1620.8869,41.389328 0,-798.529238 691.54659,-399.26459 691.54659,399.26462 -2e-5,798.529238 -691.54661,399.264602 z"
       transform="matrix(0.77862045,0,0,0.77925012,-646.16346,559.48)" />
    <path
       style="fill:#ffcc2f;fill-opacity:1"
       d="m -1302.2772,638.15189 c 27.0464,-2.51443 55.3292,-5.76381 69.685,-8.00603 l 12.0682,-1.88491 -0.3211,-9.59934 -0.321,-9.59933 -3.9157,-0.95823 c -2.1537,-0.52702 -14.3028,-1.23708 -26.998,-1.57791 l -23.0822,-0.61967 -10.481,3.4863 c -37.7668,12.56253 -88.5371,15.78772 -132.4271,8.41244 -11.8032,-1.98341 -28.5892,-6.1185 -37.9338,-9.34466 -5.7671,-1.99112 -9.1839,-2.26607 -26.8505,-2.16067 -11.1334,0.0665 -23.5148,0.69572 -27.5144,1.39847 l -7.2721,1.2777 -0.3214,9.66714 -0.3215,9.66713 7.0341,1.21642 c 16.8413,2.91237 61.7855,7.80723 93.1796,10.14818 20.776,1.54919 92.9591,0.59977 115.7929,-1.52303 z m -22.3754,-35.86371 c 13.4409,-2.07349 34.4339,-6.86071 36.9195,-8.4191 1.4058,-0.88141 1.2243,-1.35583 -1.1188,-2.92348 -1.5383,-1.02922 -7.1362,-6.21312 -12.4397,-11.51978 -15.5493,-15.55828 -25.9468,-33.36156 -34.55,-59.15881 -4.2133,-12.63369 -10.0677,-38.33295 -10.0677,-44.1942 0,-6.5296 0.5336,-6.38394 -23.3815,-6.38394 l -22.0234,0 -1.9651,12.44265 c -7.1681,45.38599 -25.1683,82.6459 -50.129,103.76599 -5.5126,4.66438 -8.2095,7.64004 -7.3482,8.10753 4.586,2.48908 33.2717,8.08402 50.5868,9.86659 15.0472,1.5491 61.5289,0.57447 75.5171,-1.58345 z m -2.4809,-162.49605 c 0.3088,-12.26588 0.2571,-12.57008 -2.2375,-13.17791 -1.4045,-0.34223 -20.1743,-0.48185 -41.7107,-0.31023 l -39.157,0.31214 -0.3153,13.15922 -0.3154,13.15923 41.71,-0.29334 41.7099,-0.29335 z m -2.9892,-38.2647 c 23.3094,-4.0014 44.2082,-12.07201 62.8696,-24.27871 11.4013,-7.45774 33.3804,-29.9068 42.0328,-42.93133 27.8132,-41.86816 44.7683,-102.31645 52.0912,-185.71626 2.3592,-26.8681 3.9859,-61.407897 3.9859,-84.631297 l 0,-19.4145 -200.2603,0 -200.2603,0 0.014,9.2298 c 0.026,15.7198 2.1297,58.585797 3.9131,79.712597 9.121,108.05003 34.7812,182.11289 78.3018,226.00234 25.5542,25.77092 56.4863,40.04523 95.7108,44.16802 14.6566,1.54055 46.6286,0.42938 61.6005,-2.14066 z m -146.6137,-14.46842 c -18.5693,-15.2398 -29.3559,-26.78789 -41.4265,-44.35083 -5.713,-8.31259 -10.5788,-13.70653 -18.9335,-20.98884 -13.337,-11.62483 -29.8849,-29.92146 -43.5179,-48.11673 -35.5,-47.37991 -69.1661,-119.17368 -91.4057,-194.924777 -4.2842,-14.5928 -12.8774,-47.4037 -12.8774,-49.169 0,-0.339 7.6085,-0.6164 16.9077,-0.6164 l 16.9077,0 7.1746,7.7492 c 7.739,8.3589 17.3131,15.0053 28.2395,19.6042 8.2676,3.4798 23.7028,7.3099 29.5022,7.3208 l 4.1954,0.011 0,-13.7607 0,-13.7609 -6.4374,-1.3296 c -15.7661,-3.2564 -30.9442,-13.9859 -38.3102,-27.0816 l -3.8589,-6.8606 -45.8998,0.7784 c -25.2448,0.4281 -45.993,0.8472 -46.1071,0.9312 -0.5933,0.4369 7.1067,36.2921 11.5562,53.8118 17.2179,67.794197 43.7454,135.524897 73.3956,187.394437 9.6862,16.94504 28.2593,44.489 39.6057,58.73556 19.8499,24.92368 49.5326,52.00883 72.835,66.46147 18.1511,11.25764 42.4344,22.15169 49.5043,22.20853 l 3.9157,0.0313 -4.9652,-4.0749 z m 241.7548,-6.54784 c 50.8059,-24.70406 95.3609,-70.33264 133.4397,-136.65538 27.053,-47.11912 48.8799,-100.43956 67.158,-164.059157 9.0775,-31.5953 18.9455,-75.6034 17.2812,-77.0677 -0.2458,-0.2162 -20.876,-0.7453 -45.8448,-1.1757 l -45.3979,-0.7826 -4.3799,7.4893 c -2.4089,4.1191 -6.9005,9.7649 -9.9812,12.5463 -6.423,5.7987 -18.2669,11.8553 -27.0096,13.8118 l -6.0018,1.3432 0,5.247 c 0,2.8859 -0.3256,9.0988 -0.7236,13.8066 l -0.7236,8.5596 4.3597,-0.011 c 7.967,-0.014 23.2335,-4.4621 35.041,-10.209 9.962,-4.8486 13.0323,-7.0461 21.0569,-15.0707 l 9.3946,-9.3944 16.7229,0 16.723,0 -0.6847,3.0766 c -2.5068,11.2641 -10.3122,39.8902 -15.5016,56.8526 -29.2095,95.473997 -71.3112,172.975407 -120.904,222.560867 -9.5313,9.53004 -15.0434,16.11938 -18.9976,22.71074 -10.6684,17.78356 -21.9545,31.31668 -38.6118,46.2994 l -8.3133,7.47754 4.0414,-0.32064 c 2.2228,-0.17643 10.2585,-3.34368 17.857,-7.03842 z"
       id="path18121"
       inkscape:connector-curvature="0"
       sodipodi:nodetypes="sscccsscssssscccsssscssssscsscssscscccccscssssccccssscccsssssscsscccccscscsssscccccsscscssscssccsscccssssscccc" />
  </g>
</svg>
