<?xml version="1.0" encoding="UTF-8" standalone="no"?>
<!-- Created with Inkscape (http://www.inkscape.org/) -->

<svg
   xmlns:dc="http://purl.org/dc/elements/1.1/"
   xmlns:cc="http://creativecommons.org/ns#"
   xmlns:rdf="http://www.w3.org/1999/02/22-rdf-syntax-ns#"
   xmlns:svg="http://www.w3.org/2000/svg"
   xmlns="http://www.w3.org/2000/svg"
   xmlns:sodipodi="http://sodipodi.sourceforge.net/DTD/sodipodi-0.dtd"
   xmlns:inkscape="http://www.inkscape.org/namespaces/inkscape"
   width="1274.5312"
   height="1274.5312"
   id="svg16853"
   version="1.1"
   inkscape:version="0.48.2 r9819"
   sodipodi:docname="audience-official.svg"
   inkscape:export-filename="/Users/pmn/code/personal/id-me/public/images/audience-official.png"
   inkscape:export-xdpi="10.59213"
   inkscape:export-ydpi="10.59213">
  <defs
     id="defs16855" />
  <sodipodi:namedview
     id="base"
     pagecolor="#ffffff"
     bordercolor="#666666"
     borderopacity="1.0"
     inkscape:pageopacity="0.0"
     inkscape:pageshadow="2"
     inkscape:zoom="0.12374369"
     inkscape:cx="551.84561"
     inkscape:cy="786.61482"
     inkscape:document-units="px"
     inkscape:current-layer="layer1"
     showgrid="false"
     fit-margin-top="0"
     fit-margin-left="0"
     fit-margin-right="0"
     fit-margin-bottom="0"
     inkscape:window-width="1017"
     inkscape:window-height="683"
     inkscape:window-x="63"
     inkscape:window-y="506"
     inkscape:window-maximized="0" />
  <metadata
     id="metadata16858">
    <rdf:RDF>
      <cc:Work
         rdf:about="">
        <dc:format>image/svg+xml</dc:format>
        <dc:type
           rdf:resource="http://purl.org/dc/dcmitype/StillImage" />
        <dc:title></dc:title>
      </cc:Work>
    </rdf:RDF>
  </metadata>
  <g
     inkscape:label="Layer 1"
     inkscape:groupmode="layer"
     id="layer1"
     transform="translate(2007.0313,356.65625)">
    <path
       style="opacity:1;fill:#2baf2b;fill-opacity:1"
       d="m -1191.9299,465.86821 c 30.0137,-9.21725 58.8953,-27.13166 82.9666,-51.46228 60.2003,-60.84781 76.2507,-144.24925 39.3702,-204.57636 -8.5284,-13.95023 -16.3013,-21.14239 -39.7184,-36.75101 -16.0132,-10.6735 -30.1461,-19.40637 -31.4063,-19.40637 -1.2602,0 -11.4227,-5.58903 -22.5833,-12.42007 -11.1606,-6.83105 -21.3737,-12.42008 -22.6959,-12.42008 -1.3221,0 -13.5316,-6.84812 -27.1321,-15.21801 -32.8299,-20.203429 -54.2667,-26.269389 -86.509,-24.479349 -22.1953,1.23238 -30.5528,3.67417 -71.6993,20.948009 -25.6164,10.75424 -54.9588,23.43389 -65.2054,28.17712 -39.0701,18.0858 -160.1305,72.83785 -200.2737,90.57776 -23.0548,10.18819 -44.363,20.71513 -47.3516,23.39321 -4.1812,3.74683 -5.4337,9.81621 -5.4337,26.32746 0,11.80187 1.3655,24.00987 3.0348,27.12855 4.266,7.97121 161.438,128.98964 170.6456,131.39293 5.318,1.38825 24.3139,-4.43521 64.0038,-19.62093 31.0431,-11.87732 58.8265,-21.5951 61.7415,-21.5951 5.9004,0 20.0317,9.26383 64.4322,42.23882 27.1609,20.17145 45.2756,29.11297 67.7397,33.43609 12.6815,2.44023 50.1276,-0.77315 66.0743,-5.67039 z m -353.2886,-64.62383 c -36.1383,-26.54698 -118.974,-91.06866 -123.4245,-96.13636 -6.4773,-7.37629 -7.429,-27.23506 -1.3053,-27.23506 4.7662,0 128.223,90.48088 136.3737,99.94747 6.3789,7.40888 7.5604,30.51737 1.5525,30.36491 -2.1347,-0.0528 -8.0731,-3.17768 -13.1964,-6.94096 z m 206.5605,-208.5719 c -33.2591,-21.19735 -60.9785,-40.06189 -61.5983,-41.92149 -1.3733,-4.12005 29.099,-18.47797 44.5313,-20.98217 8.5158,-1.38173 13.314,-0.23287 20.1668,4.83514 4.9456,3.65647 9.6333,6.64816 10.4167,6.64816 4.6786,0 105.9501,62.80988 105.9501,65.71183 0,3.84588 -45.4872,24.36043 -53.8614,24.2915 -2.8237,-0.0311 -32.3461,-17.38563 -65.6052,-38.58297 z"
       id="path17457"
       inkscape:connector-curvature="0"
       sodipodi:nodetypes="ssssssssssssssccssscsccssccscccsscs" />
    <path
       sodipodi:type="star"
       style="fill:none;stroke:#2baf2b;stroke-width:38.51411438;stroke-linecap:round;stroke-linejoin:round;stroke-miterlimit:4;stroke-opacity:1;stroke-dasharray:none"
       id="path18054"
       sodipodi:sides="6"
       sodipodi:cx="-929.34033"
       sodipodi:cy="-357.87527"
       sodipodi:r1="798.52924"
       sodipodi:r2="691.54663"
       sodipodi:arg1="2.6179939"
       sodipodi:arg2="3.1415927"
       inkscape:flatsided="true"
       inkscape:rounded="0"
       inkscape:randomized="0"
       d="m -1620.8869,41.389328 0,-798.529238 691.54659,-399.26459 691.54659,399.26462 -2e-5,798.529238 -691.54661,399.264602 z"
       transform="matrix(0.77862045,0,0,0.77925012,-646.16346,559.48)" />
  </g>
</svg>
