<?xml version="1.0" encoding="UTF-8" standalone="no"?>
<!-- Created with Inkscape (http://www.inkscape.org/) -->

<svg
   xmlns:dc="http://purl.org/dc/elements/1.1/"
   xmlns:cc="http://creativecommons.org/ns#"
   xmlns:rdf="http://www.w3.org/1999/02/22-rdf-syntax-ns#"
   xmlns:svg="http://www.w3.org/2000/svg"
   xmlns="http://www.w3.org/2000/svg"
   xmlns:sodipodi="http://sodipodi.sourceforge.net/DTD/sodipodi-0.dtd"
   xmlns:inkscape="http://www.inkscape.org/namespaces/inkscape"
   width="1274.5312"
   height="1274.5312"
   id="svg16853"
   version="1.1"
   inkscape:version="0.48.2 r9819"
   sodipodi:docname="audience-player.svg"
   inkscape:export-filename="/Users/pmn/code/personal/id-me/public/images/audience-player.png"
   inkscape:export-xdpi="10.59213"
   inkscape:export-ydpi="10.59213">
  <defs
     id="defs16855" />
  <sodipodi:namedview
     id="base"
     pagecolor="#ffffff"
     bordercolor="#666666"
     borderopacity="1.0"
     inkscape:pageopacity="0.0"
     inkscape:pageshadow="2"
     inkscape:zoom="0.24748737"
     inkscape:cx="169.66352"
     inkscape:cy="519.14658"
     inkscape:document-units="px"
     inkscape:current-layer="layer1"
     showgrid="false"
     fit-margin-top="0"
     fit-margin-left="0"
     fit-margin-right="0"
     fit-margin-bottom="0"
     inkscape:window-width="1280"
     inkscape:window-height="778"
     inkscape:window-x="0"
     inkscape:window-y="474"
     inkscape:window-maximized="1" />
  <metadata
     id="metadata16858">
    <rdf:RDF>
      <cc:Work
         rdf:about="">
        <dc:format>image/svg+xml</dc:format>
        <dc:type
           rdf:resource="http://purl.org/dc/dcmitype/StillImage" />
        <dc:title></dc:title>
      </cc:Work>
    </rdf:RDF>
  </metadata>
  <g
     inkscape:label="Layer 1"
     inkscape:groupmode="layer"
     id="layer1"
     transform="translate(2007.0313,356.65625)">
    <path
       inkscape:connector-curvature="0"
       id="path16911"
       d="m -1629.7836,646.04741 c -6.861,-1.03535 -8.1209,-2.2729 -13.3359,-13.09863 -7.5821,-15.73987 -15.7172,-26.30328 -27.0502,-35.12451 -11.7922,-9.1788 -19.4321,-18.23656 -19.4321,-23.03857 0,-0.86504 1.1165,-3.81355 2.481,-6.55226 4.5423,-9.11669 21.0676,-23.97178 32.5646,-29.27336 8.2642,-3.81089 11.7481,-7.02986 38.2887,-35.37727 14.8599,-15.87162 20.3955,-22.34212 23.2611,-27.19011 7.8141,-13.2193 16.6919,-23.31226 27.8008,-31.60601 3.2588,-2.43293 13.6532,-9.41067 23.0987,-15.50609 9.4455,-6.09542 18.3908,-12.4298 19.8784,-14.07638 3.3097,-3.66345 6.0707,-8.98754 7.8431,-15.12411 0.7353,-2.54539 3.061,-7.94906 5.1685,-12.00816 3.2172,-6.19652 4.0614,-8.75386 5.2641,-15.94532 2.6508,-15.85189 13.0535,-38.42324 26.8885,-58.34172 9.348,-13.45853 10.4467,-17.20354 7.3507,-25.05806 -3.2405,-8.22119 -4.1291,-15.6273 -3.7285,-31.07638 0.4019,-15.49944 1.3746,-20.38138 5.8229,-29.22333 5.5256,-10.98341 10.9486,-17.48185 22.8446,-27.37525 6.2764,-5.21973 6.8605,-5.96147 8.8573,-11.24704 2.5807,-6.83089 3.846,-8.75898 10.2645,-15.64075 6.2465,-6.69738 9.2469,-11.41958 13.076,-20.57986 1.7264,-4.12997 4.5686,-9.16812 6.5969,-11.69423 1.9601,-2.441 5.5928,-7.56587 8.0729,-11.38861 2.4799,-3.82274 7.0177,-10.2715 10.0838,-14.3306 3.0661,-4.05909 7.7932,-11.57522 10.5047,-16.702501 5.2925,-10.00787 15.4556,-27.264391 18.3011,-31.074417 0.9573,-1.28182 2.8704,-4.602898 4.2513,-7.380174 1.3809,-2.777277 3.6397,-6.622736 5.0197,-8.545465 4.5403,-6.326472 8.9549,-14.427611 8.9549,-16.433069 0,-1.083922 -0.6118,-2.498849 -1.3595,-3.144272 -0.7477,-0.645424 -7.1277,-3.979825 -14.1777,-7.409789 -15.0228,-7.308904 -20.0772,-10.560951 -28.8672,-18.5735587 -7.8788,-7.18196595 -11.856,-9.181294 -17.0425,-8.567039 -2.0367,0.241216 -5.2127,1.21106405 -7.0579,2.15522905 -5.4897,2.80911895 -23.4612,10.61028165 -36.7598,15.95689165 -16.2268,6.523903 -25.2416,11.900095 -52.9778,31.59437 -13.3316,9.466215 -13.9105,10.355697 -15.471,23.772014 -1.4941,12.846069 -2.429,16.645739 -4.9528,20.129779 -1.2279,1.69496 -3.1775,4.95421 -4.3327,7.24278 -4.521,8.957201 -9.8946,17.105941 -11.7438,17.809031 -2.1638,0.82265 -6.9943,-0.83688 -7.6865,-2.64068 -0.6064,-1.58021 1.7321,-10.06388 4.3898,-15.925221 1.2489,-2.75427 2.2706,-5.309 2.2706,-5.67718 0,-2.30202 -8.6587,1.21846 -20.0314,8.144381 -3.9674,2.41606 -8.0269,4.39285 -9.0213,4.39285 -0.9944,0 -3.1361,-1.0554 -4.7592,-2.34533 -1.6232,-1.28993 -4.7442,-2.86657 -6.9357,-3.503641 -6.3493,-1.8458 -8.4032,-6.69779 -4.6987,-11.10029 2.0099,-2.38861 2.4948,-4.02598 1.1923,-4.02598 -0.4124,0 -1.9855,-1.08498 -3.4959,-2.411055 -3.0648,-2.690967 -3.3911,-4.614426 -1.634,-9.63028 0.5987,-1.709093 0.9083,-4.023865 0.688,-5.143943 -0.6218,-3.161682 1.0374,-5.341187 10.2413,-13.452472 10.7937,-9.512276 17.4635,-13.679813 29.9293,-18.701004 11.1747,-4.501114 16.5709,-8.071036 31.8311,-21.058216 19.7055,-16.7703037 49.8609,-40.822174 57.258,-45.668762 4.19,-2.745355 12.161,-7.419973 17.7132,-10.38803 5.5523,-2.968066 11.8092,-6.484416 13.9042,-7.814113 6.5732,-4.171958 7.7803,-4.321496 17.2758,-2.140095 4.6397,1.065852 12.6308,2.676385 17.758,3.578941 9.4667,1.66642 25.2465,6.491229 35.5163,10.859437 3.1116,1.323475 7.4053,3.14926 9.5416,4.057317 2.1364,0.908049 7.7298,3.476062 12.4298,5.706704 11.2859,5.356321 22.3018,9.347682 27.5786,9.992469 5.3047,0.648196 18.8792,3.326337 22.5289,4.444768 1.4955,0.458278 5.3409,2.326394 8.5455,4.1513788 5.6224,3.2019385 6.1258,3.3350225 14.3719,3.7997645 4.7,0.264878 11.4446,1.056056 14.988,1.758167 7.9931,1.583785 11.1667,0.831971 16.2886,-3.858627 2.6289,-2.4075213 4.6061,-5.4585633 7.6426,-11.7932153 5.3429,-11.14646 7.0372,-16.413053 8.5449,-26.561468 1.5927,-10.720628 3.4349,-15.538429 7.7965,-20.389619 4.6218,-5.140524 14.4102,-12.462745 20.9983,-15.707862 l 5.273,-2.597324 15.168,-0.249364 15.168,-0.249372 8.1057,2.835113 c 4.4581,1.559314 9.5374,3.820196 11.2874,5.024182 3.4108,2.346724 13.424,15.982233 17.1291,23.325428 2.7882,5.526174 6.1636,13.648964 8.7163,20.975232 1.8146,5.207649 2.0353,7.022799 2.0784,17.090926 0.054,12.5085713 -0.7943,15.88375035 -5.9371,23.6317213 -3.5534,5.3534697 -5.6255,6.6290977 -12.2621,7.5487917 -3.1583,0.43766 -6.7207,1.301754 -7.9167,1.920205 -3.6858,1.905988 -6.0366,6.442371 -7.4677,14.410698 -0.7169,3.991486 -1.5904,7.700878 -1.9411,8.243096 -0.3507,0.542209 -2.3064,1.831479 -4.3461,2.865038 -2.0395,1.03355 -4.3483,2.862233 -5.1304,4.063741 -2.131,3.273674 -3.2568,3.877209 -10.6669,5.718742 -7.9147,1.966917 -7.8571,1.839815 -4.5133,9.948529 3.359,8.14556 4.6824,14.023597 5.8146,25.825952 1.0118,10.54853 1.02,10.57729 5.2926,18.644651 2.3535,4.4439 5.6303,11.57569 7.2815,15.84843 1.6513,4.27273 4.2516,10.21571 5.7784,13.20662 l 2.7762,5.43803 3.9516,-0.10097 c 4.7708,-0.1219 11.9451,-3.21031 15.6536,-6.73862 2.6209,-2.49361 3.3082,-3.46649 10.535,-14.91251 4.4292,-7.01502 4.1749,-4.88121 3.473,-29.132271 -0.2961,-10.231402 -0.2312,-10.743819 2.6547,-20.975227 4.2259,-14.982507 5.9669,-20.416964 6.9011,-21.542604 0.4502,-0.542489 2.0171,-0.986348 3.4821,-0.986348 2.305,0 2.815,0.362607 3.7892,2.694059 0.6191,1.481737 1.1256,3.404466 1.1256,4.272732 0,2.126508 0.6748,1.999973 4.5562,-0.85443 2.956,-2.173912 3.7114,-2.385373 7.0916,-1.985042 6.8153,0.807158 13.276,5.554824 16.7854,12.334555 2.3904,4.618389 3.6137,14.261037 2.5928,20.438995 -1.6716,10.11472 -7.274,22.163931 -13.7638,29.601811 -4.2068,4.82135 -6.5319,7.97745 -8.1938,11.12207 -0.8081,1.52917 -1.9177,3.30469 -2.4657,3.9456 -0.548,0.64091 -2.9929,5.1638 -5.4329,10.05086 -4.9638,9.94167 -16.4444,30.43237 -20.0491,35.78391 -8.3462,12.39076 -21.5106,26.14508 -29.7417,31.07441 -4.303,2.57693 -4.907,2.71818 -11.5588,2.70305 -6.3454,-0.0145 -7.4657,-0.25008 -11.6798,-2.45671 -8.3401,-4.36721 -12.0101,-9.58295 -25.0445,-35.59349 -3.64,-7.26364 -8.9581,-17.57646 -11.8181,-22.91738 -2.86,-5.34092 -6.3742,-12.42006 -7.8091,-15.73142 -1.7483,-4.0343 -3.0334,-6.02067 -3.8951,-6.02067 -0.7073,0 -4.9436,3.40847 -9.4141,7.57439 -7.7766,7.24685 -19.7148,16.10345 -33.4945,24.84834 -8.3101,5.27382 -11.4257,8.24848 -15.8208,15.10547 -5.1683,8.06299 -11.211,14.04177 -18.4694,18.27376 -12.9466,7.54853 -30.491,19.51211 -33.6051,22.9155 -1.772,1.93659 -4.2101,5.05359 -5.418,6.92666 -1.2078,1.87307 -3.3338,4.83089 -4.7245,6.57292 -1.3906,1.74204 -3.0776,4.48189 -3.749,6.08855 -1.4024,3.3566 -0.7868,4.66164 2.5791,5.46738 5.9086,1.41446 41.2017,14.25551 50.1256,18.23773 5.6339,2.51405 12.5157,5.51542 15.2929,6.66971 12.6516,5.25822 31.5738,15.54985 39.1506,21.29359 4.3173,3.27279 11.3454,8.34484 15.6181,11.27122 14.848,10.16936 20.4045,17.06351 24.8596,30.84465 3.5523,10.98842 3.6236,15.7031 0.3369,22.28037 -1.3101,2.6218 -3.8492,6.26091 -5.6425,8.0869 -4.4073,4.48755 -20.2551,15.84606 -48.6863,34.8943 -28.088,18.81839 -30.3407,20.20711 -44.5762,27.47998 -31.4627,16.07415 -33.7817,17.39541 -43.6612,24.87635 -5.5195,4.17941 -11.4338,8.82762 -13.1429,10.32934 -5.7358,5.04001 -5.9495,5.70165 -6.8916,21.34684 -1.3003,21.59326 -1.0957,26.29228 1.4444,33.16196 3.531,9.55011 7.7401,18.10515 10.3959,21.13003 1.6985,1.93449 4.2038,3.49402 7.8527,4.88834 9.9373,3.79725 15.2149,9.19422 16.0299,16.39211 0.6771,5.98046 -0.9207,9.66433 -5.1073,11.77554 -4.7608,2.40071 -7.6214,2.20623 -15.859,-1.07811 -21.9909,-8.76788 -35.3155,-16.60096 -46.4905,-27.33038 -4.6451,-4.45985 -7.4532,-7.92117 -19.589,-24.14615 -1.7258,-2.30729 -7.0055,-7.41497 -11.7327,-11.3504 -6.1353,-5.10768 -10.2823,-9.37897 -14.4916,-14.9257 -7.9261,-10.4446 -7.917,-10.42489 -6.4357,-13.98634 2.067,-4.9695 4.946,-8.47879 11.13,-13.56644 3.2686,-2.68906 8.8771,-7.63971 12.4634,-11.00144 l 6.5205,-6.11223 3.7737,0.5006 c 4.3779,0.58074 5.0864,0.27386 12.5008,-5.41462 19.8211,-15.20717 49.7265,-45.51262 65.303,-66.17644 4.9138,-6.51855 10.8636,-13.31402 14.8587,-16.9704 3.6649,-3.35409 6.6633,-6.34897 6.6633,-6.65528 0,-1.42352 -26.5109,-4.57291 -58.2485,-6.91968 -11.7412,-0.86818 -23.7827,-2.13235 -26.7589,-2.80926 l -5.4111,-1.23075 -1.5965,2.00854 c -0.8782,1.1047 -3.3125,5.25586 -5.4097,9.22481 -2.0972,3.96895 -7.7223,13.50884 -12.5002,21.19976 -4.7777,7.69092 -9.9512,16.08101 -11.4966,18.64465 -1.5453,2.56364 -5.7087,8.02056 -9.252,12.12649 -11.2498,13.0362 -24.7703,30.27358 -34.2488,43.66413 -2.4753,3.49702 -5.6216,7.44286 -6.9918,8.76853 -1.37,1.32567 -10.7063,7.57115 -20.7473,13.87884 -10.0409,6.30769 -19.4797,12.25706 -20.9752,13.22082 -1.4954,0.96375 -8.449,6.5424 -15.4524,12.397 -14.4719,12.09801 -24.3054,19.23818 -38.0411,27.62204 -21.2613,12.97724 -29.853,19.74268 -48.4117,38.1212 -5.133,5.08321 -6.0411,7.96851 -4.641,14.74707 0.7376,3.57085 0.689,5.03987 -0.2702,8.17625 -0.7259,2.37356 -0.9884,5.07353 -0.6922,7.12037 0.307,2.1221 -0.015,5.11434 -0.9034,8.3966 -1.2987,4.79755 -1.3038,5.34244 -0.088,9.201 0.7111,2.25579 1.2929,5.7194 1.2929,7.6969 0,4.92823 1.9983,8.86096 4.9921,9.82458 1.3134,0.42278 6.3952,1.16131 11.2927,1.64117 10.4984,1.02864 14.2101,2.3208 16.2632,5.66164 2.0049,3.26248 2.7716,7.70073 1.6819,9.73674 -2.0027,3.74221 -10.6995,5.8428 -29.1803,7.0481 -6.8364,0.44586 -13.8282,0.94228 -15.5372,1.10316 -1.7091,0.16088 -4.6806,0.0551 -6.6034,-0.23502 z"
       style="fill:#ef5734;fill-opacity:1" />
    <path
       sodipodi:type="star"
       style="fill:none;stroke:#ef5734;stroke-width:23.22437096000000167;stroke-linecap:round;stroke-linejoin:round;stroke-miterlimit:4;stroke-opacity:1;stroke-dasharray:none"
       id="path18108"
       sodipodi:sides="6"
       sodipodi:cx="-707.10681"
       sodipodi:cy="256.29745"
       sodipodi:r1="481.96875"
       sodipodi:r2="417.39719"
       sodipodi:arg1="2.6179939"
       sodipodi:arg2="3.1415927"
       inkscape:flatsided="true"
       inkscape:rounded="0"
       inkscape:randomized="0"
       d="m -1124.504,497.28182 0,-481.968749 417.3972,-240.984371 417.39718,240.984389 -2e-5,481.968751 -417.39718,240.98436 z"
       transform="matrix(1.2924262,0,0,1.2910671,-455.88348,-50.29156)" />
  </g>
</svg>
