<svg
   xmlns:dc="http://purl.org/dc/elements/1.1/"
   xmlns:cc="http://creativecommons.org/ns#"
   xmlns:rdf="http://www.w3.org/1999/02/22-rdf-syntax-ns#"
   xmlns:svg="http://www.w3.org/2000/svg"
   xmlns="http://www.w3.org/2000/svg"
   version="1.1"
   viewBox="0 0 499.98026 575.79913" preserveAspectRatio="xMidYMid meet">
  <g
     transform="translate(35.277733,-129.85261)"
     id="layer1">
    <path
       d="M 249.625,0 A 5.0004902,5.0005097 0 0 0 247.5,0.6875 L 2.5,142.125 A 5.0004902,5.0005097 0 0 0 0,146.46875 l 0,282.875 a 5.0004902,5.0005097 0 0 0 2.5,4.34375 l 245,141.4375 a 5.0004902,5.0005097 0 0 0 4.96875,0 L 497.5,433.6875 a 5.0004902,5.0005097 0 0 0 2.46875,-4.34375 l 0,-282.875 A 5.0004902,5.0005097 0 0 0 497.5,142.125 L 252.46875,0.6875 A 5.0004902,5.0005097 0 0 0 249.625,0 z m 0.375,10.78125 239.96875,138.5625 0,277.125 L 250,565.03125 10,426.46875 10,149.34375 250,10.78125 z M 250,22.3125 20,155.125 20,420.6875 250,553.5 480,420.6875 480,155.125 250,22.3125 z m 0.0312,12.09375 2.4375,4.90625 5.4375,0.8125 -3.9375,3.84375 0.9375,5.40625 -4.875,-2.5625 -4.875,2.5625 0.9375,-5.40625 -3.9375,-3.84375 5.4375,-0.8125 2.4375,-4.90625 z m -15.9375,8.96875 2.4375,4.9375 5.4375,0.8125 -3.9375,3.84375 0.9375,5.40625 -4.875,-2.5625 -4.875,2.5625 0.9375,-5.40625 -3.96875,-3.84375 5.46875,-0.8125 2.4375,-4.9375 z m 31.8125,0 2.4375,4.9375 5.46875,0.8125 -3.96875,3.84375 0.9375,5.40625 -4.875,-2.5625 -4.875,2.5625 0.9375,-5.40625 -3.9375,-3.84375 5.4375,-0.8125 2.4375,-4.9375 z m -15.875,6 2.4375,4.9375 5.4375,0.8125 -3.9375,3.84375 0.9375,5.40625 -4.875,-2.5625 -4.875,2.5625 0.9375,-5.40625 -3.9375,-3.84375 5.4375,-0.8125 2.4375,-4.9375 z m -31.8125,3 2.4375,4.9375 5.4375,0.8125 -3.9375,3.84375 0.9375,5.40625 -4.875,-2.5625 -4.875,2.5625 0.90625,-5.40625 -3.9375,-3.84375 5.46875,-0.8125 2.4375,-4.9375 z m 63.5625,0 2.4375,4.9375 5.46875,0.8125 -3.9375,3.84375 0.90625,5.40625 -4.875,-2.5625 -4.875,2.5625 0.9375,-5.40625 -3.9375,-3.84375 5.4375,-0.8125 2.4375,-4.9375 z m -47.6875,6 2.4375,4.9375 5.4375,0.8125 -3.9375,3.84375 0.9375,5.40625 -4.875,-2.5625 -4.875,2.5625 0.9375,-5.40625 -3.96875,-3.84375 5.46875,-0.8125 2.4375,-4.9375 z m 31.8125,0 2.4375,4.9375 5.46875,0.8125 -3.96875,3.84375 0.9375,5.40625 -4.875,-2.5625 -4.875,2.5625 0.9375,-5.40625 -3.9375,-3.84375 5.4375,-0.8125 2.4375,-4.9375 z m -63.59375,3 2.4375,4.9375 5.46875,0.8125 -3.96875,3.84375 0.9375,5.40625 -4.875,-2.5625 -4.875,2.5625 0.9375,-5.40625 -3.9375,-3.84375 5.4375,-0.8125 2.4375,-4.9375 z m 95.375,0 2.4375,4.9375 5.4375,0.8125 -3.9375,3.84375 0.9375,5.40625 -4.875,-2.5625 -4.875,2.5625 0.9375,-5.40625 -3.96875,-3.84375 5.46875,-0.8125 2.4375,-4.9375 z m -47.65625,3 2.4375,4.9375 5.4375,0.8125 -3.9375,3.84375 0.9375,5.40625 -4.875,-2.5625 -4.875,2.5625 0.9375,-5.40625 -3.9375,-3.84375 5.4375,-0.8125 2.4375,-4.9375 z m -31.8125,3 2.4375,4.9375 5.4375,0.8125 -3.9375,3.84375 0.9375,5.40625 -4.875,-2.5625 -4.875,2.5625 0.90625,-5.40625 -3.9375,-3.84375 5.46875,-0.8125 2.4375,-4.9375 z m 63.5625,0 2.4375,4.9375 5.46875,0.8125 -3.9375,3.84375 0.90625,5.40625 -4.875,-2.5625 -4.875,2.5625 0.9375,-5.40625 -3.9375,-3.84375 5.4375,-0.8125 2.4375,-4.9375 z m -95.34375,3 2.4375,4.9375 5.4375,0.8125 -3.9375,3.84375 0.9375,5.40625 -4.875,-2.5625 -4.875,2.5625 L 182.5,79.96875 178.5625,76.125 184,75.3125 186.4375,70.375 z m 127.125,0 2.4375,4.9375 5.4375,0.8125 -3.9375,3.84375 0.9375,5.40625 -4.875,-2.5625 -4.875,2.5625 0.9375,-5.40625 -3.9375,-3.84375 5.4375,-0.8125 2.4375,-4.9375 z m -79.46875,3 2.4375,4.9375 5.4375,0.8125 -3.9375,3.84375 0.9375,5.40625 -4.875,-2.5625 -4.875,2.5625 0.9375,-5.40625 -3.96875,-3.84375 5.46875,-0.8125 2.4375,-4.9375 z m 31.8125,0 2.4375,4.9375 5.46875,0.8125 -3.96875,3.84375 0.9375,5.40625 -4.875,-2.5625 -4.875,2.5625 0.9375,-5.40625 -3.9375,-3.84375 5.4375,-0.8125 2.4375,-4.9375 z m -63.59375,3 2.4375,4.9375 5.46875,0.8125 -3.96875,3.84375 0.9375,5.40625 -4.875,-2.5625 -4.875,2.5625 0.9375,-5.40625 -3.9375,-3.84375 5.4375,-0.8125 2.4375,-4.9375 z m 95.375,0 2.4375,4.9375 5.4375,0.8125 -3.9375,3.84375 0.9375,5.40625 -4.875,-2.5625 -4.875,2.5625 0.9375,-5.40625 -3.96875,-3.84375 5.46875,-0.8125 2.4375,-4.9375 z m -127.125,3 2.4375,4.9375 5.4375,0.8125 -3.9375,3.84375 0.9375,5.40625 -4.875,-2.5625 -4.875,2.5625 0.9375,-5.40625 -3.96875,-3.84375 5.46875,-0.8125 2.4375,-4.9375 z m 79.46875,0 2.4375,4.9375 5.4375,0.8125 -3.9375,3.84375 0.9375,5.40625 -4.875,-2.5625 -4.875,2.5625 0.9375,-5.40625 -3.9375,-3.84375 5.4375,-0.8125 2.4375,-4.9375 z m 79.40625,0 2.4375,4.9375 5.46875,0.8125 -3.96875,3.84375 0.9375,5.40625 -4.875,-2.5625 -4.875,2.5625 L 325.5,88.96875 321.5625,85.125 327,84.3125 329.4375,79.375 z m -111.21875,3 2.4375,4.9375 5.4375,0.8125 -3.9375,3.84375 0.9375,5.40625 -4.875,-2.5625 -4.875,2.5625 0.90625,-5.40625 -3.9375,-3.84375 5.46875,-0.8125 2.4375,-4.9375 z m 63.5625,0 2.4375,4.9375 5.46875,0.8125 -3.9375,3.84375 0.90625,5.40625 -4.875,-2.5625 -4.875,2.5625 0.9375,-5.40625 -3.9375,-3.84375 5.4375,-0.8125 2.4375,-4.9375 z m -95.34375,3 2.4375,4.9375 5.4375,0.8125 -3.9375,3.84375 0.9375,5.40625 -4.875,-2.5625 -4.875,2.5625 L 182.5,94.96875 178.5625,91.125 184,90.3125 186.4375,85.375 z m 127.125,0 2.4375,4.9375 5.4375,0.8125 -3.9375,3.84375 0.9375,5.40625 -4.875,-2.5625 -4.875,2.5625 0.9375,-5.40625 -3.9375,-3.84375 5.4375,-0.8125 2.4375,-4.9375 z m -158.875,3 2.4375,4.9375 5.4375,0.8125 -3.9375,3.84375 0.9375,5.40625 -4.875,-2.5625 -4.875,2.5625 0.90625,-5.40625 -3.9375,-3.84375 5.46875,-0.8125 2.4375,-4.9375 z m 79.40625,0 2.4375,4.9375 5.4375,0.8125 -3.9375,3.84375 0.9375,5.40625 -4.875,-2.5625 -4.875,2.5625 0.9375,-5.40625 -3.96875,-3.84375 5.46875,-0.8125 2.4375,-4.9375 z m 31.8125,0 2.4375,4.9375 5.46875,0.8125 -3.96875,3.84375 0.9375,5.40625 -4.875,-2.5625 -4.875,2.5625 0.9375,-5.40625 -3.9375,-3.84375 5.4375,-0.8125 2.4375,-4.9375 z m 79.40625,0 2.4375,4.9375 5.46875,0.8125 -3.9375,3.84375 0.90625,5.40625 -4.875,-2.5625 -4.875,2.5625 0.9375,-5.40625 -3.9375,-3.84375 5.4375,-0.8125 2.4375,-4.9375 z m -143,3 2.4375,4.9375 5.46875,0.8125 -3.96875,3.84375 0.9375,5.40625 -4.875,-2.5625 -4.875,2.5625 0.9375,-5.40625 -3.9375,-3.84375 5.4375,-0.8125 2.4375,-4.9375 z m 95.375,0 2.4375,4.9375 5.4375,0.8125 -3.9375,3.84375 0.9375,5.40625 -4.875,-2.5625 -4.875,2.5625 0.9375,-5.40625 -3.96875,-3.84375 5.46875,-0.8125 2.4375,-4.9375 z m -127.125,3 2.4375,4.9375 5.4375,0.8125 -3.9375,3.84375 0.9375,5.40625 -4.875,-2.5625 -4.875,2.5625 0.9375,-5.40625 -3.96875,-3.84375 5.46875,-0.8125 2.4375,-4.9375 z m 79.46875,0 2.4375,4.9375 5.4375,0.8125 -3.9375,3.84375 0.9375,5.40625 -4.875,-2.5625 -4.875,2.5625 0.9375,-5.40625 -3.9375,-3.84375 5.4375,-0.8125 2.4375,-4.9375 z m 79.40625,0 2.4375,4.9375 5.46875,0.8125 -3.96875,3.84375 0.9375,5.40625 -4.875,-2.5625 -4.875,2.5625 0.9375,-5.40625 -3.9375,-3.84375 5.4375,-0.8125 2.4375,-4.9375 z m -190.65625,3 2.4375,4.9375 5.46875,0.8125 -3.9375,3.84375 0.90625,5.40625 -4.875,-2.5625 -4.875,2.5625 0.9375,-5.40625 -3.9375,-3.84375 5.4375,-0.8125 2.4375,-4.9375 z m 79.4375,0 2.4375,4.9375 5.4375,0.8125 -3.9375,3.84375 0.9375,5.40625 -4.875,-2.5625 -4.875,2.5625 0.90625,-5.40625 -3.9375,-3.84375 5.46875,-0.8125 2.4375,-4.9375 z m 63.5625,0 2.4375,4.9375 5.46875,0.8125 -3.9375,3.84375 0.90625,5.40625 -4.875,-2.5625 -4.875,2.5625 0.9375,-5.40625 -3.9375,-3.84375 5.4375,-0.8125 2.4375,-4.9375 z m 79.4375,0 2.4375,4.9375 5.4375,0.8125 -3.9375,3.84375 0.9375,5.40625 -4.875,-2.5625 -4.875,2.5625 0.90625,-5.40625 -3.9375,-3.84375 5.46875,-0.8125 2.4375,-4.9375 z m -174.78125,3 2.4375,4.9375 5.4375,0.8125 -3.9375,3.84375 0.9375,5.40625 -4.875,-2.5625 -4.875,2.5625 0.9375,-5.40625 -3.9375,-3.84375 5.4375,-0.8125 2.4375,-4.9375 z m 127.125,0 2.4375,4.9375 5.4375,0.8125 -3.9375,3.84375 0.9375,5.40625 -4.875,-2.5625 -4.875,2.5625 0.9375,-5.40625 -3.9375,-3.84375 5.4375,-0.8125 2.4375,-4.9375 z m -158.875,3 2.4375,4.9375 5.4375,0.8125 -3.9375,3.84375 0.9375,5.40625 -4.875,-2.5625 -4.875,2.5625 0.90625,-5.40625 -3.9375,-3.84375 5.46875,-0.8125 2.4375,-4.9375 z m 79.40625,0 2.4375,4.9375 5.4375,0.8125 -3.9375,3.84375 0.9375,5.40625 -4.875,-2.5625 -4.875,2.5625 0.9375,-5.40625 -3.96875,-3.84375 5.46875,-0.8125 2.4375,-4.9375 z m 31.8125,0 2.4375,4.9375 5.46875,0.8125 -3.96875,3.84375 0.9375,5.40625 -4.875,-2.5625 -4.875,2.5625 0.9375,-5.40625 -3.9375,-3.84375 5.4375,-0.8125 2.4375,-4.9375 z m 79.40625,0 2.4375,4.9375 5.46875,0.8125 -3.9375,3.84375 0.90625,5.40625 -4.875,-2.5625 -4.875,2.5625 0.9375,-5.40625 -3.9375,-3.84375 5.4375,-0.8125 2.4375,-4.9375 z m -222.40625,3 2.4375,4.9375 5.4375,0.8125 -3.9375,3.84375 0.9375,5.40625 -4.875,-2.5625 -4.875,2.5625 0.9375,-5.40625 -3.9375,-3.84375 5.4375,-0.8125 2.4375,-4.9375 z m 79.40625,0 2.4375,4.9375 5.46875,0.8125 -3.96875,3.84375 0.9375,5.40625 -4.875,-2.5625 -4.875,2.5625 0.9375,-5.40625 -3.9375,-3.84375 5.4375,-0.8125 2.4375,-4.9375 z m 95.375,0 2.4375,4.9375 5.4375,0.8125 -3.9375,3.84375 0.9375,5.40625 -4.875,-2.5625 -4.875,2.5625 0.9375,-5.40625 -3.96875,-3.84375 5.46875,-0.8125 2.4375,-4.9375 z m 79.40625,0 2.4375,4.9375 5.4375,0.8125 -3.9375,3.84375 0.9375,5.40625 -4.875,-2.5625 -4.875,2.5625 0.9375,-5.40625 -3.9375,-3.84375 5.4375,-0.8125 2.4375,-4.9375 z m -206.53125,3 2.4375,4.9375 5.4375,0.8125 -3.9375,3.84375 0.9375,5.40625 -4.875,-2.5625 -4.875,2.5625 0.9375,-5.40625 -3.96875,-3.84375 5.46875,-0.8125 2.4375,-4.9375 z m 79.46875,0 2.4375,4.9375 5.4375,0.8125 -3.9375,3.84375 0.9375,5.40625 -4.875,-2.5625 -4.875,2.5625 0.9375,-5.40625 -3.9375,-3.84375 5.4375,-0.8125 2.4375,-4.9375 z m 79.40625,0 2.4375,4.9375 5.46875,0.8125 -3.96875,3.84375 0.9375,5.40625 -4.875,-2.5625 -4.875,2.5625 0.9375,-5.40625 -3.9375,-3.84375 5.4375,-0.8125 2.4375,-4.9375 z m -190.65625,3 2.4375,4.9375 5.46875,0.8125 -3.9375,3.84375 0.90625,5.40625 -4.875,-2.5625 -4.875,2.5625 0.9375,-5.40625 -3.9375,-3.84375 5.4375,-0.8125 2.4375,-4.9375 z m 79.4375,0 2.4375,4.9375 5.4375,0.8125 -3.9375,3.84375 0.9375,5.40625 -4.875,-2.5625 -4.875,2.5625 0.90625,-5.40625 -3.9375,-3.84375 5.46875,-0.8125 2.4375,-4.9375 z m 63.5625,0 2.4375,4.9375 5.46875,0.8125 -3.9375,3.84375 0.90625,5.40625 -4.875,-2.5625 -4.875,2.5625 0.9375,-5.40625 -3.9375,-3.84375 5.4375,-0.8125 2.4375,-4.9375 z m 79.4375,0 2.4375,4.9375 5.4375,0.8125 -3.9375,3.84375 0.9375,5.40625 -4.875,-2.5625 -4.875,2.5625 0.90625,-5.40625 -3.9375,-3.84375 5.46875,-0.8125 2.4375,-4.9375 z m -254.1875,3 2.4375,4.9375 5.4375,0.8125 -3.9375,3.84375 0.9375,5.40625 -4.875,-2.5625 -4.875,2.5625 0.9375,-5.40625 -3.9375,-3.84375 5.4375,-0.8125 2.4375,-4.9375 z m 79.40625,0 2.4375,4.9375 5.4375,0.8125 -3.9375,3.84375 0.9375,5.40625 -4.875,-2.5625 -4.875,2.5625 0.9375,-5.40625 -3.9375,-3.84375 5.4375,-0.8125 2.4375,-4.9375 z m 127.125,0 2.4375,4.9375 5.4375,0.8125 -3.9375,3.84375 0.9375,5.40625 -4.875,-2.5625 -4.875,2.5625 0.9375,-5.40625 -3.9375,-3.84375 5.4375,-0.8125 2.4375,-4.9375 z m 79.40625,0 2.4375,4.9375 5.4375,0.8125 -3.9375,3.84375 0.9375,5.40625 -4.875,-2.5625 -4.875,2.5625 0.9375,-5.40625 -3.9375,-3.84375 5.4375,-0.8125 2.4375,-4.9375 z m -238.28125,3 2.4375,4.9375 5.4375,0.8125 -3.9375,3.84375 0.9375,5.40625 -4.875,-2.5625 -4.875,2.5625 0.90625,-5.40625 -3.9375,-3.84375 5.46875,-0.8125 2.4375,-4.9375 z m 79.40625,0 2.4375,4.9375 5.4375,0.8125 -3.9375,3.84375 0.9375,5.40625 -4.875,-2.5625 -4.875,2.5625 0.9375,-5.40625 -3.96875,-3.84375 5.46875,-0.8125 2.4375,-4.9375 z m 31.8125,0 2.4375,4.9375 5.46875,0.8125 -3.96875,3.84375 0.9375,5.40625 -4.875,-2.5625 -4.875,2.5625 0.9375,-5.40625 -3.9375,-3.84375 5.4375,-0.8125 2.4375,-4.9375 z m 79.40625,0 2.4375,4.9375 5.46875,0.8125 -3.9375,3.84375 0.90625,5.40625 -4.875,-2.5625 -4.875,2.5625 0.9375,-5.40625 -3.9375,-3.84375 5.4375,-0.8125 2.4375,-4.9375 z m -222.40625,3 2.4375,4.9375 5.4375,0.8125 -3.9375,3.84375 0.9375,5.40625 -4.875,-2.5625 -4.875,2.5625 0.9375,-5.40625 -3.9375,-3.84375 5.4375,-0.8125 2.4375,-4.9375 z m 79.40625,0 2.4375,4.9375 5.46875,0.8125 -3.96875,3.84375 0.9375,5.40625 -4.875,-2.5625 -4.875,2.5625 0.9375,-5.40625 -3.9375,-3.84375 5.4375,-0.8125 2.4375,-4.9375 z m 95.375,0 2.4375,4.9375 5.4375,0.8125 -3.9375,3.84375 0.9375,5.40625 -4.875,-2.5625 -4.875,2.5625 0.9375,-5.40625 -3.96875,-3.84375 5.46875,-0.8125 2.4375,-4.9375 z m 79.40625,0 2.4375,4.9375 5.4375,0.8125 -3.9375,3.84375 0.9375,5.40625 -4.875,-2.5625 -4.875,2.5625 0.9375,-5.40625 -3.9375,-3.84375 5.4375,-0.8125 2.4375,-4.9375 z m -285.9375,3 2.4375,4.9375 5.4375,0.8125 -3.9375,3.84375 0.9375,5.40625 -4.875,-2.5625 -4.875,2.5625 0.90625,-5.40625 -3.9375,-3.84375 5.46875,-0.8125 2.4375,-4.9375 z m 79.40625,0 2.4375,4.9375 5.4375,0.8125 -3.9375,3.84375 0.9375,5.40625 -4.875,-2.5625 -4.875,2.5625 0.9375,-5.40625 -3.96875,-3.84375 5.46875,-0.8125 2.4375,-4.9375 z m 79.46875,0 2.4375,4.9375 5.4375,0.8125 -3.9375,3.84375 0.9375,5.40625 -4.875,-2.5625 -4.875,2.5625 0.9375,-5.40625 -3.9375,-3.84375 5.4375,-0.8125 2.4375,-4.9375 z m 79.40625,0 2.4375,4.9375 5.46875,0.8125 -3.96875,3.84375 0.9375,5.40625 -4.875,-2.5625 -4.875,2.5625 0.9375,-5.40625 -3.9375,-3.84375 5.4375,-0.8125 2.4375,-4.9375 z m 79.40625,0 2.4375,4.9375 5.46875,0.8125 -3.9375,3.84375 0.90625,5.40625 -4.875,-2.5625 -4.875,2.5625 0.9375,-5.40625 -3.9375,-3.84375 5.4375,-0.8125 2.4375,-4.9375 z m -270.0625,3 2.4375,4.9375 5.46875,0.8125 -3.9375,3.84375 0.90625,5.40625 -4.875,-2.5625 -4.875,2.5625 0.9375,-5.40625 -3.9375,-3.84375 5.4375,-0.8125 2.4375,-4.9375 z m 79.4375,0 2.4375,4.9375 5.4375,0.8125 -3.9375,3.84375 0.9375,5.40625 -4.875,-2.5625 -4.875,2.5625 0.90625,-5.40625 -3.9375,-3.84375 5.46875,-0.8125 2.4375,-4.9375 z m 63.5625,0 2.4375,4.9375 5.46875,0.8125 -3.9375,3.84375 0.90625,5.40625 -4.875,-2.5625 -4.875,2.5625 0.9375,-5.40625 -3.9375,-3.84375 5.4375,-0.8125 2.4375,-4.9375 z m 79.4375,0 2.4375,4.9375 5.4375,0.8125 -3.9375,3.84375 0.9375,5.40625 -4.875,-2.5625 -4.875,2.5625 0.90625,-5.40625 -3.9375,-3.84375 5.46875,-0.8125 2.4375,-4.9375 z m -254.1875,3 2.4375,4.9375 5.4375,0.8125 -3.9375,3.84375 0.9375,5.40625 -4.875,-2.5625 -4.875,2.5625 0.9375,-5.40625 -3.9375,-3.84375 5.4375,-0.8125 2.4375,-4.9375 z m 79.40625,0 2.4375,4.9375 5.4375,0.8125 -3.9375,3.84375 0.9375,5.40625 -4.875,-2.5625 -4.875,2.5625 0.9375,-5.40625 -3.9375,-3.84375 5.4375,-0.8125 2.4375,-4.9375 z m 127.125,0 2.4375,4.9375 5.4375,0.8125 -3.9375,3.84375 0.9375,5.40625 -4.875,-2.5625 -4.875,2.5625 0.9375,-5.40625 -3.9375,-3.84375 5.4375,-0.8125 2.4375,-4.9375 z m 79.40625,0 2.4375,4.9375 5.4375,0.8125 -3.9375,3.84375 0.9375,5.40625 -4.875,-2.5625 -4.875,2.5625 0.9375,-5.40625 -3.9375,-3.84375 5.4375,-0.8125 2.4375,-4.9375 z m -317.71875,3 2.4375,4.9375 5.46875,0.8125 -3.9375,3.84375 0.90625,5.40625 -4.875,-2.5625 -4.875,2.5625 0.9375,-5.40625 -3.9375,-3.84375 5.4375,-0.8125 2.4375,-4.9375 z m 79.4375,0 2.4375,4.9375 5.4375,0.8125 -3.9375,3.84375 0.9375,5.40625 -4.875,-2.5625 -4.875,2.5625 0.90625,-5.40625 -3.9375,-3.84375 5.46875,-0.8125 2.4375,-4.9375 z m 79.40625,0 2.4375,4.9375 5.4375,0.8125 -3.9375,3.84375 0.9375,5.40625 -4.875,-2.5625 -4.875,2.5625 0.9375,-5.40625 -3.96875,-3.84375 5.46875,-0.8125 2.4375,-4.9375 z m 31.8125,0 2.4375,4.9375 5.46875,0.8125 -3.96875,3.84375 0.9375,5.40625 -4.875,-2.5625 -4.875,2.5625 0.9375,-5.40625 -3.9375,-3.84375 5.4375,-0.8125 2.4375,-4.9375 z m 79.40625,0 2.4375,4.9375 5.46875,0.8125 -3.9375,3.84375 0.90625,5.40625 -4.875,-2.5625 -4.875,2.5625 0.9375,-5.40625 -3.9375,-3.84375 5.4375,-0.8125 2.4375,-4.9375 z m 79.4375,0 2.4375,4.9375 5.4375,0.8125 -3.9375,3.84375 0.9375,5.40625 -4.875,-2.5625 -4.875,2.5625 0.90625,-5.40625 -3.9375,-3.84375 5.46875,-0.8125 2.4375,-4.9375 z m -301.84375,3 2.4375,4.9375 5.4375,0.8125 -3.9375,3.84375 0.84375,4.90625 -0.84375,0 -3.9375,-2.0625 -3.9375,2.0625 -0.84375,0 0.84375,-4.90625 -3.9375,-3.84375 5.4375,-0.8125 2.4375,-4.9375 z m 79.40625,0 2.4375,4.9375 5.46875,0.8125 -3.96875,3.84375 0.84375,4.90625 -0.84375,0 -3.9375,-2.0625 -3.9375,2.0625 -0.84375,0 0.84375,-4.90625 -3.9375,-3.84375 5.4375,-0.8125 2.4375,-4.9375 z m 95.375,0 2.4375,4.9375 5.4375,0.8125 -3.9375,3.84375 0.84375,4.90625 -0.84375,0 -3.9375,-2.0625 -3.9375,2.0625 -0.84375,0 0.84375,-4.90625 -3.96875,-3.84375 5.46875,-0.8125 2.4375,-4.9375 z m 79.40625,0 2.4375,4.9375 5.4375,0.8125 -3.9375,3.84375 0.84375,4.90625 -0.84375,0 -3.9375,-2.0625 -3.9375,2.0625 -0.84375,0 0.84375,-4.90625 -3.9375,-3.84375 5.4375,-0.8125 2.4375,-4.9375 z m -285.9375,3 2.4375,4.9375 5.4375,0.8125 -3.9375,3.84375 0.34375,1.90625 -8.5625,0 0.3125,-1.90625 -3.9375,-3.84375 5.46875,-0.8125 2.4375,-4.9375 z m 79.40625,0 2.4375,4.9375 5.4375,0.8125 -3.9375,3.84375 0.34375,1.90625 -8.5625,0 0.34375,-1.90625 -3.96875,-3.84375 5.46875,-0.8125 2.4375,-4.9375 z m 79.46875,0 2.4375,4.9375 5.4375,0.8125 -3.9375,3.84375 0.34375,1.90625 -8.5625,0 0.34375,-1.90625 -3.9375,-3.84375 5.4375,-0.8125 2.4375,-4.9375 z m 79.40625,0 2.4375,4.9375 5.46875,0.8125 -3.96875,3.84375 0.34375,1.90625 -8.5625,0 0.34375,-1.90625 -3.9375,-3.84375 5.4375,-0.8125 2.4375,-4.9375 z m 79.40625,0 2.4375,4.9375 5.46875,0.8125 -3.9375,3.84375 0.3125,1.90625 -8.5625,0 0.34375,-1.90625 -3.9375,-3.84375 5.4375,-0.8125 2.4375,-4.9375 z m -349.46875,3 2.4375,4.9375 5.46875,0.8125 -2.84375,2.75 -10.125,0 -2.8125,-2.75 5.4375,-0.8125 2.4375,-4.9375 z m 79.40625,0 2.4375,4.9375 5.46875,0.8125 -2.8125,2.75 -10.15625,0 -2.8125,-2.75 5.4375,-0.8125 2.4375,-4.9375 z m 79.4375,0 2.4375,4.9375 5.4375,0.8125 -2.8125,2.75 -10.15625,0 -2.8125,-2.75 5.46875,-0.8125 2.4375,-4.9375 z m 63.5625,0 2.4375,4.9375 5.46875,0.8125 -2.8125,2.75 -10.15625,0 -2.8125,-2.75 5.4375,-0.8125 2.4375,-4.9375 z m 79.4375,0 2.4375,4.9375 5.4375,0.8125 -2.8125,2.75 -10.15625,0 -2.8125,-2.75 5.46875,-0.8125 2.4375,-4.9375 z m 79.40625,0 2.4375,4.9375 5.4375,0.8125 -2.8125,2.75 -10.125,0 -2.84375,-2.75 5.46875,-0.8125 2.4375,-4.9375 z m -333.59375,3 2.4375,4.9375 3.75,0.5625 -12.375,0 3.75,-0.5625 2.4375,-4.9375 z m 79.40625,0 2.4375,4.9375 3.75,0.5625 -12.375,0 3.75,-0.5625 2.4375,-4.9375 z m 127.125,0 2.4375,4.9375 3.75,0.5625 -12.375,0 3.75,-0.5625 2.4375,-4.9375 z m 79.40625,0 2.4375,4.9375 3.75,0.5625 -12.375,0 3.75,-0.5625 2.4375,-4.9375 z m -317.71875,3 1.21875,2.5 -2.4375,0 1.21875,-2.5 z m 79.4375,0 1.21875,2.5 -2.4375,0 1.21875,-2.5 z m 79.40625,0 1.21875,2.5 -2.4375,0 1.21875,-2.5 z m 31.8125,0 1.21875,2.5 -2.4375,0 1.21875,-2.5 z m 79.40625,0 1.21875,2.5 -2.4375,0 1.21875,-2.5 z m 79.4375,0 1.21875,2.5 -2.4375,0 1.21875,-2.5 z m -394.75,12.5 440,0 0,254.0625 -440,0 0,-254.0625 z m 339.125,44.71875 0,18.75 15.15625,0 0,-18.75 -15.15625,0 z m 73.71875,0 0,47.625 c -1.7271,-3.9854 -4.38184,-7.22576 -7.96875,-9.75 -3.58698,-2.52405 -7.69403,-3.78114 -12.34375,-3.78125 -14.34781,1.1e-4 -21.53126,9.30735 -21.53125,27.90625 l 0,51.8125 c -10e-6,18.599 7.18344,27.875 21.53125,27.875 4.91542,0 9.16302,-1.31175 12.75,-3.96875 3.71976,-2.78984 6.4604,-6.39719 8.1875,-10.78125 0.26565,5.44686 0.9059,9.6398 1.96875,12.5625 l 14.5625,0 c -1.32857,-6.6425 -2.00007,-17.87834 -2,-33.6875 l 0,-105.8125 -15.15625,0 z m -116.0625,14.15625 0,22.125 -8.96875,0 0,13.15625 8.96875,0 0,70.75 c -2e-5,7.43961 1.48353,12.74911 4.40625,15.9375 3.05553,3.05555 8.02928,4.5625 14.9375,4.5625 4.38401,0 8.15531,-0.3904 11.34375,-1.1875 l 0,-12.75 c -1.99279,0.53141 -4.64754,0.81251 -7.96875,0.8125 -2.78988,10e-6 -4.77313,-0.67149 -5.96875,-2 -1.19567,-1.46133 -1.78128,-3.78034 -1.78125,-6.96875 l 0,-69.15625 15.71875,0 0,-13.15625 -15.71875,0 0,-22.125 -14.96875,0 z M 67.5,239.6875 c -18.333312,1.1e-4 -27.500006,9.30735 -27.5,27.90625 l 0,0.375 c -6e-6,6.64257 1.311743,12.23317 3.96875,16.75 2.789836,4.51696 6.116084,7.89785 9.96875,10.15625 3.852625,2.25849 7.709823,4.38229 11.5625,6.375 3.852613,1.85994 7.124212,4.17894 9.78125,6.96875 2.789805,2.65703 4.156204,5.98328 4.15625,9.96875 l 0,1.8125 c -4.6e-5,5.04832 -0.976045,8.81962 -2.96875,11.34375 -1.859941,2.39132 -5.131539,3.59376 -9.78125,3.59375 -8.502423,10e-6 -12.75002,-5.30949 -12.75,-15.9375 l 0,-7.96875 -13.9375,0 0,6.5625 c -6e-6,19.79466 9.080787,29.6875 27.28125,29.6875 18.200394,0 27.312439,-9.41655 27.3125,-28.28125 l 0,-0.40625 c -6.1e-5,-6.50962 -1.39771,-12.01431 -4.1875,-16.53125 -2.657053,-4.51685 -5.897402,-7.98365 -9.75,-10.375 -3.852692,-2.39125 -7.70989,-4.51504 -11.5625,-6.375 -3.852681,-1.99269 -7.178929,-4.36634 -9.96875,-7.15625 -2.657022,-2.78978 -4.000022,-6.20193 -4,-10.1875 l 0,-1 c -2.2e-5,-5.04821 0.952578,-8.76486 2.8125,-11.15625 1.992724,-2.52405 5.318972,-3.78116 9.96875,-3.78125 4.649711,9e-5 7.890058,1.34309 9.75,4 1.992703,2.65708 2.999953,6.62358 3,11.9375 l 0,6.375 14.125,0 0,-4.96875 C 94.781189,249.58045 85.700395,239.68761 67.5,239.6875 z m 78.28125,0 c -5.18119,1.1e-4 -9.67864,1.5383 -13.53125,4.59375 -3.71983,2.92279 -6.31993,6.69409 -7.78125,11.34375 l 0,-13.75 -14.15625,0 0,128.34375 15.15625,0 0,-36.28125 c 1.72702,3.98551 4.38177,7.25711 7.96875,9.78125 3.58691,2.3913 7.69396,3.5625 12.34375,3.5625 14.34774,0 21.53119,-9.276 21.53125,-27.875 l 0,-51.8125 c -6e-5,-18.5989 -7.18351,-27.90614 -21.53125,-27.90625 z m 64.59375,0 c -18.99756,1.1e-4 -28.50001,10.22869 -28.5,30.6875 l 0,46.21875 c -1e-5,20.4589 9.50244,30.6875 28.5,30.6875 18.86464,0 28.31244,-10.2286 28.3125,-30.6875 l 0,-46.21875 c -6e-5,-20.45881 -9.44786,-30.68739 -28.3125,-30.6875 z m 80.1875,0 c -5.18118,1.1e-4 -9.62398,1.45241 -13.34375,4.375 -3.58697,2.9228 -6.13242,6.72535 -7.59375,11.375 l 0,-13.5625 -14.125,0 0,103.21875 15.125,0 0,-74.9375 c -3e-5,-4.78252 1.34297,-8.80367 4,-12.125 2.78982,-3.45401 6.22536,-5.18741 10.34375,-5.1875 3.98545,9e-5 6.86665,1.11664 8.59375,3.375 1.85985,2.25854 2.7812,6.31093 2.78125,12.15625 l 0,25.125 14.15625,0 0,-26.3125 c -6e-5,-10.09651 -1.73346,-17.19406 -5.1875,-21.3125 -3.3213,-4.11825 -8.2404,-6.18739 -14.75,-6.1875 z m 78.5625,2.1875 0,103.21875 15.15625,0 0,-103.21875 -15.15625,0 z m -228.90625,10.96875 c 4.1183,9e-5 7.10881,1.11664 8.96875,3.375 1.9927,2.25854 2.9687,6.31093 2.96875,12.15625 l 0,50.21875 c -5e-5,5.84542 -0.97605,9.89782 -2.96875,12.15625 -1.85994,2.25846 -4.85045,3.37502 -8.96875,3.375 -4.11839,2e-5 -7.63983,-1.64749 -10.5625,-4.96875 -2.78988,-3.45408 -4.18752,-7.56113 -4.1875,-12.34375 l 0,-46.65625 c -2e-5,-4.78252 1.39762,-8.80367 4.1875,-12.125 2.92267,-3.45401 6.44411,-5.18741 10.5625,-5.1875 z m 70.15625,0 c 8.76805,9e-5 13.1562,5.22369 13.15625,15.71875 l 0,49.84375 c -5e-5,10.49517 -4.3882,15.71877 -13.15625,15.71875 -8.90098,2e-5 -13.34377,-5.22358 -13.34375,-15.71875 l 0,-49.84375 c -2e-5,-10.49506 4.44277,-15.71866 13.34375,-15.71875 z m 217.75,0 c 4.11831,9e-5 7.55386,1.73349 10.34375,5.1875 2.92265,3.32133 4.37495,7.34248 4.375,12.125 l 0,46.65625 c -5e-5,4.78262 -1.45235,8.88967 -4.375,12.34375 -2.78989,3.32126 -6.22544,4.96877 -10.34375,4.96875 -4.11838,2e-5 -7.19478,-1.11654 -9.1875,-3.375 -1.85993,-2.25843 -2.78128,-6.31083 -2.78125,-12.15625 l 0,-50.21875 c -3e-5,-5.84532 0.92132,-9.89771 2.78125,-12.15625 1.99272,-2.25836 5.06912,-3.37491 9.1875,-3.375 z M 48.1875,425.4375 l 6.8125,0 0,3.9375 -6.8125,-3.9375 z m 16.8125,0 10,0 0,15.46875 -10,-5.75 0,-9.71875 z m 20,0 10,0 0,27.03125 -10,-5.78125 0,-21.25 z m 20,0 10,0 0,38.5625 -10,-5.78125 0,-32.78125 z m 20,0 10,0 0,50.125 -10,-5.78125 0,-44.34375 z m 20,0 10,0 0,61.65625 -10,-5.78125 0,-55.875 z m 20,0 10,0 0,73.21875 -10,-5.78125 0,-67.4375 z m 20,0 10,0 0,84.75 -10,-5.78125 0,-78.96875 z m 20,0 10,0 0,96.28125 -10,-5.75 0,-90.53125 z m 20,0 10,0 0,107.84375 -10,-5.78125 0,-102.0625 z m 20,0 10,0 0,113.625 -5,2.875 -5,-2.875 0,-113.625 z m 20,0 10,0 0,102.0625 -10,5.78125 0,-107.84375 z m 20,0 10,0 0,90.53125 -10,5.75 0,-96.28125 z m 20,0 10,0 0,78.96875 -10,5.78125 0,-84.75 z m 20,0 10,0 0,67.4375 -10,5.78125 0,-73.21875 z m 20,0 10,0 0,55.875 -10,5.78125 0,-61.65625 z m 20,0 10,0 0,44.34375 -10,5.78125 0,-50.125 z m 20,0 10,0 0,32.78125 -10,5.78125 0,-38.5625 z m 20,0 10,0 0,21.25 -10,5.78125 0,-27.03125 z m 20,0 10,0 0,9.71875 -10,5.75 0,-15.46875 z m 20,0 6.8125,0 -6.8125,3.9375 0,-3.9375 z"
       transform="translate(-35.277733,129.85261)"
       id="path2985"
       style="font-size:medium;font-style:normal;font-variant:normal;font-weight:normal;font-stretch:normal;text-indent:0;text-align:start;text-decoration:none;line-height:normal;letter-spacing:normal;word-spacing:normal;text-transform:none;direction:ltr;block-progression:tb;writing-mode:lr-tb;text-anchor:start;baseline-shift:baseline;color:#000000;fill:#D0C6B1;fill-opacity:1;stroke:none;stroke-width:10.7841568;marker:none;visibility:visible;display:inline;overflow:visible;enable-background:accumulate;font-family:Sans;-inkscape-font-specification:Sans" />
  </g>
</svg>
