<?xml version="1.0" encoding="UTF-8" standalone="no"?>
<!-- Created with Inkscape (http://www.inkscape.org/) -->

<svg
   xmlns:dc="http://purl.org/dc/elements/1.1/"
   xmlns:cc="http://creativecommons.org/ns#"
   xmlns:rdf="http://www.w3.org/1999/02/22-rdf-syntax-ns#"
   xmlns:svg="http://www.w3.org/2000/svg"
   xmlns="http://www.w3.org/2000/svg"
   xmlns:sodipodi="http://sodipodi.sourceforge.net/DTD/sodipodi-0.dtd"
   xmlns:inkscape="http://www.inkscape.org/namespaces/inkscape"
   width="212.25"
   height="289.73267"
   id="svg2"
   version="1.1"
   inkscape:version="0.48.2 r9819"
   sodipodi:docname="perfect-game.svg"
   inkscape:export-filename="/Users/pmn/code/personal/id-me/public/images/perfect-game.png"
   inkscape:export-xdpi="155.3156"
   inkscape:export-ydpi="155.3156">
  <defs
     id="defs4" />
  <sodipodi:namedview
     id="base"
     pagecolor="#ffffff"
     bordercolor="#666666"
     borderopacity="1.0"
     inkscape:pageopacity="0.0"
     inkscape:pageshadow="2"
     inkscape:zoom="1"
     inkscape:cx="-62.576462"
     inkscape:cy="125.85682"
     inkscape:document-units="px"
     inkscape:current-layer="layer1"
     showgrid="false"
     fit-margin-top="0"
     fit-margin-left="0"
     fit-margin-right="0"
     fit-margin-bottom="0"
     inkscape:window-width="1280"
     inkscape:window-height="752"
     inkscape:window-x="0"
     inkscape:window-y="0"
     inkscape:window-maximized="1" />
  <metadata
     id="metadata7">
    <rdf:RDF>
      <cc:Work
         rdf:about="">
        <dc:format>image/svg+xml</dc:format>
        <dc:type
           rdf:resource="http://purl.org/dc/dcmitype/StillImage" />
        <dc:title></dc:title>
      </cc:Work>
    </rdf:RDF>
  </metadata>
  <g
     inkscape:label="Layer 1"
     inkscape:groupmode="layer"
     id="layer1"
     transform="translate(-1069.7813,-122.21875)">
    <path
       style="fill:#ffffff;fill-opacity:1"
       d="M 6.6875 0 L 6.90625 0.65625 L 7.59375 2.90625 C 7.81645 3.62207 8.51965 5.22911 9.53125 7.40625 C 10.54285 9.58339 11.8468 12.28823 13.1875 14.96875 L 18 24.5625 L 18 66.0625 C 18 78.54774 17.92 89.10231 17.75 96.6875 C 17.665 100.48009 17.5553 103.52879 17.4375 105.6875 C 17.3785 106.76685 17.3149 107.63793 17.25 108.25 C 17.218 108.55603 17.18825 108.79546 17.15625 108.96875 C 17.12525 109.14204 17.06775 109.26716 17.09375 109.21875 C 17.02875 109.34101 16.698 109.75247 16.1875 110.25 C 15.6769 110.74753 14.96565 111.34822 14.15625 112.03125 C 12.53745 113.39732 10.448 115.04249 8.25 116.625 C 6.0392 118.21681 4.0227 119.70498 2.5625 120.8125 C 1.8323 121.36626 1.2279 121.81953 0.8125 122.15625 C 0.6047 122.32461 0.46405 122.48468 0.34375 122.59375 C 0.28375 122.64825 0.2342 122.66745 0.1875 122.71875 C 0.1645 122.74435 0.12275 122.7695 0.09375 122.8125 C 0.06475 122.8555 0 122.8981 0 123.125 C 0.0001 123.33545 0.06375 123.3929 0.09375 123.4375 C 0.12375 123.4821 0.1635 123.50605 0.1875 123.53125 C 0.2345 123.58175 0.2555 123.60625 0.3125 123.65625 C 0.4264 123.75615 0.58815 123.88205 0.78125 124.03125 C 1.16745 124.32966 1.72985 124.7342 2.40625 125.21875 C 3.75915 126.18786 5.60895 127.4935 7.65625 128.875 C 9.68795 130.246 11.72545 131.72706 13.34375 133.03125 C 14.96205 134.33544 16.19225 135.51602 16.53125 136 C 17.08655 136.79284 17.49775 138.64331 17.71875 144.78125 C 17.93975 150.91919 18 161.31606 18 179.25 L 18 220.4375 L 13.0625 231.5 C 11.6859 234.5749 10.4087 237.44678 9.5 239.625 C 9.0457 240.71411 8.6945 241.63931 8.4375 242.3125 C 8.3089 242.6491 8.1961 242.9099 8.125 243.125 C 8.09 243.23255 8.05325 243.32406 8.03125 243.40625 C 8.00925 243.48845 8 243.55514 8 243.6875 C 8 243.84208 8.064 243.96233 8.125 244.03125 C 8.186 244.10015 8.23785 244.13175 8.28125 244.15625 C 8.36825 244.20525 8.4305 244.2304 8.5 244.25 C 8.6392 244.2893 8.7992 244.31565 9 244.34375 C 9.4018 244.40005 9.99395 244.45073 10.71875 244.5 C 12.16835 244.5985 14.2437 244.67581 16.8125 244.75 C 21.95 244.89837 29.0247 245 36.8125 245 L 64.6875 245 L 65.65625 252.84375 C 67.99195 271.6957 78.3666 283.34431 97.375 288.40625 L 97.4375 288.40625 C 102.1326 289.6417 111.78815 289.84243 151.78125 289.6875 L 200.5625 289.5 L 201.0625 289.5 L 201.0625 289 L 201.03125 231.9375 L 200.96875 175.03125 L 206.40625 163.90625 L 211.90625 152.71875 L 212.25 152 L 211.4375 152 L 163.96875 152 L 117 152 L 117 149.15625 L 117 146.25 L 124 145.71875 C 134.3989 144.93228 142.7937 141.05272 148.75 134.46875 C 154.7064 127.88478 158.2104 118.64037 158.9375 107.15625 L 159.46875 98.46875 L 166.03125 98.25 L 172.78125 97.96875 L 182.84375 109.5625 C 188.45995 116.03465 195.5294 124.03336 198.5625 127.34375 L 204.03125 133.34375 L 204.90625 134.28125 L 204.90625 133 L 204.96875 81.125 L 205 29.28125 L 205 28.34375 L 204.21875 28.84375 L 201.46875 30.625 C 199.92795 31.62461 194.321 35.49155 188.9375 39.25 L 179.28125 46 L 168.96875 46 L 159 46 L 158.96875 41.75 C 158.89275 27.01331 150.5664 12.08748 138.75 5.65625 C 133.6587 2.8852 130.828 1.45608 121.5625 0.75 C 112.2969 0.04392 96.5295 0.00645 65.1875 0 L 7.375 0 L 6.6875 0 z M 8.0625 1 L 65.1875 1 C 96.5293 1.006 112.3198 1.0192 121.5 1.71875 C 130.6803 2.41832 133.19465 3.76281 138.28125 6.53125 C 149.69805 12.74504 157.89485 27.38917 157.96875 41.75 L 158 46.5 L 158 47 L 158.5 47 L 168.96875 47 L 179.4375 47 L 179.59375 47 L 179.71875 46.90625 L 189.5 40.09375 C 194.8795 36.33822 200.54705 32.43168 202.03125 31.46875 L 204 30.1875 L 203.96875 81.125 L 203.90625 131.71875 L 199.28125 126.65625 C 196.26725 123.36664 189.20495 115.3726 183.59375 108.90625 L 173.375 97.15625 L 173.21875 96.96875 L 173 96.96875 L 166 97.25 L 159 97.5 L 158.53125 97.53125 L 158.5 97.96875 L 157.9375 107.09375 C 157.221 118.40968 153.7745 127.42963 148 133.8125 C 142.2256 140.19537 134.09945 143.94784 123.90625 144.71875 L 116.46875 145.28125 L 116 145.3125 L 116 145.78125 L 116 149.15625 L 116 152.5 L 116 153 L 116.5 153 L 163.96875 153 L 210.65625 153 L 205.5 163.46875 L 200.03125 174.625 L 199.96875 174.75 L 199.96875 174.875 L 200.03125 231.9375 L 200.0625 288.5 L 151.78125 288.6875 C 111.66615 288.8429 101.9924 288.6005 97.625 287.4375 L 97.59375 287.40625 L 97.53125 287.40625 C 78.86415 282.40496 68.9188 271.23228 66.625 252.71875 L 65.625 244.4375 L 65.5625 244 L 65.125 244 L 36.8125 244 C 29.0325 244 21.96675 243.89795 16.84375 243.75 C 14.28225 243.676 12.20635 243.59688 10.78125 243.5 C 10.06865 243.4516 9.51185 243.3936 9.15625 243.34375 C 9.14225 243.34175 9.139 243.34575 9.125 243.34375 C 9.187 243.1605 9.2646 242.94549 9.375 242.65625 C 9.6258 241.99966 9.9855 241.1147 10.4375 240.03125 C 11.3413 237.86434 12.59525 234.97436 13.96875 231.90625 L 18.96875 220.71875 L 19 220.625 L 19 220.53125 L 19 179.25 C 19 161.31415 18.94095 150.89158 18.71875 144.71875 C 18.49655 138.54592 18.14975 136.55695 17.34375 135.40625 C 16.82085 134.65972 15.61295 133.57502 13.96875 132.25 C 12.32455 130.92498 10.27515 129.41888 8.21875 128.03125 C 6.17785 126.65411 4.31035 125.36727 2.96875 124.40625 C 2.29795 123.92574 1.77495 123.53482 1.40625 123.25 C 1.33025 123.1911 1.3103 123.14232 1.25 123.09375 C 1.317 123.03745 1.3527 123.00615 1.4375 122.9375 C 1.8375 122.61326 2.43105 122.17503 3.15625 121.625 C 4.60665 120.52494 6.6073 119.02528 8.8125 117.4375 C 11.0306 115.84041 13.1687 114.19962 14.8125 112.8125 C 15.6343 112.11894 16.3381 111.492 16.875 110.96875 C 17.412 110.4455 17.76725 110.06406 17.96875 109.6875 C 18.06775 109.50291 18.0866 109.36874 18.125 109.15625 C 18.164 108.94376 18.216 108.6647 18.25 108.34375 C 18.318 107.70185 18.378 106.83904 18.4375 105.75 C 18.5563 103.57192 18.6651 100.51747 18.75 96.71875 C 18.92 89.1213 19 78.55291 19 66.0625 L 19 24.46875 L 19 24.34375 L 18.9375 24.25 L 14.09375 14.5 C 12.75735 11.82801 11.444 9.16627 10.4375 7 C 9.4309 4.83373 8.7248 3.11543 8.5625 2.59375 L 8.0625 1 z M 35.25 4.65625 C 20.9562 4.73075 14.5 4.99989 14.5 5.46875 C 14.5 6.05692 16.3001 10.12442 18.5 14.5 L 22.5 22.46875 L 22.5 66.90625 L 22.5 111.375 L 18.25 114.90625 C 15.9127 116.85829 12.69625 119.51457 11.09375 120.8125 L 8.1875 123.1875 L 13.0625 126.53125 C 15.7479 128.37886 18.9502 131.0342 20.1875 132.4375 L 22.4375 135 L 22.46875 178.6875 L 22.5 222.375 L 19 230.0625 C 17.075 234.28664 15.5 238.14367 15.5 238.625 C 15.5 239.10634 27.814 239.5 42.875 239.5 L 70.28125 239.5 L 70.71875 249.25 C 71.04155 256.52592 71.7275 260.32799 73.4375 264.21875 C 77.7291 273.98424 89.4695 282.3456 101.8125 284.40625 C 104.6615 284.8819 127.1376 285.3107 151.75 285.375 L 196.5 285.5 L 196.5 229.21875 L 196.5 172.9375 L 200.46875 165.21875 L 204.40625 157.5 L 166.21875 157.5625 L 128 157.59375 L 140.25 169.40625 L 152.5 181.21875 L 152.5 211.375 L 152.5 241.5 L 133.0625 241.5 C 121.2472 241.5 113.3738 241.10465 113 240.5 C 112.6619 239.95281 112.42345 226.17585 112.46875 209.875 C 112.56275 175.95281 112.12885 177.7457 121.96875 170.96875 C 125.01385 168.87152 127.5 166.86456 127.5 166.5 C 127.5 166.13543 125.1605 164.73776 122.3125 163.40625 C 112.9187 159.01459 112.5 158.41271 112.5 149.5625 L 112.5 141.8125 L 121.0625 141.1875 C 139.1654 139.90996 149.4983 131.40264 153 114.875 C 153.7999 111.10003 154.4905 104.7375 154.5 100.75 L 154.5 93.5 L 164.8125 93.5 L 175.15625 93.5 L 187.4375 107.5 C 194.1943 115.2 199.9089 121.5 200.125 121.5 C 200.3412 121.5 200.5 102.825 200.5 80 C 200.5 53.31677 200.16695 38.5 199.53125 38.5 C 198.98745 38.5 194.73705 41.2 190.09375 44.5 L 181.65625 50.5 L 168.21875 50.5 L 154.8125 50.5 L 154.1875 42.59375 C 153.1179 28.72526 148.2537 18.46337 139.625 11.875 C 130.7006 5.06072 131.1171 5.11456 69.75 4.75 C 55.2144 4.6637 43.8264 4.61148 35.25 4.65625 z M 25.4375 12.4375 L 76.21875 12.71875 C 126.42025 13.00039 127.0446 13.03606 131.125 15.21875 C 136.8542 18.28325 142.86045 25.42171 144.84375 31.5625 C 146.02115 35.20801 146.5001 40.26035 146.5 48.71875 C 146.5 58.30555 147.0203 62.74798 149.3125 66.28125 L 152.25 68.9375 C 155.1735 71.57946 155.8964 72.44298 155.25 72.5 C 156.1182 73.49451 155.78515 73.82896 154.53125 74.5 C 154.52125 74.504 154.507 74.496 154.5 74.5 C 154.5 74.504 154.5001 74.52345 154.5 74.53125 C 154.5 74.62825 154.2003 75.01645 153.625 75.75 C 152.6452 76.99931 151.94845 77.62015 151.65625 77.5 C 151.00415 78.36472 150.35095 79.31199 149.78125 80.28125 C 147.14275 84.76975 146.9743 85.79638 146.5 100.5 C 146.0547 114.30628 145.8904 115.98883 143.3125 120.65625 C 140.7345 125.32367 138.31315 127.9149 134.96875 130 C 130.68385 132.67136 129.15345 133.03518 120.84375 133.34375 L 114.84375 133.5625 L 110.9375 133.1875 C 110.663 132.47225 110.56455 125.88347 110.71875 118.53125 C 110.92545 108.67862 111.34155 105.09559 112.28125 104.90625 C 112.98255 104.76497 113.09505 104.87665 112.53125 105.15625 C 112.38385 105.22935 112.245 105.62295 112.125 106.25 C 112.4183 105.46898 112.83205 105.20209 113.46875 105 C 114.55445 104.65543 116.35445 103.22917 117.46875 101.8125 C 118.05095 101.07234 118.48495 100.41072 118.78125 99.25 C 118.77125 99.244 118.78125 99.22575 118.78125 99.21875 C 118.64415 99.02116 118.56755 98.54238 118.59375 97.90625 C 118.63675 96.87356 118.82855 96.62488 119.09375 97.125 C 119.44125 93.98344 119.503 88.47891 119.5 77.125 C 119.5 67.37704 119.38235 60.89744 118.96875 56.3125 C 118.71745 56.359 118.55715 55.7957 118.59375 54.90625 C 118.61175 54.4577 118.65075 54.19855 118.71875 54.03125 C 118.24035 50.45904 117.46895 48.26743 116.28125 46.5 C 116.24225 46.506 116.20525 46.5 116.15625 46.5 C 115.96645 46.5 114.95395 45.4875 113.90625 44.25 L 112 42 L 113.03125 42.875 L 111.65625 41.5 L 84.59375 41.5 L 57.5 41.5 L 57.5 73.5 L 57.5 105.5 L 71 105 L 71.28125 119.75 L 71.5625 134.5 L 64.28125 134.3125 L 57.5 134.09375 L 57.5 179.03125 C 57.5 217.24202 57.7412 225.1435 59 228.15625 C 59.8251 230.13076 60.5 231.91717 60.5 232.125 C 60.5 232.1987 59.2843 232.25419 57.625 232.3125 C 59.7149 232.43652 60.94545 232.58544 60.84375 232.75 C 60.58885 233.1625 52.53 233.5 42.9375 233.5 C 33.345 233.5 25.5 233.1625 25.5 232.75 C 25.5 232.56724 27.2568 232.41174 29.875 232.28125 C 27.9109 232.19445 26.5 232.08257 26.5 231.96875 C 26.5 231.67609 27.175 229.81825 28 227.84375 C 29.2592 224.83 29.5 216.90704 29.5 178.46875 L 29.5 132.6875 L 25.4375 127.53125 L 25.15625 127.1875 C 25.42795 127.8186 24.4884 127.1164 22.5 125 C 21.2103 123.62717 20.36245 122.32968 20.59375 122.125 C 20.73725 121.99802 21.28145 122.43845 21.96875 123.125 L 21.375 122.375 L 25.4375 117.96875 L 29.5 113.53125 L 29.5 66.96875 C 29.5 22.08954 29.43295 20.28819 27.46875 16.4375 L 25.4375 12.4375 z M 64.5 48.5 L 86.25 48.53125 C 107.7358 48.54635 116.4826 49.6145 104.875 50.8125 C 97.0732 51.61773 85.7223 57.28892 80.9375 62.78125 C 78.9143 65.10339 75.844 69.925 74.125 73.5 C 71.4603 79.04181 70.95195 81.36358 70.65625 89.25 C 70.32605 98.05639 70.192 98.5 68.0625 98.5 C 66.8322 98.5 65.52285 98.21042 65.15625 97.84375 C 64.78955 97.47705 64.5 86.22709 64.5 72.84375 L 64.5 48.5 z M 193.03125 51 L 193.28125 76.75 C 193.40995 91.03102 193.1118 102.5 192.625 102.5 C 192.1424 102.5 191.1299 101.7125 190.375 100.75 C 189.1341 99.16779 189.1836 99.11594 190.75 100.34375 C 190.8929 100.45568 191.0043 100.56725 191.125 100.625 C 190.2985 99.74505 188.9997 98.25063 187.4375 96.40625 C 187.2215 96.71195 186.41675 96.03406 184.90625 94.25 L 183 92 L 185.25 93.90625 C 185.4222 94.05196 185.5262 94.17027 185.6875 94.3125 C 185.5985 94.20482 185.5274 94.10877 185.4375 94 L 179.25 86.5 L 166.875 86.5 C 160.0741 86.5 154.5 86.22259 154.5 85.875 C 154.5 84.26915 158.6766 78.75985 161.4375 76.71875 C 163.1225 75.47289 164.5 74.00053 164.5 73.46875 C 164.5 72.93697 162.25 70.33814 159.5 67.6875 C 155.9392 64.25528 154.5 62.09886 154.5 60.1875 L 154.5 57.5 L 169.34375 57.5 L 184.21875 57.5 L 188.34375 54.5 L 192.5 51.5 L 192.5 76.5 C 192.5 85.03597 192.4259 92.23288 192.3125 96.75 C 192.531 93.33783 192.6272 87.26101 192.75 76.34375 L 193.03125 51 z M 69 52 L 69 52.5 L 69 62.25 L 69.03125 72 L 69.03125 73.875 L 69.96875 72.25 L 72.84375 67.21875 C 74.38345 64.53455 77.73835 60.34882 80.21875 58.0625 L 81.21875 57.15625 L 81.15625 57.15625 C 82.00605 56.35202 82.8973 55.52453 83.5 54.90625 C 83.9224 54.47304 84.28485 54.09991 84.53125 53.8125 C 84.65445 53.66879 84.7346 53.5486 84.8125 53.4375 C 84.8515 53.3819 84.9055 53.3436 84.9375 53.28125 C 84.9695 53.21885 85 53.14917 85 52.96875 C 85 52.6856 84.80825 52.55586 84.71875 52.5 C 84.62875 52.4441 84.5732 52.42885 84.5 52.40625 C 84.3538 52.36085 84.2037 52.3431 84 52.3125 C 83.5928 52.2512 83.03145 52.20021 82.34375 52.15625 C 80.96835 52.06835 79.0713 52 77 52 L 69.5 52 L 69 52 z M 70 53 L 77 53 C 79.0538 53 80.93795 53.0391 82.28125 53.125 C 82.88505 53.1636 83.3351 53.2024 83.6875 53.25 C 83.4664 53.5043 83.16885 53.82119 82.78125 54.21875 C 81.95445 55.06682 80.8248 56.18013 79.5625 57.34375 L 78.5625 58.25 L 78.75 58.25 C 76.299 60.6914 73.43575 64.16137 71.96875 66.71875 L 70.03125 70.125 L 70 62.25 L 70 53 z M 111.5 57.75 L 111.5 71.53125 L 111.5 79.375 C 111.6364 83.96239 111.1734 87.18504 110.25 87.53125 C 109.2454 88.0181 108.72935 88.2296 108.65625 88.1875 L 108 88.8125 L 104.5 92.3125 L 104.5 123.9375 C 104.5 158.74982 104.6698 159.93803 110.5 164.84375 L 113.5 167.375 C 113.7944 166.96011 114.1113 166.76764 114.3125 166.96875 C 114.6204 167.27664 114.3126 168.10291 113.625 168.78125 C 112.7056 169.69385 112.54895 169.59688 112.96875 168.4375 L 110.6875 170.8125 C 110.1542 171.3635 109.6956 171.87184 109.25 172.375 C 110.8361 171.13113 110.8689 171.16394 109.625 172.75 C 108.6044 174.05137 107.8932 174.65748 107.625 174.46875 C 104.6793 179.00537 104.5001 185.29138 104.5 209.90625 C 104.5 239.31157 104.8309 242.0663 108.75 246.25 C 110.824 248.46391 111.2521 248.5 135.1875 248.5 L 159.5 248.5 L 159.5 213.28125 L 159.5 181.9375 L 159.25 213.03125 L 158.96875 248 L 158.75 212.96875 L 158.5 177.9375 L 152 171.5 C 148.425 167.95678 145.5 164.70964 145.5 164.28125 C 145.5 163.85286 156.1876 163.59189 169.25 163.71875 L 193 163.96875 L 169.5625 164.25 L 148.6875 164.5 L 169.21875 164.5 L 192.40625 164.5 L 190.96875 167.96875 C 189.76525 170.8491 189.5 180.42134 189.5 224.46875 L 189.5 277.5 L 145.75 277.40625 C 104.2022 277.33125 101.7096 277.24693 96.0625 275.28125 C 91.9129 273.83684 88.6747 271.76833 85.375 268.46875 C 77.7175 260.8112 77.5001 259.35338 77.5 216.28125 C 77.5 181.57017 77.38845 179.20293 75.53125 175.5625 C 75.19375 174.90096 74.75035 174.19585 74.28125 173.5 C 74.24825 173.505 74.2285 173.5 74.1875 173.5 C 74.0083 173.5 72.7708 172.2625 71.4375 170.75 L 69.28125 168.34375 L 68.59375 167.78125 C 68.10585 168.19965 67.734 168.5 67.625 168.5 C 67.35 168.5 68.6342 166.925 70.5 165 C 72.1326 163.31563 73.67375 161.89028 74.21875 161.5625 C 74.74475 160.77831 75.23255 159.98563 75.59375 159.28125 C 77.35865 155.83987 77.5 152.99289 77.5 120.0625 C 77.5 86.15273 77.59695 84.31627 79.65625 78.8125 C 83.87845 67.52786 95.48015 58.60639 106.71875 58 L 111.5 57.75 z M 149.5 66.53125 C 150.3658 67.79963 151.4674 68.99429 152.875 70.25 C 152.5488 69.90255 152.2901 69.64027 151.9375 69.25 L 149.5 66.53125 z M 64.5 141.5 L 67.5 141.5 L 70.5 141.5 L 70.5 147.625 C 70.5 153.63638 67.8113 160.5 65.4375 160.5 C 64.9322 160.5 64.5 156.225 64.5 151 L 64.5 141.5 z M 133 167.8125 L 132.65625 168.0625 L 126.1875 172.71875 C 123.531 174.62422 121.57325 175.89061 120.09375 177.25 C 118.61425 178.60939 117.62675 180.08731 117.03125 182.28125 C 115.84035 186.66913 116.04395 193.88763 116.03125 209.75 L 116 237.5 L 116 238 L 116.5 238 L 132 238 L 147.5 238 L 148 238 L 148 237.5 L 148 210.21875 L 148 209.71875 L 148 182.9375 L 148 182.75 L 147.84375 182.59375 L 140.5625 175.375 L 133.28125 168.125 L 133 167.8125 z M 70 168.875 L 71.75 170.4375 C 71.9243 170.59114 72.0308 170.67204 72.1875 170.8125 C 71.7899 170.38223 71.4046 169.98789 71.0625 169.71875 L 70 168.875 z M 132.875 169.125 L 139.875 176.0625 L 147 183.15625 L 147 210.21875 L 147 210.71875 L 147 237 L 132 237 L 117 237 L 117.03125 209.75 C 117.04425 193.87983 116.8916 186.61544 118 182.53125 C 118.5543 180.48916 119.3695 179.23719 120.75 177.96875 C 122.1306 176.70031 124.075 175.45003 126.75 173.53125 L 132.875 169.125 z M 66.03125 174.78125 C 66.65565 174.80225 67.5218 176.08454 68.75 178.1875 C 70.3526 180.93153 70.52165 183.91122 70.28125 208.625 L 70 236 L 67.25 228.96875 C 64.5236 222.0077 64.5 221.76433 64.5 198.15625 C 64.5 180.87064 64.65755 174.735 66.03125 174.78125 z M 105.09375 191.34375 C 105.09375 191.33195 105.123 191.34875 105.125 191.34375 C 105.162 191.57601 105.208 192.66787 105.25 194.6875 C 105.4179 202.76601 105.4175 216.26601 105.25 224.6875 C 105.0826 233.109 104.9379 226.5 104.9375 210 C 104.9371 198.65625 104.99855 191.86189 105.09375 191.34375 z M 82 266 L 84.25 267.90625 C 86.3645 269.69647 86.95645 270.5 86.15625 270.5 C 85.96645 270.5 84.95395 269.4875 83.90625 268.25 L 82 266 z M 147.46875 277.625 C 155.26255 277.62508 162.9873 277.6701 168.8125 277.75 C 171.725 277.79 173.30785 277.8403 173.65625 277.875 C 172.83435 277.9645 163.1464 278.03141 147 278.03125 C 131.1405 278.0311 121.6763 277.96195 120.75 277.875 C 121.1744 277.8403 122.8125 277.7899 125.8125 277.75 C 131.8123 277.6702 139.67495 277.62492 147.46875 277.625 z "
       transform="translate(1069.7813,122.21875)"
       id="path3006" />
  </g>
</svg>
