<?xml version="1.0" encoding="UTF-8" standalone="no"?>
<!-- Created with Inkscape (http://www.inkscape.org/) -->

<svg
   xmlns:dc="http://purl.org/dc/elements/1.1/"
   xmlns:cc="http://creativecommons.org/ns#"
   xmlns:rdf="http://www.w3.org/1999/02/22-rdf-syntax-ns#"
   xmlns:svg="http://www.w3.org/2000/svg"
   xmlns="http://www.w3.org/2000/svg"
   version="1.1"
   width="443.625"
   height="443.625"
   id="svg2">
  <defs
     id="defs4" />
  <metadata
     id="metadata7">
    <rdf:RDF>
      <cc:Work
         rdf:about="">
        <dc:format>image/svg+xml</dc:format>
        <dc:type
           rdf:resource="http://purl.org/dc/dcmitype/StillImage" />
        <dc:title></dc:title>
      </cc:Work>
    </rdf:RDF>
  </metadata>
  <g
     transform="translate(-396.6429,-2744.8144)"
     id="layer1">
    <path
       d="m 221.8125,0.875 -8.25,3.75 L 11.75,95.9375 0,101.25 0,114.15625 0,329.5 l 0,12.90625 11.75,5.3125 201.8125,91.3125 8.25,3.75 8.21875,-3.75 201.8125,-91.3125 11.78125,-5.3125 0,-12.90625 0,-215.34375 0,-12.90625 L 431.84375,95.9375 230.03125,4.625 221.8125,0.875 z m 0,11 4.09375,1.84375 201.8125,91.34375 5.90625,2.65625 0,6.4375 0,215.34375 0,6.4375 -5.90625,2.6875 -201.8125,91.3125 -4.09375,1.875 -4.125,-1.875 L 15.875,338.625 10,335.9375 10,329.5 l 0,-215.34375 0,-6.4375 5.875,-2.65625 201.8125,-91.34375 4.125,-1.84375 z m 0,10.96875 -11.0625,5 c 12.24375,1.718656 24.42233,3.836099 36.46875,6.5 l -25.40625,-11.5 z M 195.5,34.75 182.78125,40.5 c 15.14968,2.372147 34.994,6.1724 20.34375,-4.6875 -2.52943,-0.326817 -5.0686,-0.685927 -7.625,-1.0625 z m 28.0625,3.1875 c -11.3243,7.5481 27.51875,12.1635 36.71875,16.5625 25.7458,3.2157 44.8792,22.5355 68.375,31.5 40.5238,13.7817 61.4364,53.5575 79.9375,89.0625 5.2948,11.3887 10.49724,23.01679 15.03125,34.90625 l 0,-23.28125 c -2.96358,-6.91357 -6.37872,-13.61952 -10.5625,-19.96875 -11.507,-24.828 -27.6518,-46.93415 -46.625,-66.53125 -19.3408,-16.2506 -43.8641,-24.5089 -65.625,-37.125 -22.846,-15.9726 -50.8369,-18.908 -77.25,-25.125 z M 167.9375,48.75 c -1.16954,-0.0045 -2.33104,0.02326 -3.5,0.0625 l -6.125,2.75 c 2.83977,1.675854 5.94248,2.893468 9.125,3.71875 29.0347,3.3767 58.39405,4.91415 87.03125,11.71875 25.8368,9.7182 50.5939,23.4625 71.6875,41.375 l 7.15625,0 a 11.268465,11.268465 0 0 1 7.21875,2.5625 C 329.97677,97.387365 318.00318,85.704057 300.5,80.71875 c -23.534,-15.6869 -50.9319,-21.833 -78.25,-27 -18.1857,0.2134 -36.215,-4.89855 -54.3125,-4.96875 z m -11.46875,15.5 c -7.4677,0.066 -14.925,0.67095 -22.3125,2.09375 -1.52176,-0.269374 -4.1688,-0.44769 -7.34375,-0.5 L 106.84375,74.875 c 34.83757,-1.089693 70.17991,-7.495782 104.375,1.9375 20.524,8.558 42.5001,19.00385 61.5625,32.03125 1.0482,0.6427 2.0858,1.31335 3.125,1.96875 a 11.268465,11.268465 0 0 1 6.96875,-2.4375 l 4.8125,0 c -2.5423,-1.6313 -5.17665,-3.1377 -7.96875,-4.5 -21.3636,-11.2102 -43.3388,-20.8748 -64.0625,-33.25 -18.3358,-2.7006 -37.2077,-6.1649 -56,-6.375 -1.0677,-0.012 -2.1207,-0.01 -3.1875,0 z m 74.21875,5.6875 c 11.0096,14.1024 36.5923,14.55935 51.8125,26.15625 6.2694,3.731 12.25345,7.85625 18.03125,12.28125 l 12.65625,0 C 308.271,104.4735 303.1144,100.8195 297.625,97.5625 276.9755,85.4896 254.2724,75.0317 230.6875,69.9375 z m -57.03125,10.15625 c -5.6454,0.077 -11.3087,0.5984 -16.9375,1.625 -29.4444,2.0537 -63.63885,-4.8051 -88.46875,15 14.0765,5.5877 28.32345,-5.4467 42.21875,-7.375 39.778,-1.4124 82.56775,-7.9346 119.09375,12.5 14.1214,5.4496 28.63905,11.1438 41.53125,19.125 l 0.71875,-3.53125 a 11.268465,11.268465 0 0 1 0.34375,-1.25 c -9.2341,-5.8872 -19.0866,-10.78245 -29.5625,-14.34375 -20.2699,-13.8458 -44.4743,-22.084 -68.9375,-21.75 z M 366.25,88.1875 c 2.82306,1.950994 5.71701,3.579853 8.625,4.75 12.5754,19.6116 30.00725,36.00045 40.46875,57.09375 2.83299,5.26384 5.57994,10.58273 8.28125,15.90625 l 0,-15 c -8.93398,-16.39751 -20.57196,-31.70656 -31.09375,-47.21875 -1.87609,-1.99006 -3.73278,-4.046118 -5.59375,-6.15625 L 366.25,88.1875 z m -198,6.3125 c -26.7446,3.0195 -55.4772,-1.55185 -80.375,10.78125 11.0018,9.993 29.4203,-8.78885 42.625,-0.40625 35.4358,-5.8292 73.02005,-3.7899 105.40625,12.9375 10.792,6.1969 21.51995,12.91965 31.78125,20.28125 l 1.71875,-8.625 C 239.17165,110.12165 204.4616,96.041 168.25,94.5 z m -110.6875,2.65625 -20.96875,9.5 c -0.0079,0.30093 0.01022,0.62018 0.03125,0.9375 1.7489,10.8766 12.4786,-1.3101 17,-2.9375 13.588777,-2.87307 10.782698,-6.37224 3.9375,-7.5 z m 348.65625,9.125 c 6.25127,8.97161 12.01085,18.31067 17.40625,27.84375 l 0,-14.59375 c -1.55467,-2.54123 -3.14543,-5.04121 -4.78125,-7.53125 l -12.625,-5.71875 z m -332.03125,1.625 c -4.562,0.1854 -9.55785,2.29415 -10.40625,7.71875 1.5168,4.0349 6.76175,1.8669 9.34375,0.5 14.132,-3.5872 8.95885,-8.12025 1.96875,-8.21875 -0.2989,0 -0.60205,-0.012 -0.90625,0 z m 278.71875,0.28125 c -5.1586,15.5958 24.5576,31.47675 27.0625,51.03125 10.4131,21.242 26.6974,39.51255 26.3125,64.78125 8.7237,23.0927 9.09225,48.1049 16.28125,71.5625 0.3826,1.50217 0.73085,2.6906 1.0625,3.6875 l 0,-42.78125 c -7.45787,-30.18304 -13.97647,-61.2286 -29.34375,-88.53125 -11.077,-21.5934 -23.2722,-43.2421 -41.375,-59.75 z M 141.9375,110.59375 C 120.4937,111.81275 99.17565,115.811 78.71875,122.25 59.828626,130.31882 35.801167,133.84363 20,147.59375 l 0,8.4375 c 0.673534,-0.38621 1.296531,-0.81305 1.78125,-1.25 18.3599,-13.4717 41.1411,-18.47825 61.4375,-28.46875 18.4344,-0.4755 36.15215,-6.67565 54.34375,-8.90625 a 11.268465,11.268465 0 0 1 4.375,-6.8125 z m 201.5625,4.1875 a 11.268465,11.268465 0 0 1 0.875,7.09375 l -0.65625,3.3125 c 5.7308,6.2357 11.0423,12.87295 15.875,19.90625 20.5897,21.6795 -1.4694,-12.0511 -8.625,-19.875 -2.4757,-3.5199 -4.92425,-7.0199 -7.46875,-10.4375 z M 53.15625,116.75 l 0,0.0312 c -0.3214,0 -0.67415,-0.014 -1.03125,0 -8.3518,0.341 -25.98955,5.30635 -28.40625,13.03125 8.3849,7.1159 16.2359,-6.1563 24.6875,-6.625 10.1368,-4.3938 9.5703,-6.3979 4.75,-6.4375 z m 158.40625,0.3125 a 11.268465,11.268465 0 0 1 0.28125,3.34375 c 11.8506,5.8571 23.7354,11.73255 36.5,15.28125 8.0022,-4.2812 -19.54615,-16.2002 -36.78125,-18.625 z m -62.9375,2.59375 -5.25,26.34375 51.96875,0 5.25,-26.34375 -51.96875,0 z m 134.25,0 -9.375,46.96875 c -3.4136,-4.4955 -7.47345,-7.8773 -12.21875,-10.125 -4.7454,-2.2479 -10.2562,-3.375 -16.5,-3.375 -8.0755,0 -15.43365,2.0456 -22.09375,6.125 -6.5768,3.9961 -11.2527,8.64075 -14,13.96875 -2.6639,5.3283 -5.22125,14.3876 -7.71875,27.125 l -15.625,77.53125 c -2.4143,12.2379 -3.3745,21.05745 -2.875,26.46875 0.5828,5.4114 3.3381,10.2124 8.25,14.375 4.9118,4.0793 11.26815,6.125 19.09375,6.125 5.8277,0 11.6725,-1.2524 17.5,-3.75 5.8277,-2.4975 11.64105,-6.2549 17.46875,-11.25 l -2.375,12 50.46875,0 40.4375,-202.1875 -50.4375,0 z m -147.09375,6.75 c -4.7975,0.9197 -9.38405,2.4998 -13.59375,5.125 3.8732,1.323 7.92245,2.0254 12.09375,2.375 l 1.5,-7.5 z m 74.84375,0.625 -1.375,6.8125 c 8.2018,3.069 17.44025,4.06105 25.15625,8.28125 7.1651,1.6084 -9.41645,-10.81415 -23.78125,-15.09375 z m -98.4375,4.5 0,0.0312 C 78.603942,131.71312 50.248145,150.93202 20,163.625 l 0,8.125 c 11.456752,-3.46688 22.196658,-12.44225 32.5625,-17.4375 16.4886,-14.2545 59.40525,-9.7798 63.59375,-22.6875 -1.3343,-0.055 -2.65095,-0.0998 -3.96875,-0.0937 z m 229.40625,4.21875 -1.9375,9.6875 c 5.7801,6.4615 11.3605,13.08225 16.8125,19.71875 14.9253,14.0335 29.73955,28.6444 37.34375,48.375 12.5504,1.6944 -15.126,-35.98225 -20.375,-41.96875 -10.942,-11.5376 -21.12615,-23.9655 -31.84375,-35.8125 z m -131.0625,4.03125 c -3.8719,-0.1238 0.6326,4.955 7.625,9.0625 2.139,-1.2246 4.3499,-2.2789 6.625,-3.1875 -1.5457,-0.8307 -3.07685,-1.6802 -4.59375,-2.5625 -4.9534,-2.3092 -8.03975,-3.2608 -9.65625,-3.3125 z m -78.09375,3.40625 c -21.3132,1.8491 -42.44325,6.4875 -62.65625,13.1875 4.2541,11.4438 37.3057,-7.4461 54.25,-6.0625 2.7674,-0.4206 5.51795,-0.75175 8.28125,-1.03125 A 11.268465,11.268465 0 0 1 132.53125,149 11.268465,11.268465 0 0 1 132.3125,143.8125 l 0.125,-0.625 z m 73.0625,7.65625 a 11.268465,11.268465 0 0 1 -1.4375,2.28125 11.268465,11.268465 0 0 1 0.40625,2.6875 c 1.0457,0.2591 2.09,0.5237 3.125,0.8125 1.3034,-1.229 2.70045,-2.3867 4.15625,-3.5 -2.067,-0.8092 -4.1574,-1.54295 -6.25,-2.28125 z m -64.25,5.28125 -33.09375,165.71875 51.96875,0 33.09375,-165.71875 -51.96875,0 z m 196.25,0.125 -1.96875,9.875 c 14.7614,18.6878 25.0597,38.9478 30.0625,62.3125 14.6557,31.2754 9.1198,67.2336 23.375,98.625 C 408.65585,335.0725 377.9295,291.3865 388.125,279 380.8671,253.8799 377.582,227.3844 365,204.0625 360.156,185.5421 349.0899,170.6582 337.5,156.25 z m -208,1.03125 c -11.1153,1.044 -27.5485,6.0793 -35.9375,8.125 -25.1139,-1.1849 -45.08685,14.5521 -62.46875,30.8125 C 28.117764,200.05641 24.27781,203.44676 20,206.625 l 0,5.4375 c 12.347649,-11.01524 25.654346,-20.47876 38.75,-30.53125 13.4869,-11.5597 22.3979,-4.5841 5.5,6.375 -15.078768,11.79606 -30.972529,22.98362 -44.25,36.25 l 0,10.8125 C 33.758476,220.8191 49.030049,208.82075 63.5625,195.625 79.5527,174.2465 103.903,168.22425 128.375,163.03125 l 1.125,-5.75 z M 61.65625,161.5 C 47.694852,164.57458 34.406352,173.39711 20,179.09375 l 0,14.34375 C 33.886136,182.73456 47.994833,172.33933 61.65625,161.5 z m 65.25,8.875 c -8.4058,0.7246 -17.2315,4.28715 -24.75,7.96875 -23.1562,10.3513 -38.0966,31.5687 -57.9375,46.1875 -6.608508,9.82741 -15.574083,17.27883 -24.21875,25 l 0,9.59375 c 13.297396,-13.62215 28.124416,-25.36812 41.21875,-40.59375 19.9023,-14.5226 37.0821,-36.2894 62.375,-41.125 0.6998,-0.069 1.3132,-0.10295 1.9375,-0.15625 l 1.375,-6.875 z m 206.5625,6.0625 -1.90625,9.53125 c 2.8218,3.7615 5.69985,7.4649 8.78125,11 6.7871,-1.5101 0.7497,-10.96245 -6.875,-20.53125 z m -70.9375,6.03125 c 3.0802,1e-4 4.88575,1.0438 5.46875,3.125 0.6658,2.0814 0.4153,6.1728 -0.75,12.25 L 251.90625,274.5 c -1.8316,9.2409 -3.5433,15.0856 -5.125,17.5 -1.5819,2.3309 -4.0032,3.4999 -7.25,3.5 -2.8306,0 -4.5423,-1.0437 -5.125,-3.125 -0.5828,-2.1646 -0.1654,-6.6317 1.25,-13.375 l 16.25,-81.15625 c 1.2487,-6.4935 2.5846,-10.6683 4,-12.5 1.4152,-1.9146 3.6278,-2.8749 6.625,-2.875 z m -138.4375,1.9375 c -6.4396,3.3864 -12.17415,6.9309 -4.90625,8.3125 1.1809,-0.5769 2.39865,-1.12165 3.59375,-1.65625 l 1.3125,-6.65625 z M 372.4375,189.75 c -0.9166,0.01 -1.60985,1.8942 -1.71875,6.875 0.2114,1.1741 0.4136,2.35705 0.625,3.53125 13.5334,25.0876 5.06635,-10.44455 1.09375,-10.40625 z m -265.75,5.78125 c -3.8639,0.1746 -20.6766,10.2439 -25.8125,16.9375 6.2249,5.5746 13.1289,-3.86385 17.6875,-7.15625 8.6112,-7.252 10.1492,-9.87265 8.125,-9.78125 z m 222.90625,0.1875 -1.75,8.84375 c 0.031,0.063 0.0627,0.1249 0.0937,0.1875 15.3947,20.2383 27.02425,42.15615 27.03125,68.21875 12.5382,22.3496 14.9958,-6.8162 7.1875,-18.75 -1.9032,-10.6388 -17.583,-71.6055 -17.375,-37.1875 -5.4516,-0.2374 -10.0297,-10.9048 -15.1875,-21.3125 z m -209.34375,8 c -19.6939,5.0444 -38.7051,23.4847 -51.1875,39.875 -17.4038,21.4099 -27.2653,47.1286 -38,72.3125 -1.811392,5.31884 -3.580803,10.73093 -5.21875,16.25 L 33,335.375 c 1.191169,-4.23728 2.450783,-8.44243 3.78125,-12.625 7.2061,-24.1746 17.4734,-45.4652 30.625,-66.625 11.1953,-21.2169 33.8986,-34.5796 51.875,-47.625 l 0.96875,-4.78125 z m 263.53125,10.5625 c 3.1564,25.2098 13.4393,63.4757 21.25,93.125 9.6922,26.4573 7.45855,-15.033 1.90625,-21.1875 -6.5828,-23.7971 -0.45055,-57.4961 -23.15625,-71.9375 z M 75.125,214.8125 c -1.332,0.1156 -2.88155,1.5537 -4.46875,5.3125 11.0031,10.8621 9.22535,-5.7246 4.46875,-5.3125 z m 250.59375,0.34375 -2.53125,12.6875 c 1.231,2.3405 2.4624,4.6605 3.75,6.9375 13.18447,41.56153 19.426,85.57145 20.625,129.125 l 7.71875,-3.46875 c -5.9398,-29.9829 -0.082,-62.0145 -10.59375,-91.1875 -2.312,-19.4127 -9.54085,-37.31955 -18.96875,-54.09375 z M 116.875,220.5625 c -7.5576,4.167 -14.72455,8.99545 -21.34375,14.40625 -21.5369,20.1377 -33.29575,47.20495 -45.15625,73.09375 7.6585,19.7094 15.19945,-20.52315 21.59375,-24.90625 10.3189,-19.9618 23.6185,-43.18015 43.25,-54.34375 l 1.65625,-8.25 z m -51.53125,8.15625 c -7.0658,0.1207 -24.31055,21.2829 -24.53125,30.0625 -5.466203,15.22338 -13.389927,28.91204 -20.8125,42.875 l 0,17.03125 c 16.028838,-28.78499 24.010852,-62.86533 48.28125,-86.28125 -0.2118,-2.6222 -1.3069,-3.7154 -2.9375,-3.6875 z M 320.375,241.84375 316.34375,262 c 8.33401,36.25141 10.17693,74.05902 10.84375,111.125 l 9.375,-4.21875 c 0.10546,-28.30195 -4.33322,-56.55468 -7.875,-84.625 -0.6944,-14.4424 -3.5795,-28.7475 -8.3125,-42.4375 z M 112.1875,244.125 c -7.3315,3.0574 -16.7815,9.62925 -17.6875,16.78125 -16.358,21.5939 -26.75675,46.1413 -31.03125,72.5 4.0852,2.9829 13.32425,4.5449 11.21875,-3.5625 9.0419,-10.1755 19.46435,-28.86385 29.03125,-43.46875 l 1.34375,-6.65625 C 93.4089,269.59525 88.1104,324.6068 74.875,306.125 c 8.0295,-18.4573 20.2575,-37.12675 35.1875,-51.40625 l 2.125,-10.59375 z m -84.625,17.4375 c -2.34069,3.91496 -4.90902,7.71573 -7.5625,11.5 l 0,9.84375 c 7.20433,-10.25445 14.259398,-19.58153 7.5625,-21.34375 z m 333.59375,25.21875 c -2.5598,11.651 3.79805,43.8183 0.90625,63.5625 0.89548,2.70439 1.67007,4.62533 2.375,5.9375 l 4.21875,-1.90625 c 0.68703,-4.19409 0.61177,-10.48197 0.0937,-13.75 -5.3484,-23.1726 9.775,-4.08725 12.6875,6.46875 -1.9246,-16.9347 -7.64335,-44.5737 -20.28125,-60.3125 z m -49.8125,0.3125 -7.3125,36.53125 c 1.44449,19.41899 2.68886,38.86167 3.6875,58.3125 l 8.25,-3.71875 c -0.81265,-6.80391 -1.37014,-13.33818 0.40625,-16.0625 -2.8195,-24.8674 -1.30705,-50.0072 -5.03125,-75.0625 z M 99,310.0625 C 89.106082,323.92027 80.722736,339.02748 78.5625,356 l 11.53125,5.21875 c 0.0394,-0.42928 0.03411,-0.80838 -0.03125,-1.15625 0.532,-10.9275 3.86165,-21.74445 8.53125,-32.28125 a 11.268465,11.268465 0 0 1 -1.5,-8.15625 L 99,310.0625 z m -45.0625,8.3125 c -0.137951,-0.0102 -0.291075,0.0129 -0.4375,0.0312 -1.8337,0.2301 -4.3211,2.7209 -7.25,8.875 -1.154009,4.13769 -2.371247,8.28791 -3.59375,12.46875 l 6.78125,3.0625 c 0.484842,-1.28038 1.012413,-2.5225 1.625,-3.71875 7.291684,-6.69261 7.151468,-20.4041 2.875,-20.71875 z m 122.03125,0.1875 c -9.0658,22.9637 -11.08325,48.64565 -13.53125,72.96875 0.009,0.81481 0.0353,1.62379 0.0625,2.4375 l 9.84375,4.46875 c -0.095,-10.66661 1.54234,-20.96 5.34375,-30 -8.7663,-10.6361 2.8309,-28.1374 5.9375,-41 -0.029,-0.023 -0.0648,-0.0395 -0.0937,-0.0625 a 11.268465,11.268465 0 0 1 -0.0937,-0.0625 c -2.966,-2.5135 -5.48435,-5.4836 -7.46875,-8.75 z m 58.6875,11.46875 c -0.9696,0.4735 -1.92375,0.98525 -2.90625,1.40625 -2.0665,0.8857 -4.16585,1.63775 -6.28125,2.28125 -1.9224,11.7352 -3.7428,23.5021 -4,35.3125 -4.00747,17.31213 -1.62842,34.44128 0.65625,51.625 l 7.78125,-3.5 c -4.14267,-28.70554 2.10871,-57.32242 6.21875,-85.96875 a 11.268465,11.268465 0 0 1 -1.46875,-1.15625 z m -43.75,2.03125 c -4.63609,23.25148 -9.24688,47.33348 -8.46875,70.9375 l 9.40625,4.25 c -0.72556,-15.52893 0.19081,-31.14784 2.75,-46.4375 0,-8.8279 1.63085,-17.48975 3.65625,-26.09375 -2.5511,-0.6506 -5.00965,-1.53925 -7.34375,-2.65625 z m 104.71875,0.71875 a 11.268465,11.268465 0 0 1 -2.75,0.34375 l -9.90625,0 c -2.22205,19.11902 2.1516,38.97578 3.28125,58.53125 l 9.59375,-4.34375 c -2.11589,-18.04957 0.12764,-36.3378 -0.21875,-54.53125 z m -165.78125,0.3125 c -1.9729,5.6784 -1.86595,10.0475 2.96875,11.375 2.5378,-3.5831 4.6827,-7.3974 6.625,-11.375 l -9.59375,0 z m 20.59375,0 c -3.5321,11.5969 -5.9816,23.4257 -7.3125,35.125 -1.05484,5.38067 -1.65294,10.77906 -1.84375,16.15625 l 9,4.0625 c -0.20702,-1.44231 -0.39166,-2.87324 -0.5625,-4.25 5.15132,-18.71807 5.42643,-34.68914 10.71875,-51.09375 a 11.268465,11.268465 0 0 1 -0.3125,0 l -9.6875,0 z m 92.90625,0 c -0.6288,7.135 -1.1694,13.86245 -2.0625,18.28125 -0.80302,20.05523 -0.73461,40.39555 -0.25,60.75 l 8.9375,-4.0625 c -0.81924,-11.96469 -1.53748,-23.981 -0.0937,-35.875 0.8244,-13.2117 2.9367,-26.22425 4.3125,-39.09375 l -10.84375,0 z m 18.3125,0 c -0.3339,6.8435 0.0301,13.7047 1.90625,20.625 -3.55543,15.53759 -0.83036,31.86725 -0.0312,48.21875 l 9.40625,-4.25 c -1.00007,-11.80843 -2.97382,-24.53124 0.5625,-31.40625 -1.3185,-11.1139 -0.84385,-22.1544 -0.0312,-33.1875 l -11.8125,0 z m -45.375,2.5625 c -2.1516,0.2729 -4.30495,0.4375 -6.46875,0.4375 -0.981,0 -1.9674,-0.0367 -2.9375,-0.0937 -3.5298,17.002 -4.03695,34.35725 -4.96875,52.15625 -2.23191,7.09448 -1.36234,15.34509 0.0937,23.6875 l 8.0625,3.65625 c -0.87435,-19.83153 0.65993,-39.60524 2.71875,-59.46875 1.0838,-6.7455 2.3152,-13.5441 3.5,-20.375 z M 114.75,337.0625 c -10.38662,0.19047 -16.792092,12.6869 -18.84375,26.78125 l 10.90625,4.9375 c 2.95536,-10.50704 8.19372,-20.7556 7.9375,-31.71875 z m -48.96875,5.34375 c -1.5271,0.1346 -3.4747,0.98575 -5.875,2.65625 -0.107292,0.77943 -0.254894,1.5579 -0.375,2.34375 l 11.15625,5.03125 c 0.20422,-5.84973 -0.898359,-9.8797 -4.28125,-10.03125 -0.2013,-0.01 -0.4068,-0.019 -0.625,0 z m 61.03125,7.3125 c -0.19579,-0.0196 -0.39602,0.008 -0.59375,0.0312 -1.7717,0.2054 -3.62205,2.2128 -5.03125,7.1875 0.2991,1.0476 0.60725,2.0777 0.90625,3.125 15.60995,10.54077 10.78819,-9.73531 4.71875,-10.34375 z m 1.59375,17.03125 c -3.66433,0.0883 -8.14043,2.61044 -10.4375,7.0625 l 13.84375,6.28125 c 4.75817,-9.38751 1.38904,-13.45944 -3.40625,-13.34375 z"
       transform="translate(396.6429,2744.8144)"
       id="path3949"
       style="fill:#ffd42a" />
  </g>
</svg>
