<?xml version="1.0" encoding="UTF-8" standalone="no"?>
<!-- Created with Inkscape (http://www.inkscape.org/) -->

<svg
   xmlns:dc="http://purl.org/dc/elements/1.1/"
   xmlns:cc="http://creativecommons.org/ns#"
   xmlns:rdf="http://www.w3.org/1999/02/22-rdf-syntax-ns#"
   xmlns:svg="http://www.w3.org/2000/svg"
   xmlns="http://www.w3.org/2000/svg"
   version="1.1"
   width="499.96887"
   height="575.7796"
   id="svg2">
  <defs
     id="defs4" />
  <metadata
     id="metadata7">
    <rdf:RDF>
      <cc:Work
         rdf:about="">
        <dc:format>image/svg+xml</dc:format>
        <dc:type
           rdf:resource="http://purl.org/dc/dcmitype/StillImage" />
        <dc:title></dc:title>
      </cc:Work>
    </rdf:RDF>
  </metadata>
  <g
     transform="translate(2479.0278,445.16499)"
     id="layer1">
    <path
       d="m 249.625,0 c -0.7479,0.0657 -1.4803,0.30269 -2.125,0.6875 L 2.5,142.125 c -1.5154,0.87501 -2.5047,2.5939 -2.5,4.34375 l 0,282.875 c 0,1.74985 0.9846,3.46874 2.5,4.34375 l 245,141.4375 c 1.5043,0.86117 3.46445,0.86117 4.96875,0 L 497.5,433.6875 c 1.5039,-0.88288 2.47975,-2.59989 2.46875,-4.34375 l 0,-282.875 c 0.011,-1.74386 -0.96485,-3.46087 -2.46875,-4.34375 L 252.46875,0.6875 C 251.61685,0.18368 250.613,-0.05904 249.625,0 z m 0.375,10.78125 239.96875,138.5625 0,277.125 L 250,565.03125 10,426.46875 10,149.34375 250,10.78125 z M 250,22.3125 20,155.125 20,420.6875 250,553.5 480,420.6875 480,155.125 250,22.3125 z m 0,12.0625 13.40625,7.75 c -5.0706,-2.41585 -10.2208,-4.61274 -15.4375,-6.5625 L 250,34.375 z m -8.90625,5.125 c 8.4917,3.44416 16.6934,8.36201 25.25,10.9375 11.8233,0.90767 35.9355,29.42564 13.3125,13.9375 -12.9618,-10.89369 -29.2731,-15.20021 -44.6875,-21.3125 l 6.125,-3.5625 z m -15,8.65625 c 2.9238,2.631 6.3765,6.27926 13.1875,3.78125 22.7328,6.01057 42.36645,19.42307 61.15625,33.0625 11.818,20.15057 14.66315,43.07451 13.28125,65.875 l -6.875,0 C 307.60005,142.09161 307.86,133.238 307.75,124.21875 304.2275,102.28664 293.01135,79.6405 270.96875,71.125 253.76105,60.36013 233.7411,54.66533 213.6875,55.34375 l 12.40625,-7.1875 z m 53.09375,3.0625 14.28125,8.25 c 12.913,12.42036 23.3433,27.30256 29.75,44.3125 5.5136,14.85144 4.9253,31.38691 4.6875,47.09375 l -7.125,0 c 0.2866,-2.57115 0.56575,-5.14745 0.84375,-7.71875 C 320.6177,121.81844 319.17065,98.14223 303.78125,81.625 298.33695,69.20811 289.769,58.97277 279.1875,51.21875 z M 223.25,62.3125 c 23.7304,-0.12544 46.54025,11.96975 64.15625,27.25 12.6677,17.94875 15.59665,40.01468 12.96875,61.3125 l -7.25,0 c 0.1559,-1.7535 0.2345,-3.53871 0.1875,-5.34375 C 294.4547,125.27754 295.4985,101.66772 278.25,87.25 261.0344,74.58496 237.40625,64.67341 216.03125,69.28125 201.91745,72.56136 201.7954,60.43533 215.875,62.75 c 2.4703,-0.28433 4.9201,-0.42452 7.375,-0.4375 z m -28.34375,4.5625 c 1.1108,0.0158 2.19185,0.0918 3.28125,0.21875 -6.6939,3.4835 -14.51835,6.58676 -22.40625,10.125 l 17.875,-10.3125 c 0.4141,-0.009 0.8388,-0.03715 1.25,-0.03125 z m 116.59375,3 12.21875,7.0625 c 13.3661,21.95276 20.4134,48.18133 19.0625,73.9375 l -7.1875,0 c 0.065,-11.17887 -0.56715,-22.34039 -2.15625,-33.4375 C 329.8351,100.18964 322.2543,83.76368 311.5,69.875 z m -91.46875,4.34375 c 8.1153,-0.12307 16.18225,0.63463 24.03125,2.3125 17.9276,6.34547 38.9073,15.56464 42,36.90625 2.9593,9.78323 3.4858,31.55594 -3.625,37.4375 l -3.65625,0 c 1.2722,-14.20138 -3.1839,-30.12148 -6.9375,-41.28125 5.5488,5.28288 12.5461,18.49937 7.8125,1.78125 -5.2417,-15.27103 -20.4771,-24.5646 -35.6875,-28.46875 -15.4095,-6.10086 -33.3732,-2.89696 -49.25,0.75 -21.5744,1.40496 -38.85625,20.72855 -52.15625,37.1875 -5.6599,2.38204 -17.948,32.41922 -20.75,15.90625 13.3279,-18.19758 26.7681,-37.33788 46.6875,-49.53125 15.6918,-8.22424 33.67815,-12.72926 51.53125,-13 z m 114.90625,9.1875 7.46875,4.3125 c 8.5381,19.97885 15.3282,41.16222 14.125,63.15625 l -6.78125,0 c -0.1909,-9.0007 -0.71875,-17.97821 -1.65625,-26.90625 -4.3079,-13.35041 -7.00625,-27.82076 -13.15625,-40.5625 z M 221.53125,85.8125 c 11.281,-0.008 22.7381,2.69634 32.5625,6.90625 16.4989,10.87795 13.84555,32.82425 18.40625,49.65625 -0.2166,2.85702 -0.5574,5.69114 -1,8.5 l -7.15625,0 c 0.6412,-3.41791 1.08135,-6.88732 1.28125,-10.40625 -2.8556,-16.43756 -1.9144,-45.11056 -24.75,-45.65625 -13.8735,-6.05195 -42.5382,3.09171 -47.5,-1.8125 8.3867,-5.04988 18.20255,-7.18014 28.15625,-7.1875 z m -70.34375,5.59375 c -2.8586,2.32509 -5.5175,4.88231 -7.875,7.75 -13.5761,14.32275 -24.9318,29.20347 -34.375,46.8125 -0.9071,1.61969 -1.8062,3.2681 -2.6875,4.90625 l -6.9375,0 c 2.0403,-3.79013 4.15265,-7.49889 6.28125,-11.125 9.2478,-13.3604 18.15395,-27.01249 29.15625,-38.84375 0.01,-0.0108 0.0213,-0.0206 0.0312,-0.0312 l 16.40625,-9.46875 z m 200.03125,1.40625 5.71875,3.28125 c 2.106,8.18526 3.9427,15.96557 7.8125,16.9375 5.3227,-26.73839 7.781,23.06705 7.5625,31.625 0.7195,1.81792 1.1151,3.97453 1.25,6.21875 l -8.71875,0 c 1.701,-17.53208 -3.5074,-34.07178 -11.1875,-50.0625 -0.7134,-2.71173 -1.5324,-5.37418 -2.4375,-8 z M 204,95.625 c 1.5423,0.24107 -1.13755,12.08403 -2.40625,3.25 1.219,-2.45604 1.97435,-3.3175 2.40625,-3.25 z m -20.5,0.90625 c 4.576,-0.15515 5.5761,1.93242 -4.3125,6.78125 -14.8773,8.72141 -28.30105,22.00741 -38.03125,35.84375 7.6922,17.27473 21.487,-29.76822 28.6875,-13.84375 -7.8343,7.51684 -16.8638,17.84929 -24.9375,25.5625 l -13.78125,0 c 7.5462,-16.62787 18.44865,-31.39223 32.46875,-43.6875 2.23,-6.54166 14.02285,-10.45677 19.90625,-10.65625 z m 52.375,3.375 c 11.2011,-0.38931 27.73835,18.12261 7.28125,8.21875 -2.7352,-1.41791 -14.6306,-2.60599 -9.4375,-7.875 0.6864,-0.20803 1.40955,-0.3178 2.15625,-0.34375 z m -12.84375,0.3125 c 3.1913,0.11633 4.1898,1.6754 0.4375,5.1875 -9.1076,1.85737 -16.90585,8.18536 -26.28125,8.84375 1.1652,-7.6453 18.82395,-14.28717 25.84375,-14.03125 z m -28.71875,2.09375 c 1.3913,-0.0266 0.6099,1.8299 -4.3125,6.90625 -2.7129,1.5696 -14.0036,12.8515 -14.9375,6.59375 2.6698,-4.23104 16.1892,-13.44141 19.25,-13.5 z m 183.34375,5.75 6.3125,3.65625 c 2.9944,12.83263 3.31245,26.00188 3.71875,39.15625 l -6.4375,0 c 0.2571,-8.58894 -0.10815,-17.15744 -2.15625,-25.6875 -0.049,-5.84634 -0.5354,-11.54842 -1.4375,-17.125 z M 118.96875,110 C 111.07205,120.76133 103.8068,132.11737 95,141.96875 c -1.6317,2.93725 -3.27315,5.90689 -4.84375,8.90625 l -7.875,0 c 0.066,-0.15227 0.1212,-0.31695 0.1875,-0.46875 C 89.57915,137.73708 99.1416,127.25607 108.1875,116.25 L 118.96875,110 z m 110.5,1.34375 c 12.2235,-0.10745 24.636,4.65106 28.8125,16.21875 0.714,7.93537 0.0709,15.69167 -1.40625,23.3125 l -6.21875,0 c 2.8646,-14.40955 2.55855,-29.37286 -13.59375,-33.03125 -23.6937,-6.02321 -39.70905,16.84765 -53.96875,31.71875 -0.1223,0.42641 -0.28995,0.86905 -0.46875,1.3125 l -9.8125,0 c 12.1843,-12.65618 23.6788,-26.43487 38.8125,-35.625 5.073,-2.45924 11.44075,-3.84997 17.84375,-3.90625 z m 165.9375,6.96875 2.40625,1.40625 c 6.7075,8.5086 6.7481,19.69567 5.75,31.15625 l -8.40625,0 c -0.3503,-11.94319 -0.394,-23.36025 0.25,-32.5625 z m -210.9375,5.78125 c 1.1943,-0.0254 5e-5,2.40983 -5.65625,9 -5.1561,5.70127 -10.6686,11.59837 -15.8125,17.78125 l -8.71875,0 c 2.9966,-3.05389 6.14445,-5.97788 9.34375,-8.78125 3.9951,-5.97078 18.21595,-17.94405 20.84375,-18 z m 45.28125,0 c 7.1021,-0.27209 13.2041,3.28107 15.875,13.34375 0.3232,4.66714 -0.14665,9.12214 -1.09375,13.4375 l -6.09375,0 c 2.7406,-13.6236 -0.81925,-27.43096 -18.28125,-19.90625 -8.6383,4.92939 -14.63275,12.17238 -19.96875,19.90625 l -6.6875,0 c 1.5615,-2.1585 2.7749,-4.17779 3.3125,-5.90625 6.4288,-9.32722 21.1007,-20.42152 32.9375,-20.875 z M 90.8125,126.25 c -0.1048,0.28889 -0.177,0.56051 -0.25,0.84375 -5.3822,2.40924 -16.095,33.13931 -19.25,14.71875 1.0048,-2.179 2.16105,-4.24974 3.40625,-6.25 L 90.8125,126.25 z m 320.6875,1.34375 7.15625,4.125 c 0.3386,6.39317 0.54995,12.77903 0.78125,19.15625 l -6.8125,0 c 0.128,-7.55412 -0.047,-15.10352 -1.25,-22.625 0.048,-0.21685 0.081,-0.44008 0.125,-0.65625 z m -187.8125,8 c 6.5903,1.13598 0.5032,8.28018 -5.1875,15.28125 l -9,0 c 4.3398,-5.46766 9.0674,-10.61001 14.1875,-15.28125 z m 205.53125,2.25 6.46875,3.71875 c 0.3526,3.1128 0.74445,6.23467 1.21875,9.3125 l -7.15625,0 c 0.015,-4.33978 -0.19085,-8.69288 -0.53125,-13.03125 z m -365.625,4.125 c -1.6463,2.96734 -3.1959,5.93687 -4.6875,8.90625 l -1.625,0 -0.1875,-0.15625 -1.1875,-4.125 c 0.014,-0.061 0.01725,-0.12657 0.03125,-0.1875 l 7.65625,-4.4375 z m 168.28125,1.625 c 1.7238,-0.1444 2.4222,2.11127 -0.0625,7.28125 l -6.21875,0 c 1.6576,-4.48515 4.51545,-7.13334 6.28125,-7.28125 z M 122.59375,145.25 c 1.7197,0.1339 2.22935,2.60802 1.59375,5.625 l -8.53125,0 c 3.2005,-4.20705 5.4933,-5.73744 6.9375,-5.625 z m 325.875,3.71875 3.34375,1.90625 -3.15625,0 -0.1875,-1.90625 z m -374.125,0.65625 c 0.4394,-0.11978 0.64755,0.5402 0.65625,1.25 l -1.71875,0 c 0.4312,-0.80443 0.7975,-1.17786 1.0625,-1.25 z M 30,160.875 l 440,0 0,254.0625 -440,0 0,-254.0625 z m 10,10 0,234.0625 279.53125,0 0,-101.40625 c -8.62945,0 -15.625,-6.99555 -15.625,-15.625 0,-8.62945 6.99555,-15.625 15.625,-15.625 l 0,-101.40625 -279.53125,0 z m 279.53125,101.40625 0,15.625 0,15.625 c 8.62945,0 15.625,-6.99555 15.625,-15.625 0,-8.62945 -6.99555,-15.625 -15.625,-15.625 z m -44.125,-90.375 9.1875,0 0,19.46875 c 0,15.92078 0.57995,19.4375 3.09375,19.4375 1.6888,0 3.0625,0.9323 3.0625,2.09375 0,1.16103 -1.3737,2.63319 -3.0625,3.28125 -2.6291,1.00874 -3.09375,9.48089 -3.09375,59.03125 0,48.9418 0.49705,58.28226 3.09375,60.4375 5.5478,4.60421 3.23535,6.15625 -9.21875,6.15625 -9.5526,0 -12.28125,-0.67432 -12.28125,-3.0625 0,-1.68874 0.90535,-3.09375 2.03125,-3.09375 1.3175,0 2.0625,-21.13391 2.0625,-59.34375 2e-4,-38.20983 -0.745,-59.375 -2.0625,-59.375 -1.1261,0 -2.03125,-1.37376 -2.03125,-3.0625 0,-1.68873 0.90535,-3.0625 2.03125,-3.0625 1.1927,0 2.0625,-6.77814 2.0625,-16.25 2e-4,-8.94006 -0.9368,-16.83549 -2.0625,-17.53125 -4.6378,-2.86614 -1.4627,-5.125 7.1875,-5.125 z m 133.90625,1.53125 c -9.8973,0 -13.46525,2.45407 -7.15625,4.875 2.3749,0.91131 3.0625,4.82698 3.0625,17.46875 l 0,16.375 -13.8125,0.625 -13.8125,0.59375 L 377,285.78125 c -0.2983,34.32595 -0.0761,63.58105 0.46875,65 0.7134,1.85925 7.31875,2.5625 23.59375,2.5625 18.7071,0 22.59375,-0.51875 22.59375,-3.0625 0,-1.68873 -0.9368,-3.0625 -2.0625,-3.0625 -1.3308,0 -0.73155,-28.70137 -2.03125,-81.90625 l 0,-81.875 -10.25,0 z m -53.09375,6.59375 c -4.2591,0.20612 -5.3161,1.30607 -5.8125,4.8125 -0.3746,2.64753 -0.1324,7.07545 0.5625,9.84375 1.0623,4.23412 2.3387,4.94112 7.875,4.40625 6.3422,-0.61327 6.59375,-0.96817 6.59375,-9.84375 0,-9.16216 -0.0299,-9.21875 -7.15625,-9.21875 -0.7453,0 -1.4543,-0.0287 -2.0625,0 z m 0,31.71875 c -9.5337,0 -12.9809,2.16265 -8.1875,5.125 1.2882,0.79647 2.0625,23.20106 2.0625,60.40625 0,37.2054 -0.7743,59.57915 -2.0625,60.375 -1.1259,0.69576 -2.03125,2.1282 -2.03125,3.1875 0,1.0593 5.52645,1.9375 12.28125,1.9375 9.5526,0 12.28125,-0.70557 12.28125,-3.09375 0,-1.68873 -0.9367,-3.0625 -2.0625,-3.0625 -1.3199,0 -2.03125,-22.18071 -2.03125,-62.4375 l 0,-62.4375 -10.25,0 z M 225.875,222.21875 c 3.0581,-0.008 6.92245,0.0667 11.71875,0.1875 l 23.03125,0.5625 0.5625,22.03125 0.59375,22 -7.1875,0 -7.15625,0 -0.5625,-18.9375 -0.59375,-18.9375 -6.125,0 -6.15625,0 -0.5625,57.5625 c -0.466,49.37043 -0.099,57.91654 2.5625,60.125 5.5802,4.63102 3.31765,6.15625 -9.15625,6.15625 -9.5526,0 -12.28125,-0.67432 -12.28125,-3.0625 0,-1.68874 0.90535,-3.09375 2.03125,-3.09375 1.3166,0 2.0625,-20.74057 2.0625,-58.1875 0,-36.60339 -0.7756,-58.70456 -2.0625,-59.5 -1.1261,-0.69576 -2.03125,-2.62179 -2.03125,-4.28125 0,-1.88422 2.138,-2.5984 11.3125,-2.625 z m -48.09375,0.0625 c 2.1794,0.008 4.57265,0.0575 7.21875,0.125 l 23.03125,0.5625 0,64.5 0,64.46875 -12.78125,0.5625 -12.8125,0.65625 0,17.21875 c 0,9.44934 0.9366,17.7105 2.0625,18.40625 5.058,3.12611 1.0602,5.125 -10.25,5.125 -6.7549,0 -12.28125,-0.878 -12.28125,-1.9375 0,-1.0593 0.9368,-2.49174 2.0625,-3.1875 1.308,-0.80834 2.03125,-29.99214 2.03125,-80.84375 0,-50.8516 -0.72325,-80.06665 -2.03125,-80.875 -5.46,-3.3746 -1.5043,-4.82835 13.75,-4.78125 z m -63.96875,0.125 20.46875,0 20.46875,0 0.5625,22 0.59375,22 -7.15625,0 -7.1875,0 -0.5625,-18.9375 -0.59375,-18.9375 -5.625,-0.625 -5.625,-0.625 0,26.59375 0,26.6875 12.8125,0.5625 12.78125,0.65625 0,34.78125 0,34.8125 -19.5625,0.5625 c -10.7511,0.31953 -20.2115,-0.0542 -21,-0.84375 -0.7886,-0.78869 -0.31365,-9.61549 -1.40625,-19.5 l 0,-18.09375 8.1875,0 8.1875,0 0,16.4375 c 0,17.34689 2.55205,21.83449 9.28125,16.25 2.5467,-2.11266 3.0286,-7.60184 2.5625,-30.46875 l -0.59375,-27.8125 -13.28125,-1.03125 -13.3125,-1 0,-31.75 0,-31.71875 z m 68.625,5.4375 0,60.5 c 0,57.84072 0.17105,60.53125 3.84375,60.53125 2.1141,0 4.87455,-1.26807 6.15625,-2.8125 1.6494,-1.98759 2.16665,-19.48332 1.78125,-59.875 l -0.5,-57.0625 -5.65625,-0.65625 -5.625,-0.625 z m 210.5,0.625 6.15625,0 6.125,0 0,59.375 0,59.375 -6.125,0 -6.15625,0 0,-59.375 0,-59.375 z m -344.75,196.96875 19.21875,0 L 77,431 l 9.625,5.5625 9.59375,5.53125 9.625,5.5625 9.59375,5.53125 9.625,-5.53125 9.625,-5.5625 9.59375,-5.53125 9.625,-5.5625 9.59375,-5.5625 19.21875,0 -9.59375,5.5625 -9.625,5.5625 -9.59375,5.53125 -9.625,5.5625 -9.59375,5.53125 -9.625,5.5625 -9.59375,5.53125 -0.0312,0 L 96.21875,453.1875 77,442.09375 57.78125,431 48.1875,425.4375 z m 38.4375,0 57.65625,0 -9.59375,5.5625 -9.625,5.5625 -9.625,5.53125 -9.59375,-5.53125 L 96.21875,431 86.625,425.4375 z m 115.3125,0 19.21875,0 19.21875,0 19.21875,0 L 250,431 l 9.59375,5.5625 9.625,-5.5625 9.59375,-5.5625 9.625,5.5625 -9.625,5.5625 9.625,5.53125 9.59375,-5.53125 9.625,-5.5625 -9.625,-5.5625 38.46875,0 19.21875,0 9.59375,5.5625 9.625,-5.5625 19.21875,0 19.21875,0 -9.625,5.5625 -9.59375,-5.5625 -9.625,5.5625 9.625,5.5625 9.59375,5.53125 9.625,-5.53125 9.59375,5.53125 -9.625,5.5625 -9.59375,-5.5625 -9.59375,5.5625 -9.625,-5.5625 -9.59375,5.5625 -9.625,5.53125 -9.59375,5.5625 9.59375,5.53125 -9.59375,5.5625 -9.625,5.53125 -9.59375,5.5625 -9.625,5.53125 9.59375,5.5625 -9.59375,5.53125 -9.625,-5.53125 9.625,-5.5625 -9.625,-5.53125 9.625,-5.5625 -9.625,-5.53125 -9.59375,5.53125 -9.625,5.5625 -9.59375,-5.5625 9.59375,-5.53125 9.625,-5.5625 -9.625,-5.53125 -9.59375,5.53125 -9.625,5.5625 -9.59375,-5.5625 9.59375,-5.53125 -9.59375,-5.5625 -9.625,5.5625 -9.59375,-5.5625 -9.625,5.5625 -9.59375,5.53125 -9.625,-5.53125 -9.59375,5.53125 9.59375,5.5625 -9.59375,5.53125 -9.625,5.5625 -9.59375,5.53125 -9.625,5.5625 -9.59375,5.53125 -19.21875,-11.09375 9.59375,-5.53125 9.625,-5.5625 9.59375,-5.53125 -9.59375,-5.5625 -9.625,-5.53125 -9.59375,-5.5625 9.59375,-5.53125 9.625,5.53125 9.59375,-5.53125 -9.59375,-5.5625 9.59375,-5.53125 9.625,-5.5625 9.59375,5.5625 -9.59375,5.53125 9.59375,5.5625 9.625,-5.5625 9.59375,5.5625 -9.59375,5.53125 9.59375,5.5625 9.625,-5.5625 9.59375,-5.53125 -9.59375,-5.5625 9.59375,-5.53125 -9.59375,-5.5625 -9.625,5.5625 -9.59375,-5.5625 -9.625,-5.5625 z m -19.21875,44.40625 9.625,5.53125 9.59375,-5.53125 9.625,-5.5625 -9.625,-5.53125 -9.59375,-5.5625 -9.625,5.5625 9.625,5.53125 -9.625,5.5625 z m 86.5,-16.65625 9.59375,-5.53125 -9.59375,-5.5625 -9.625,5.5625 9.625,5.53125 z m 86.5,5.5625 -9.625,-5.5625 9.625,-5.53125 9.59375,-5.5625 -9.59375,-5.53125 L 346.09375,431 336.5,425.4375 326.875,431 l -9.625,5.5625 -9.59375,5.53125 -9.625,5.5625 9.625,5.53125 9.59375,5.5625 9.625,5.53125 9.625,-5.53125 9.59375,5.53125 9.625,-5.53125 z m 76.875,-33.3125 19.21875,0 -9.625,5.5625 -9.625,5.5625 -9.59375,-5.5625 9.625,-5.5625 z m -96.09375,11.125 9.59375,5.53125 -9.59375,5.5625 -9.625,5.53125 -9.625,-5.53125 9.625,-5.5625 9.625,-5.53125 z m -201.8125,27.71875 9.59375,5.5625 9.625,-5.5625 9.59375,5.5625 -9.59375,5.53125 -9.59375,5.5625 -9.625,-5.5625 -9.59375,-5.53125 9.59375,-5.5625 z m 115.3125,0 9.59375,5.5625 9.625,5.53125 9.59375,5.5625 9.625,5.53125 9.59375,5.5625 9.625,5.53125 9.59375,5.5625 -48.03125,27.71875 -9.625,5.5625 L 250,541.9375 230.78125,530.84375 211.5625,519.75 192.34375,508.65625 182.75,503.125 l 9.59375,-5.5625 9.59375,-5.53125 9.625,-5.5625 9.59375,-5.53125 9.625,-5.5625 9.59375,-5.53125 9.625,-5.5625 z m 0,11.09375 -9.625,5.5625 -9.59375,5.53125 -9.625,5.5625 -9.59375,5.53125 -9.625,5.5625 9.625,5.53125 9.59375,5.5625 9.625,5.53125 9.59375,5.5625 9.625,5.53125 9.59375,-5.53125 9.625,-5.5625 9.59375,-5.53125 9.625,-5.5625 9.59375,-5.53125 -9.59375,-5.5625 -9.625,-5.53125 -9.59375,-5.5625 -9.625,-5.53125 L 250,475.375 z m 0,11.09375 9.59375,5.5625 9.625,5.53125 9.59375,5.5625 -9.59375,5.53125 -9.625,5.5625 L 250,519.75 l -9.625,-5.53125 -9.59375,-5.5625 -9.625,-5.53125 9.625,-5.5625 9.59375,-5.53125 9.625,-5.5625 z"
       transform="translate(-2479.0278,-445.15629)"
       id="path24871"
       style="font-size:medium;font-style:normal;font-variant:normal;font-weight:normal;font-stretch:normal;text-indent:0;text-align:start;text-decoration:none;line-height:normal;letter-spacing:normal;word-spacing:normal;text-transform:none;direction:ltr;block-progression:tb;writing-mode:lr-tb;text-anchor:start;baseline-shift:baseline;color:#000000;fill:#008000;fill-opacity:1;stroke:none;stroke-width:10.7841568;marker:none;visibility:visible;display:inline;overflow:visible;enable-background:accumulate;font-family:Sans;-inkscape-font-specification:Sans" />
  </g>
</svg>
