<svg
   xmlns:dc="http://purl.org/dc/elements/1.1/"
   xmlns:cc="http://creativecommons.org/ns#"
   xmlns:rdf="http://www.w3.org/1999/02/22-rdf-syntax-ns#"
   xmlns:svg="http://www.w3.org/2000/svg"
   xmlns="http://www.w3.org/2000/svg"
   xmlns:xlink="http://www.w3.org/1999/xlink"
   version="1.1"
   id="svg2"
   viewBox="0 0 353 224" preserveAspectRatio="xMidYMid meet">
  <defs
     id="defs4">
    <clipPath
       id="clipPath3197">
      <rect
         width="353"
         height="224"
         x="-367.78571"
         y="-843.7193"
         transform="scale(-1,-1)"
         id="rect3199"
         style="fill:#ff0000;fill-opacity:1;stroke:none" />
    </clipPath>
    <clipPath
       clipPathUnits="userSpaceOnUse"
       id="clipPath3160">
      <rect
         y="619.7193"
         x="54.976116"
         height="224"
         width="175.467"
         id="rect3162"
         style="fill:#00ff00;fill-opacity:1;stroke:none" />
    </clipPath>
  </defs>
  <metadata
     id="metadata7">
    <rdf:RDF>
      <cc:Work
         rdf:about="">
        <dc:format>image/svg+xml</dc:format>
        <dc:type
           rdf:resource="http://purl.org/dc/dcmitype/StillImage" />
        <dc:title></dc:title>
      </cc:Work>
    </rdf:RDF>
  </metadata>
  <g
     transform="translate(-14.78571,-619.71933)"
     id="layer1">
    <rect
       width="353"
       height="224"
       rx="10"
       x="201.21933"
       y="-306.28571"
       transform="matrix(-1,0,0,-1,569.00504,537.43362)"
       id="rect3088"
       style="fill:#e6e6e6;fill-opacity:1;stroke:none" />
    <text
       x="-735.1889"
       y="56.863567"
       transform="matrix(0,-1,1,0,0,0)"
       id="text4095"
       xml:space="preserve"
       style="font-size:48.73289871px;font-style:normal;font-variant:normal;font-weight:bold;font-stretch:normal;line-height:125%;letter-spacing:0px;word-spacing:0px;fill:#ffffff;fill-opacity:1;stroke:none;font-family:Impact;-inkscape-font-specification:Impact Bold"><tspan
         x="-735.1889"
         y="56.863567"
         id="tspan4097">2014</tspan></text>
    <path
       style="fill:#ffffff;stroke:none"
       d="m 288.35616,602.69496 -0.0698,0.34163 -0.26698,1.15552 c -0.0833,0.36863 -0.18125,1.2474 -0.28837,2.45279 -0.10715,1.2054 -0.21961,2.71485 -0.30994,4.22294 l -0.31713,5.40113 -10.45975,18.11681 c -3.14682,5.45042 -5.84192,10.03784 -7.82792,13.30632 -0.993,1.63423 -1.8093,2.93747 -2.40481,3.85018 -0.29779,0.45633 -0.54512,0.82056 -0.72771,1.0714 -0.0911,0.12551 -0.16441,0.22258 -0.22205,0.29014 -0.0572,0.0678 -0.11394,0.10807 -0.0904,0.0934 -0.0592,0.037 -0.30728,0.1332 -0.65554,0.22177 -0.3483,0.0885 -0.81018,0.17148 -1.33568,0.26566 -1.05099,0.18833 -2.3778,0.37991 -3.7362,0.51675 -1.36632,0.13769 -2.62171,0.27911 -3.53831,0.39458 -0.45833,0.0576 -0.83643,0.10329 -1.10263,0.14554 -0.13305,0.0211 -0.2349,0.0555 -0.31489,0.0729 -0.0399,0.009 -0.0664,0.005 -0.0998,0.0154 -0.0162,0.005 -0.041,0.006 -0.0645,0.0172 -0.0236,0.0109 -0.0624,0.0139 -0.11963,0.11286 -0.053,0.0919 -0.0397,0.13306 -0.0379,0.16005 0.002,0.027 0.0139,0.0474 0.0174,0.0644 0.007,0.0339 0.0108,0.0498 0.0231,0.086 0.0245,0.0724 0.0635,0.16803 0.11008,0.28188 0.0934,0.22766 0.23695,0.54597 0.4101,0.92797 0.34636,0.76403 0.8248,1.80025 1.37035,2.91935 0.54139,1.11059 1.05758,2.27067 1.43533,3.24791 0.37776,0.97722 0.61724,1.80266 0.64325,2.09938 0.0425,0.48608 -0.2443,1.39755 -1.69483,4.13275 -1.45056,2.73524 -4.0447,7.28918 -8.56482,15.11825 l -10.38098,17.98038 -4.94369,3.58486 c -1.37595,0.99541 -2.65736,1.92721 -3.60304,2.64908 -0.47282,0.36095 -0.85934,0.67633 -1.14121,0.90543 -0.14097,0.11455 -0.25595,0.19996 -0.3412,0.27594 -0.0423,0.0382 -0.0815,0.0689 -0.11184,0.0993 -0.0304,0.0304 -0.0511,0.0572 -0.0845,0.115 -0.0389,0.0674 -0.0414,0.13613 -0.0321,0.18158 0.009,0.0455 0.0239,0.0724 0.0366,0.094 0.0257,0.0434 0.0463,0.07 0.072,0.0961 0.0508,0.052 0.11403,0.10406 0.19468,0.16688 0.16123,0.1258 0.40693,0.29723 0.71092,0.50141 0.60801,0.40835 1.49451,0.96521 2.59726,1.64496 2.2054,1.35962 5.26826,3.18706 8.66801,5.14991 l 12.16883,7.0257 -1.55405,3.66833 c -3.73184,8.81851 -2.13873,16.51857 4.88356,23.51927 l 0.0273,0.0157 c 1.73825,1.72273 5.9028,4.24394 23.40081,14.25623 l 21.34271,12.2131 0.21828,0.12611 0.12597,-0.21828 14.36852,-24.91847 14.31554,-24.85815 5.17769,-3.48614 5.22075,-3.49766 0.33119,-0.2271 -0.35471,-0.20479 -20.72246,-11.96412 -20.50422,-11.83811 0.71677,-1.24143 0.73248,-1.26873 3.18974,1.53238 c 4.73786,2.27762 9.38044,2.69986 13.64009,1.32685 4.25971,-1.37296 8.11935,-4.52545 11.33126,-9.35558 l 2.42152,-3.65862 2.91996,1.55856 3.01766,1.57846 1.47066,7.59741 c 0.82049,4.24095 1.89065,9.51457 2.38038,11.7242 l 0.87515,3.99765 0.14567,0.6298 0.32294,-0.55933 13.10191,-22.63029 13.08043,-22.62451 0.23629,-0.40927 -0.46708,0.0214 -1.64946,0.0845 c -0.92457,0.0481 -4.34692,0.32293 -7.64438,0.60683 l -5.91668,0.51294 -4.50193,-2.59919 -4.35186,-2.51254 1.05757,-1.8632 c 3.68116,-6.45242 3.80817,-15.06692 0.27064,-20.8527 -1.52419,-2.49293 -2.39972,-3.83026 -6.26661,-6.4738 -3.86694,-2.64354 -10.74075,-6.63397 -24.42145,-14.53628 l -25.23803,-14.5712 -0.30015,-0.17328 z m 0.34821,0.78312 24.9379,14.39791 c 13.68073,7.90213 20.57098,11.88734 24.40206,14.5069 3.83135,2.61922 4.59011,3.83987 6.11289,6.33046 3.41787,5.59015 3.30523,14.04897 -0.28203,20.33683 l -1.18358,2.08146 -0.12596,0.21829 0.21826,0.12596 4.57014,2.63856 4.57014,2.63856 0.0682,0.0393 0.0782,-0.009 5.98704,-0.5087 c 3.29496,-0.28364 6.75377,-0.56057 7.64437,-0.60685 l 1.18239,-0.0632 -12.85201,22.22889 -12.77901,22.07099 -0.74306,-3.37575 c -0.48665,-2.19573 -1.55485,-7.46552 -2.37465,-11.70266 l -1.49948,-7.70503 -0.021,-0.12117 -0.0954,-0.0551 -3.12679,-1.64147 -3.11882,-1.65521 -0.21251,-0.10453 -0.12379,0.18313 -2.54545,3.84173 c -3.16487,4.75939 -6.94285,7.8284 -11.07247,9.1594 -4.12955,1.33106 -8.6228,0.92105 -13.26694,-1.31152 l -3.38862,-1.62899 -0.2125,-0.10453 -0.11809,0.20463 -0.85064,1.47336 -0.84277,1.45972 -0.12596,0.21827 0.21829,0.12611 20.72248,11.96412 20.38142,11.76721 -4.88954,3.27053 -5.19921,3.49191 -0.0588,0.0388 -0.0316,0.0545 -14.35492,24.92635 -14.24251,24.7002 -21.12442,-12.08705 C 261.3843,755.24832 257.22229,752.70438 255.60886,751.09586 l -0.006,-0.0215 -0.0273,-0.0157 c -6.88851,-6.88822 -8.41415,-14.27229 -4.74933,-22.93251 l 1.65068,-3.8672 0.083,-0.20674 -0.19097,-0.11022 -12.35983,-7.13596 c -3.39636,-1.96088 -6.45516,-3.78635 -8.65437,-5.14206 -1.09958,-0.67791 -1.98584,-1.2357 -2.58361,-1.63707 -0.2989,-0.20071 -0.52733,-0.36641 -0.67,-0.47779 -0.005,-0.005 -0.008,-0.003 -0.0137,-0.007 0.0732,-0.0643 0.16133,-0.13859 0.28242,-0.23711 0.27495,-0.22342 0.65504,-0.51908 1.12544,-0.87814 0.94071,-0.71818 2.21651,-1.66375 3.58941,-2.65695 l 5.00246,-3.62368 0.0373,-0.033 0.0236,-0.0409 10.40461,-18.0213 c 4.5206,-7.82991 7.12177,-12.39474 8.58055,-15.1455 1.45882,-2.75076 1.80872,-3.70646 1.74689,-4.41193 -0.0401,-0.45769 -0.29404,-1.23566 -0.67783,-2.22851 -0.38384,-0.99284 -0.8989,-2.16687 -1.44687,-3.29094 -0.54387,-1.11557 -1.03478,-2.14804 -1.37824,-2.90572 -0.17172,-0.37883 -0.30151,-0.68129 -0.39068,-0.89857 -0.0183,-0.0449 -0.0154,-0.0712 -0.0289,-0.10762 0.0434,-0.007 0.0669,-0.0123 0.12118,-0.021 0.25635,-0.0407 0.62591,-0.0825 1.08114,-0.13983 0.91041,-0.11469 2.16177,-0.26508 3.52464,-0.40243 1.37085,-0.13813 2.71779,-0.31555 3.78501,-0.50679 0.53355,-0.0956 0.99882,-0.19195 1.36509,-0.28504 0.3663,-0.0931 0.61753,-0.17005 0.8004,-0.28367 0.0897,-0.0555 0.13182,-0.10947 0.20211,-0.19254 0.0707,-0.0829 0.16362,-0.19164 0.25935,-0.32318 0.19148,-0.26308 0.43512,-0.62463 0.73557,-1.08503 0.60084,-0.92092 1.4182,-2.2269 2.4127,-3.86384 1.9891,-3.27383 4.68769,-7.86728 7.83581,-13.31997 l 10.48337,-18.15773 0.0315,-0.0545 -0.003,-0.0566 0.34288,-5.47718 c 0.09,-1.50329 0.18757,-2.99629 0.29419,-4.19567 0.10653,-1.19937 0.23139,-2.12747 0.29203,-2.3961 l 0.18341,-0.82179 z m 10.94717,8.44853 c -6.25877,-3.57006 -9.14503,-5.07985 -9.2632,-4.87518 -0.14831,0.25678 -0.38759,2.48615 -0.53004,4.95078 l -0.26227,4.48691 -11.20012,19.39918 -11.208,19.41283 -2.74536,0.47038 c -1.51234,0.26307 -3.58597,0.61196 -4.61269,0.7747 l -1.86732,0.30431 1.28542,2.68841 c 0.70663,1.48341 1.43533,3.44972 1.62179,4.37418 l 0.33637,1.68575 -10.99746,19.07963 -10.99748,19.07963 -3.46549,2.47383 c -1.90503,1.35888 -3.56472,2.64568 -3.68604,2.85581 -0.12131,0.21012 5.15514,3.48563 11.73001,7.28164 l 11.96419,6.90752 -2.2664,4.36664 c -1.69295,3.25766 -2.35176,5.09033 -2.5859,7.21985 -0.58781,5.34478 2.43005,11.954 7.299,15.96456 1.12384,0.92568 10.8277,6.77781 21.55605,13.00923 l 19.50407,11.3335 14.18523,-24.56958 14.18525,-24.56955 3.67803,-2.36933 3.66437,-2.3772 -16.68649,-9.59764 -16.69225,-9.6191 2.37049,8.24425 2.3705,8.24426 -7.60066,13.16471 -7.59277,13.15107 -8.48543,-4.89907 c -5.15797,-2.97796 -8.49545,-5.13498 -8.50624,-5.49316 -0.009,-0.32407 3.3586,-6.39851 7.48686,-13.50323 8.59081,-14.78506 7.94956,-14.11171 13.95324,-14.59011 1.85793,-0.148 3.44911,-0.39758 3.54097,-0.55671 0.0919,-0.15917 -0.57712,-1.35899 -1.48482,-2.65806 -2.99397,-4.28481 -3.02507,-4.65309 -0.79445,-8.51664 l 1.95333,-3.38326 3.89549,1.88525 c 8.22479,4.00499 14.87983,2.89544 20.57415,-3.43712 1.30066,-1.44635 3.20575,-4.04986 4.21493,-5.78819 l 1.82731,-3.165 4.50192,2.59919 4.51556,2.60706 1.83278,9.20711 c 1.00896,5.06441 1.9158,9.25501 2.01013,9.30947 0.0944,0.0544 4.87062,-8.05806 10.62348,-18.02231 6.72529,-11.64856 10.31435,-18.20076 10.03684,-18.36098 -0.23741,-0.13706 -2.77344,-0.0296 -5.6322,0.24066 l -5.19564,0.49269 -5.86615,-3.38682 -5.85248,-3.37894 1.71985,-3.60899 c 3.0285,-6.32385 3.49147,-12.02966 1.38517,-17.0806 -2.17847,-5.22411 -2.01022,-5.09563 -28.70813,-20.72188 -6.32378,-3.70123 -11.28203,-6.59433 -15.03736,-8.73631 z m -6.24485,0.92375 22.09762,12.92184 c 21.84447,12.77585 22.10804,12.94877 23.33922,14.93006 1.72869,2.78181 2.55152,7.41193 1.86959,10.59257 -0.40482,1.8882 -1.46913,4.2145 -3.60105,7.90701 -2.41628,4.1851 -3.30882,6.25557 -3.1987,8.37575 l 0.61288,1.89997 c 0.61036,1.89018 0.70832,2.44936 0.41176,2.31134 0.12826,0.65297 -0.1013,0.71503 -0.81787,0.69194 -0.005,-6.3e-4 -0.009,-0.007 -0.0139,-0.007 -6.3e-4,0.002 -0.006,0.0108 -0.007,0.0139 -0.0245,0.0424 -0.25313,0.13629 -0.68915,0.3115 -0.74261,0.29844 -1.20324,0.39385 -1.30054,0.26776 -0.50261,0.21313 -1.02653,0.46205 -1.51952,0.74158 -2.28313,1.29444 -2.61543,1.70014 -6.5284,7.99948 -3.67415,5.9149 -4.16995,6.608 -6.47174,7.99581 -2.3018,1.38779 -4.01194,1.90871 -5.99747,1.97604 -2.54386,0.0862 -3.30365,-0.14076 -7.00903,-2.10039 l -2.67442,-1.41679 -1.61076,-1.14824 c 0.0604,-0.38147 1.67813,-3.28258 3.59853,-6.4533 2.57354,-4.24906 3.65824,-5.70836 4.11618,-5.55418 0.34176,0.11501 0.36299,0.19176 0.0461,0.17206 -0.0828,-0.005 -0.24262,0.13166 -0.45304,0.37508 0.32489,-0.26704 0.57278,-0.27926 0.90167,-0.207 0.56081,0.12317 1.70609,-0.0459 2.5496,-0.38333 0.4407,-0.17639 0.7969,-0.35581 1.21881,-0.78785 -0.003,-0.005 0.006,-0.0109 0.007,-0.0139 -0.009,-0.12087 0.0771,-0.34915 0.24896,-0.62023 0.27911,-0.43995 0.4255,-0.50018 0.41518,-0.21503 0.94351,-1.28387 2.35786,-3.67129 5.2182,-8.62861 2.4569,-4.25546 4.03862,-7.11382 5.01372,-9.21958 -0.12149,-0.0431 -0.0495,-0.32936 0.19071,-0.70841 0.12103,-0.1912 0.20321,-0.29463 0.27516,-0.35047 0.6915,-1.68002 0.90711,-2.83118 0.83409,-3.90211 -0.0186,-0.007 -0.0334,-0.0191 -0.0546,-0.0314 -0.0828,-0.0478 -0.26968,-0.74503 -0.41513,-1.54934 l -0.26511,-1.4627 0.22966,0.6419 -0.2537,-0.9468 -11.81414,-6.8209 -11.82776,-6.82876 -8.06535,13.96959 -8.06534,13.96958 6.01943,3.18432 -3.59478,6.51001 -3.59479,6.51003 -3.13137,-1.91702 -2.90525,-1.80464 -11.32614,19.61747 c -9.63073,16.68091 -11.51689,20.19112 -11.72674,21.82357 -0.13753,1.06993 -0.29309,2.01989 -0.34548,2.11062 -0.0185,0.0322 -0.56323,-0.25007 -1.30233,-0.64278 0.88105,0.58096 1.3808,0.95599 1.29487,1.00226 -0.21518,0.11594 -3.8184,-1.76799 -8.006,-4.18571 -4.1876,-2.41771 -7.52728,-4.54235 -7.42332,-4.72241 0.0461,-0.0799 0.8522,0.29512 2.02807,0.89807 -0.83554,-0.53295 -1.42326,-0.93743 -1.3946,-0.98707 0.0738,-0.12781 0.83668,-0.76868 1.6945,-1.4227 1.30929,-0.99831 3.41136,-4.39636 13.09941,-21.1766 l 11.53881,-19.98579 -0.47389,-3.27488 -0.0363,-0.22098 c -0.0405,0.34397 -0.27366,-0.1993 -0.60824,-1.62444 -0.21702,-0.92437 -0.26012,-1.70449 -0.10761,-1.73555 0.0947,-0.0193 0.22122,0.31017 0.34821,0.78312 l -0.0701,-0.47706 2.88407,-0.89963 2.89191,-0.91328 11.73572,-20.32683 c 11.31146,-19.59201 11.73623,-20.39529 11.84926,-22.57137 l 0.12149,-2.25816 z m 7.96346,25.58846 9.48709,5.49553 c 9.37578,5.422 12.92502,8.09278 7.55578,5.69017 -3.60882,-1.61486 -9.99344,-2.00002 -13.46655,-0.80831 -1.4685,0.50379 -4.0241,1.83483 -5.67557,2.96224 -2.56004,1.74765 -3.36714,2.6331 -5.48394,6.00137 -2.36373,3.76121 -2.53406,3.92109 -3.46369,3.38436 -0.53708,-0.31008 -1.03569,-0.76654 -1.10332,-1.01898 -0.0677,-0.25251 2.6414,-5.23666 6.01456,-11.07914 l 6.13566,-10.62727 z m 55.48018,33.48667 -6.38101,11.30413 c -3.5432,6.26683 -6.56405,11.19845 -6.77658,11.07576 -0.21068,-0.12163 -0.45419,-0.72062 -0.54117,-1.33106 -0.14292,-1.00347 -0.10822,-1.01363 0.26609,-0.0828 0.034,0.0848 0.0548,0.16173 0.0928,0.21736 -0.13906,-0.59246 -0.32934,-1.5722 -0.54648,-2.77111 -0.17126,0.0789 -0.35179,-0.41975 -0.56153,-1.5793 l -0.26509,-1.46268 0.50178,1.39926 c 0.0385,0.107 0.0541,0.18483 0.0886,0.28762 -0.0123,-0.0694 -0.0186,-0.12919 -0.0304,-0.19941 l -0.81083,-4.83363 -5.40229,-3.11901 c -2.96894,-1.71412 -5.3324,-3.24013 -5.24479,-3.39188 0.40474,-0.70103 3.61662,-2.05344 5.33632,-2.24863 1.0496,-0.11916 2.02205,-0.41474 2.15608,-0.64688 0.13398,-0.23216 -0.19319,-1.93377 -0.72564,-3.78401 -0.68939,-2.39582 -0.77417,-3.69996 -0.29243,-4.53436 l 0.67738,-1.17322 6.48004,3.74125 6.49367,3.74912 2.5569,-0.26997 2.57053,-0.2621 -6.30107,10.91376 c -2.15142,3.72638 -3.99764,6.84952 -5.18568,8.79286 0.95533,-1.43454 2.52898,-4.06309 5.33421,-8.79806 l 6.51041,-10.99297 z m -54.39785,-30.82456 -0.12595,0.2183 -2.45741,4.25635 -2.44379,4.26423 -0.47257,0.81852 0.81882,-0.4731 2.52318,-1.47177 c 1.34867,-0.78373 3.86824,-1.76544 5.52732,-2.13835 l 0.66494,-0.14354 -0.0273,-0.0157 c 0.57367,-0.13692 1.17131,-0.27353 1.59025,-0.39152 0.29358,-0.0826 0.54586,-0.1542 0.72585,-0.21756 0.09,-0.0317 0.15532,-0.064 0.21736,-0.0928 0.0309,-0.0139 0.0643,-0.0176 0.094,-0.0367 0.0298,-0.0192 0.0605,-0.0419 0.10607,-0.12071 0.0714,-0.12363 0.0203,-0.22856 -0.005,-0.27555 -0.0252,-0.047 -0.0455,-0.0679 -0.0719,-0.0959 -0.0524,-0.0566 -0.11347,-0.10237 -0.19469,-0.16689 -0.16236,-0.12934 -0.39453,-0.29309 -0.68364,-0.48567 -0.5783,-0.38497 -1.38919,-0.89301 -2.29344,-1.41507 l -3.27411,-1.89032 -0.21827,-0.12595 z m 0.18451,0.6886 3.05584,1.76431 c 0.89657,0.51763 1.70924,1.0096 2.27399,1.38569 0.25388,0.16899 0.44057,0.2994 0.58237,0.40905 -0.16066,0.0554 -0.37038,0.11871 -0.63978,0.19448 -0.57468,0.16185 -1.34843,0.36313 -2.19278,0.55297 l -0.66496,0.14352 0.0819,0.0472 c -1.68532,0.44803 -3.80986,1.24118 -5.09482,1.98787 l -1.70436,0.99867 1.97122,-3.4457 2.33139,-4.03809 z m 16.91961,12.53336 -3.47345,6.01621 -1.97697,3.42418 c -1.09667,2.03701 -2.11101,3.32715 -2.60139,3.24557 -0.56127,-0.0407 -0.83986,-0.0784 -0.86116,-0.11518 l -0.44402,0.10746 -2.41007,0.64578 -7.97084,13.8059 c -8.77417,15.1973 -8.99954,15.75879 -7.6908,19.36989 l 0.67167,1.86112 c 0.23315,-0.10683 0.41996,-0.111 0.45708,0.0275 0.0568,0.21202 -0.2858,0.49515 -0.75693,0.61798 -0.63138,0.16666 -0.67535,0.0848 -0.19986,-0.31546 l -1.59448,0.4618 c -0.37169,0.10608 -0.69999,0.21247 -1.02135,0.3198 1.00592,-0.14322 1.01197,-0.12071 0.0693,0.25825 -0.77354,0.31088 -1.23676,0.39621 -1.30628,0.24622 -2.42936,1.23804 -4.09193,3.93704 -10.29597,14.68262 -7.41137,12.83689 -7.96122,14.12287 -7.30481,16.93703 0.34739,1.48921 0.5252,1.61287 10.97419,7.6456 l 10.61361,6.12777 8.87661,-15.37475 7.89994,-13.68309 -7.94601,13.51099 -8.93643,15.19468 8.73389,-15.34801 8.72027,-15.35584 -1.21506,-4.44859 c -0.66763,-2.44784 -1.12613,-4.60258 -1.01816,-4.7896 0.10792,-0.18701 4.83942,2.39278 10.50983,5.74044 l 10.3051,6.09509 -10.30258,-5.7844 -9.17595,-5.15231 8.96293,5.17473 10.12249,5.84423 -1.50181,1.15197 c -1.25136,0.95409 -3.77975,5.06599 -14.88155,24.29487 l -13.36611,23.15081 -19.07548,-11.06771 c -18.1188,-10.50451 -19.18567,-11.16959 -21.15548,-13.451 -1.44745,-1.67645 -2.33973,-3.39561 -2.94859,-5.66769 -1.41285,-5.27294 -1.14033,-5.96413 9.71562,-24.76729 8.74865,-15.15312 9.29657,-16.21468 9.4034,-18.27197 0.0194,-0.37387 0.003,-0.79342 -0.0259,-1.21544 -0.016,-0.006 -0.0231,-0.0139 -0.0409,-0.0236 -0.0784,-0.0452 -0.30656,-0.8973 -0.5074,-1.89361 l -0.33484,-1.59394 -0.15835,-0.41883 c -0.31843,0.0597 -0.55647,0.0971 -0.60403,0.0695 -0.1201,-0.0693 0.83752,-0.43319 2.13722,-0.8033 1.13725,-0.32382 2.16928,-0.55762 2.48979,-0.56336 0.4273,-0.20975 0.84003,-0.43284 1.17524,-0.64931 1.63784,-1.0575 2.41712,-2.26474 10.71695,-16.64048 8.54669,-14.80331 9.05189,-15.58056 11.33805,-17.46422 4.68741,-3.86213 12.0007,-4.83266 17.05977,-2.26479 l 2.15022,1.096 z m 14.37564,13.41105 c 0.0583,0.77194 0.23808,1.5711 0.53607,2.47406 -0.0548,-0.23389 -0.1016,-0.41359 -0.15723,-0.67284 l -0.37884,-1.80122 z m -56.00201,11.30401 1.30965,0.75613 1.30965,0.75613 -1.54378,2.67387 c -1.51511,2.62426 -4.41878,4.94291 -5.45505,4.34461 -0.22059,-0.12735 0.66821,-2.10254 1.98512,-4.38351 l 2.39441,-4.14723 z m 23.27179,28.7516 -0.2131,0.0225 -3.99752,0.40226 c -1.63994,0.16229 -2.81378,0.22171 -3.80227,0.44223 -0.98852,0.22056 -1.7921,0.61684 -2.60503,1.42453 -1.6258,1.61536 -3.3563,4.81791 -7.35982,11.73942 l -7.00779,12.10642 -0.12596,0.21827 0.2183,0.12595 6.7665,3.90665 6.76653,3.90666 0.21827,0.12597 0.12596,-0.21829 6.87601,-11.90962 0.12596,-0.21827 6.75002,-11.69134 0.0471,-0.0819 -0.0289,-0.10761 -1.35918,-4.98651 -1.35133,-5.00017 -0.0441,-0.20736 z m -27.77042,-15.41481 0.37014,1.12319 c 0.0375,0.11099 0.0635,0.17317 0.0965,0.27397 -0.065,-0.28804 -0.13398,-0.55731 -0.21546,-0.76104 l -0.25117,-0.63612 z m 27.38508,15.95624 1.30732,4.79285 1.32249,4.89257 -6.82091,11.81414 -0.12596,0.21826 -6.62397,11.47308 -6.54824,-3.78064 -6.54824,-3.78063 6.88177,-11.88813 c 4.00528,-6.92503 5.76985,-10.13459 7.28315,-11.63816 0.75669,-0.75176 1.42809,-1.09286 2.35046,-1.29865 0.9224,-0.20577 2.08636,-0.26149 3.73774,-0.42494 l 3.78442,-0.37976 z m -30.60622,-14.37821 c 0.26717,0.16672 0.3222,0.94462 0.32835,2.17223 0.007,1.60183 -0.66921,2.94521 -7.00308,13.67343 l -7.02248,11.87963 0.57166,-3.76262 c 0.56426,-3.726 0.61529,-3.83818 6.56552,-14.14429 4.35671,-7.54604 5.97191,-10.18487 6.55995,-9.81841 z m 12.87827,17.07574 c 0.003,-0.005 0.0123,0.0108 0.0139,0.007 -0.0423,0.1107 -0.29754,0.59892 -0.78815,1.49123 -1.96283,3.569 -5.36553,9.46235 -7.56126,13.09651 -2.19561,3.63424 -0.59307,0.71259 3.56546,-6.4906 2.85891,-4.9522 4.59813,-7.90284 4.77038,-8.10499 z m -28.8981,26.77058 0.50179,1.39927 c 0.47188,1.31445 0.52776,1.81445 0.17843,1.61276 -0.0829,-0.048 -0.26967,-0.74505 -0.41513,-1.54934 l -0.26509,-1.46269 z m 25.65039,21.57577 c 3.40236,1.96441 6.76329,3.93097 9.28609,5.43414 1.26132,0.75156 1.9397,1.1724 2.08299,1.27544 -0.38137,-0.16804 -4.62746,-2.58071 -11.67618,-6.65029 -6.92341,-3.99731 -11.03755,-6.41294 -11.42003,-6.68432 0.19399,0.0919 0.92181,0.48272 2.24156,1.22134 2.63934,1.47736 6.08318,3.43932 9.48557,5.40369 z"
       id="path3224"
       inkscape:connector-curvature="0" />
    <rect
       width="175.467"
       height="224"
       x="54.976116"
       y="619.7193"
       id="rect3945"
       style="fill:#ffffff;fill-opacity:1;stroke:none" />
    <path
       d="m 141.02211,633.34433 c -17.41216,0.038 -39.94235,11.23975 -47.749996,24.5625 -3.8337,6.54172 -4.57465,10.00704 -4.625,23.3125 -0.0019,0.0613 0.0017,0.12652 0,0.1875 -0.0016,0.47631 0,0.87279 0,1.375 -0.0012,0.25732 -0.0025,0.53201 0,0.78125 -0.04586,9.01026 -0.84624,16.72726 -1.84375,17.34375 -5.10187,3.15313 0.86476,29.55387 7.875,34.84375 4.03507,3.04483 4.25,4.46098 4.25,26.625 0,27.72946 0.92613,26.20249 -25.3125,40.96875 l -17.625,9.9375 -0.53125,15.21875 -0.5625,15.21875 87.812496,0 87.8125,0 0,-17.71875 c 0,-12.39471 -0.67711,-17.75 -2.21875,-17.75 -3.96994,0 -40.2042,-18.69413 -45.1875,-23.3125 -3.21121,-2.97605 -4.36269,-5.05748 -4.71875,-10 0.0617,-2.1249 0.20095,-4.66825 0.40625,-8 0.25453,-4.13058 0.67724,-8.17466 1.21875,-12 1.67981,-7.55482 4.53635,-15.64904 8.5625,-24.15625 4.99346,-10.55114 8.2767,-32.65625 4.84375,-32.65625 -1.31625,0 -2.12775,-4.0473 -2.15625,-10.75 -0.0611,-14.37545 -2.89799,-26.07336 -8.375,-34.40625 -5.24482,-7.97964 -22.88683,-17.25744 -36.65625,-19.28125 -1.66968,-0.24541 -3.41749,-0.34767 -5.21875,-0.34375 z"
       id="path3147"
       style="fill:#e6e6e6;fill-opacity:1" />
    <text
       x="236.76273"
       y="651.29724"
       id="text3866"
       xml:space="preserve"
       style="font-size:24.36917496px;font-style:normal;font-variant:normal;font-weight:normal;font-stretch:normal;text-align:start;line-height:125%;letter-spacing:0px;word-spacing:0px;writing-mode:lr-tb;text-anchor:start;fill:#d40000;fill-opacity:1;stroke:none;font-family:Colaborate-Medium;-inkscape-font-specification:Colaborate-Medium"><tspan
         x="236.76273"
         y="651.29724"
         id="identity-name"
         style="font-size:18px;fill:#d40000"><%- identity.name %></tspan></text>
    <text
       x="234.52077"
       y="670.90521"
       id="text4116"
       xml:space="preserve"
       style="font-size:24.36917496px;font-style:normal;font-variant:normal;font-weight:normal;font-stretch:normal;text-align:start;line-height:125%;letter-spacing:0px;word-spacing:0px;writing-mode:lr-tb;text-anchor:start;fill:#d40000;fill-opacity:1;stroke:none;font-family:Colaborate-Medium;-inkscape-font-specification:Colaborate-Medium"><tspan
         x="234.52077"
         y="670.90521"
         id="identity-birthdate"
         style="font-size:14px;fill:#d40000"><%- ViewHelpers.birthdateFormatted(identity.birthdate) %></tspan></text>
    <text
       x="237.02069"
       y="687.06323"
       id="text4181"
       xml:space="preserve"
       style="font-size:17.38525772px;font-style:normal;font-variant:normal;font-weight:normal;font-stretch:normal;text-align:start;line-height:125%;letter-spacing:0px;word-spacing:0px;writing-mode:lr-tb;text-anchor:start;fill:#d40000;fill-opacity:1;stroke:none;font-family:Colaborate-Medium;-inkscape-font-specification:Colaborate-Medium"><tspan
         x="237.02069"
         y="687.06323"
         id="tspan4183"
         style="font-size:12px;fill:#d40000"><%- identity.external_id %></tspan></text>
    <path
       inkscape:connector-curvature="0"
       id="path3226"
       d="m 16.085758,817.93185 0.0832,-0.0277 0.285256,-0.0872 c 0.09075,-0.0282 0.294492,-0.11739 0.570512,-0.24565 0.27602,-0.12825 0.618943,-0.29357 0.958783,-0.46354 l 1.216306,-0.61013 5.261411,0 c 1.58289,0 2.921009,0.0102 3.882668,0.0317 0.480826,0.0108 0.867343,0.0247 1.141029,0.0396 0.136841,0.007 0.247276,0.0155 0.324877,0.0238 0.0388,0.004 0.06915,0.008 0.09112,0.0118 0.02199,0.004 0.03785,0.0112 0.03172,0.008 0.01551,0.008 0.06766,0.0502 0.130741,0.11489 0.06308,0.0648 0.139234,0.15491 0.22583,0.25753 0.173189,0.20523 0.381767,0.47013 0.582397,0.74879 0.201812,0.28029 0.390484,0.53595 0.530896,0.72108 0.07021,0.0926 0.127675,0.16919 0.170362,0.22186 0.02133,0.0263 0.04164,0.0442 0.05547,0.0594 0.0069,0.008 0.0093,0.0139 0.01586,0.0198 0.0031,0.003 0.0064,0.008 0.01187,0.0119 0.0054,0.004 0.01086,0.0119 0.03963,0.0119 0.02667,-2e-5 0.03397,-0.008 0.03962,-0.0119 0.0056,-0.004 0.0087,-0.009 0.01187,-0.0119 0.0064,-0.006 0.0095,-0.009 0.01586,-0.0159 0.01268,-0.0144 0.02862,-0.035 0.04754,-0.0594 0.03784,-0.0489 0.08912,-0.12026 0.150551,-0.20602 0.122862,-0.17153 0.288393,-0.40605 0.463544,-0.6656 0.173817,-0.25758 0.361585,-0.5159 0.526933,-0.72107 0.165344,-0.20517 0.315021,-0.36113 0.376382,-0.40411 0.100516,-0.0704 0.335121,-0.12254 1.113293,-0.15055 0.77818,-0.028 2.096306,-0.0357 4.369988,-0.0357 l 5.221794,0 1.402513,0.62598 c 0.38984,0.17453 0.753942,0.33645 1.030097,0.45166 0.138078,0.0576 0.255377,0.10212 0.340724,0.1347 0.04267,0.0163 0.07574,0.0306 0.10301,0.0396 0.01365,0.005 0.02524,0.009 0.03567,0.0118 0.01043,0.003 0.01888,0.004 0.03568,0.004 0.01958,0 0.03486,-0.008 0.04358,-0.0159 0.0087,-0.008 0.01275,-0.0143 0.01586,-0.0198 0.0062,-0.0111 0.0094,-0.0189 0.01187,-0.0277 0.005,-0.0177 0.0083,-0.0379 0.01186,-0.0634 0.0071,-0.051 0.01357,-0.12602 0.01981,-0.21791 0.01248,-0.18378 0.0223,-0.4469 0.03168,-0.77257 0.01881,-0.65134 0.03168,-1.54828 0.03168,-2.53562 l 0,-3.53402 0.994436,-0.12282 c 2.390069,-0.29613 3.866894,-1.61143 4.508652,-4.02133 l 0,-0.008 c 0.156632,-0.59525 0.18208,-1.81939 0.162436,-6.88975 l -0.02377,-6.18454 0,-0.0634 -0.06339,0 -7.23444,0.004 -7.214633,0.008 -1.410438,-0.68938 -1.41836,-0.6973 -0.09111,-0.0436 0,0.10301 0,6.01813 0,5.95475 -0.360534,0 -0.368456,0 -0.06735,-0.88747 c -0.09971,-1.31838 -0.591564,-2.38268 -1.426285,-3.13783 -0.834726,-0.75516 -2.00674,-1.1994 -3.462707,-1.29158 l -1.101409,-0.0673 -0.02772,-0.832 -0.03568,-0.85577 1.469868,-1.27574 c 0.820546,-0.71203 1.834629,-1.6083 2.254326,-1.99284 l 0.760685,-0.69333 0.118856,-0.11093 -0.162436,0 -6.576764,-0.008 -6.572802,-0.004 -0.118857,0 0.06339,0.0991 0.22583,0.34865 c 0.126728,0.19534 0.616984,0.9062 1.093483,1.58872 l 0.855772,1.22422 0,1.30744 0,1.26384 -0.538817,0.004 c -1.868333,0.01 -3.760647,1.06525 -4.576005,2.56336 -0.351313,0.64547 -0.532501,1.00435 -0.622017,2.17904 -0.08952,1.1747 -0.09427,3.17371 -0.09509,7.14728 l 0,7.32952 0,0.0872 z m 0.126783,-0.17431 0,-7.24237 c 7.77e-4,-3.97354 0.0023,-5.97548 0.09112,-7.13936 0.08869,-1.16388 0.259145,-1.48266 0.610133,-2.12754 0.787788,-1.44743 2.644387,-2.48663 4.465069,-2.496 l 0.602207,-0.004 0.06339,0 0,-0.0634 0,-1.32724 0,-1.32724 0,-0.0198 -0.01187,-0.0159 -0.863694,-1.24008 c -0.47613,-0.68209 -0.971407,-1.40062 -1.093486,-1.58879 l -0.162441,-0.2496 6.457908,0.004 6.414328,0.008 -0.641832,0.58637 c -0.41706,0.38212 -1.43055,1.27748 -2.250358,1.98888 l -1.489679,1.29554 -0.02377,0.0198 0,0.0277 0.03568,0.88747 0.03168,0.88747 0.0039,0.0594 0.05546,0.004 1.156876,0.0713 c 1.434645,0.0908 2.578206,0.52778 3.387432,1.25988 0.809224,0.73209 1.284967,1.76233 1.382703,3.05463 l 0.07131,0.94294 0.0039,0.0594 0.05943,0 0.427887,0 0.423923,0 0.06339,0 0,-0.0634 0,-6.01813 0,-5.91909 1.327238,0.65371 1.414401,0.69333 0.01586,0.008 0.01586,0 7.234444,-0.008 7.171049,-0.004 0.02377,6.12114 c 0.0197,5.08583 -0.01101,6.31227 -0.158478,6.86598 l -0.004,0.004 0,0.008 c -0.634068,2.36664 -2.050551,3.62752 -4.397716,3.91833 l -1.049903,0.12679 -0.05547,0.008 0,0.0555 0,3.58949 c 0,0.98636 -0.01295,1.88216 -0.03168,2.53166 -0.0094,0.32474 -0.01942,0.58793 -0.03168,0.76861 -0.0062,0.0903 -0.01349,0.16093 -0.01981,0.20602 -2.52e-4,0.002 2.56e-4,0.003 0,0.004 -0.02322,-0.008 -0.05049,-0.0177 -0.08716,-0.0317 -0.08324,-0.0318 -0.195438,-0.0774 -0.332799,-0.13471 -0.274725,-0.11458 -0.641118,-0.27356 -1.030097,-0.44769 l -1.41836,-0.63391 -0.01187,-0.004 -0.01187,0 -5.233675,0 c -2.273926,0 -3.595309,0.008 -4.377906,0.0357 -0.7826,0.0282 -1.034762,0.0721 -1.180649,0.17433 -0.09465,0.0663 -0.232165,0.21943 -0.400155,0.42788 -0.167985,0.20846 -0.358928,0.46828 -0.534854,0.72899 -0.174597,0.25875 -0.337743,0.49551 -0.459581,0.6656 -0.06092,0.0851 -0.110482,0.15135 -0.146593,0.1981 -0.0075,0.01 -0.01365,0.0122 -0.01981,0.0198 -0.0071,-0.008 -0.01109,-0.013 -0.01981,-0.0238 -0.04111,-0.0507 -0.09667,-0.12596 -0.166403,-0.2179 -0.139466,-0.18389 -0.329592,-0.43753 -0.530892,-0.71711 -0.202484,-0.28121 -0.410504,-0.55228 -0.586364,-0.76068 -0.08793,-0.10419 -0.167415,-0.19342 -0.233752,-0.26149 -0.06634,-0.0681 -0.114696,-0.11312 -0.16244,-0.13867 -0.02338,-0.0126 -0.04041,-0.0149 -0.06735,-0.0198 -0.02695,-0.005 -0.06232,-0.0115 -0.10301,-0.0159 -0.08138,-0.009 -0.190765,-0.0163 -0.328835,-0.0238 -0.27614,-0.015 -0.663387,-0.0288 -1.144992,-0.0396 -0.963214,-0.0216 -2.303085,-0.0317 -3.88663,-0.0317 l -5.273296,0 -0.01586,0 -0.01186,0.008 -1.236117,0.6141 c -0.338754,0.16943 -0.676213,0.33593 -0.950857,0.46354 -0.274639,0.12761 -0.492489,0.21713 -0.558628,0.23771 l -0.202056,0.0634 z m 0.463544,-3.44686 c 0.0095,1.81218 0.04357,2.6307 0.103009,2.6307 0.07457,0 0.590249,-0.22822 1.144992,-0.50713 l 1.010283,-0.50712 5.63383,0 5.637796,0 0.447692,0.53882 c 0.247483,0.29632 0.584247,0.70411 0.748801,0.90727 l 0.301107,0.36847 0.423924,-0.61807 c 0.23424,-0.34045 0.570888,-0.74644 0.7488,-0.9033 l 0.324877,-0.28526 5.538741,-0.004 5.538745,-0.004 0.97463,0.44373 c 0.535541,0.24405 1.024541,0.44373 1.085562,0.44373 0.06103,0 0.110935,-1.56118 0.110935,-3.47063 l 0,-3.47459 1.236113,-0.0555 c 0.92245,-0.0409 1.404478,-0.12788 1.897755,-0.34468 1.238078,-0.54409 2.298137,-2.03255 2.559392,-3.59741 0.0603,-0.3612 0.114665,-3.21074 0.122816,-6.33112 l 0.01586,-5.67345 -7.135393,0 -7.135392,0 -0.978588,-0.50317 -0.978593,-0.4992 0.0079,4.84145 0.0039,4.84542 1.497601,-1.55307 1.4976,-1.55307 3.823241,0 3.819274,0 0,2.4643 c 0,1.49796 -0.05012,2.49615 -0.126779,2.54355 -0.06937,0.0429 -1.816032,0.0731 -3.882667,0.0674 -4.30069,-0.0119 -4.073387,0.0431 -4.932576,-1.20442 -0.265888,-0.38606 -0.520333,-0.70126 -0.566549,-0.70126 -0.04622,0 -0.223422,0.29661 -0.392229,0.65768 -0.556783,1.19095 -0.633088,1.24404 -1.755125,1.24404 l -0.982555,0 -0.07924,-1.08556 c -0.161967,-2.29511 -1.240533,-3.60512 -3.335924,-4.04907 -0.478596,-0.10142 -1.285245,-0.18897 -1.790782,-0.19017 l -0.919162,0 0,-1.30743 0,-1.31139 1.774934,-1.55703 c 0.976212,-0.85664 1.774935,-1.58114 1.774935,-1.60853 0,-0.0274 -2.367638,-0.0475 -5.261414,-0.0475 -3.382924,0 -5.261411,0.0422 -5.261411,0.12282 0,0.0689 0.342309,0.60781 0.760688,1.1965 l 0.760685,1.06971 0,1.70362 0,1.69965 -1.002362,0.0793 c -1.758254,0.1356 -3.059268,0.75229 -3.894548,1.84624 -0.86392,1.13145 -0.857095,1.07864 -0.903315,8.85883 -0.01094,1.84283 -0.01757,3.28661 -0.01187,4.37394 z m 0.986514,1.24403 0.03567,-6.43809 c 0.03571,-6.3646 0.04023,-6.44376 0.316951,-6.96107 0.388522,-0.72635 1.293543,-1.48783 2.072079,-1.73928 0.462179,-0.14927 1.10272,-0.20999 2.175086,-0.20998 1.215422,0 1.778638,-0.066 2.22659,-0.35657 l 0.336761,-0.37242 c 0.33495,-0.37064 0.444428,-0.46229 0.451659,-0.38034 0.126085,-0.11007 0.168486,-0.0679 0.253562,0.0911 3.88e-4,0.001 -3.88e-4,0.003 0,0.004 3.88e-4,0 0.0031,-2e-5 0.0039,0 0.01229,0 0.06151,0.038 0.154515,0.11093 0.158388,0.12422 0.237097,0.21255 0.221867,0.2496 0.109628,0.0827 0.229726,0.16548 0.352608,0.23771 0.569059,0.33451 0.699215,0.35587 2.563355,0.416 1.750375,0.0565 1.963688,0.0773 2.55543,0.40411 0.591737,0.32685 0.920259,0.63382 1.184608,1.05784 0.33868,0.54324 0.384803,0.73727 0.423924,1.79077 l 0.02772,0.76069 -0.04754,0.49524 c -0.09068,0.0348 -0.926013,0.0473 -1.858134,0.0277 -1.249125,-0.0262 -1.703387,-0.079 -1.727393,-0.19809 -0.01791,-0.0889 -0.0039,-0.10318 0.03168,-0.0317 0.0093,0.0187 0.05917,0.0363 0.138667,0.0515 -0.09902,-0.0372 -0.132855,-0.0896 -0.158477,-0.17036 -0.04368,-0.13766 -0.224507,-0.36586 -0.404113,-0.50713 -0.09384,-0.0738 -0.177718,-0.12884 -0.324877,-0.1664 -7.77e-4,10e-4 -0.0031,0 -0.0039,0 -0.02505,0.0173 -0.08575,0.0271 -0.166399,0.0238 -0.130928,-0.005 -0.162456,-0.0298 -0.09905,-0.0634 -0.398293,-0.044 -1.096163,-0.0519 -2.535623,-0.0515 -1.235854,0 -2.057345,0.0149 -2.63863,0.0673 0.0059,0.0319 -0.06552,0.0522 -0.178283,0.0475 -0.05687,-0.003 -0.08973,-0.007 -0.110936,-0.0159 -0.452888,0.0607 -0.730742,0.15845 -0.954819,0.30903 7.77e-4,0.005 0,0.01 0,0.0159 0,0.024 -0.128365,0.15243 -0.285256,0.28526 l -0.285257,0.24168 0.110932,-0.13074 -0.174321,0.17432 0,3.43101 0,3.43498 4.056988,0 4.056993,0 -0.06339,-1.71155 1.870018,-0.0357 1.870019,-0.0357 -0.02377,0.92312 -0.02773,0.85974 5.697223,0 c 4.844401,0 5.846157,-0.0306 6.228115,-0.19018 0.250332,-0.1046 0.476812,-0.19016 0.503164,-0.19016 0.0093,0 0.01636,0.15412 0.02377,0.36449 0.01574,-0.26496 0.03459,-0.42097 0.05547,-0.40808 0.0523,0.0323 0.09509,1.05403 0.09509,2.27017 0,1.21615 -0.04279,2.21075 -0.09509,2.21075 -0.02319,0 -0.04288,-0.22273 -0.05942,-0.55467 -0.01101,0.24901 -0.02521,0.42789 -0.03962,0.42789 -0.03711,0 -0.272643,-0.0856 -0.522971,-0.19017 -0.382089,-0.15964 -1.386568,-0.19018 -6.259813,-0.19018 l -5.804192,0 -0.653716,0.51505 -0.04358,0.0357 c 0.08001,-0.0344 -0.009,0.0847 -0.277334,0.33676 -0.17405,0.1635 -0.338545,0.271 -0.364498,0.24167 -0.01609,-0.0182 0.03974,-0.0872 0.126783,-0.17432 l -0.09508,0.0753 -0.558632,-0.51505 -0.562591,-0.51505 -5.903238,0 c -5.689832,0 -5.918209,0.008 -6.406403,0.25753 l -0.507123,0.25752 z m 4.572037,-4.95238 0.004,-2.75749 c 0.0019,-2.72399 0.137334,-3.83291 0.289219,-2.3613 0.102087,0.98912 0.821085,2.42821 1.517411,3.03483 0.294403,0.2565 0.905691,0.64576 1.358933,0.86369 0.702595,0.33784 0.996952,0.40228 1.996802,0.43978 1.11648,0.0418 1.172723,0.0589 1.172723,0.32883 0,0.15598 -0.03672,0.32198 -0.0832,0.36846 -0.04649,0.0465 -1.472772,0.0832 -3.169525,0.0832 l -3.086325,0 z m 0.316955,-16.29532 3.264609,-0.0317 c 1.810562,-0.0163 3.264614,0.0215 3.264614,0.0832 0,0.0612 -0.09984,0.18955 -0.221867,0.28526 -0.200595,0.15733 -0.207171,0.15104 -0.05151,-0.0475 0.01419,-0.0181 0.02835,-0.0322 0.03568,-0.0475 -0.111563,0.10479 -0.301025,0.26945 -0.534859,0.46751 0.03874,0.0274 -0.04719,0.12941 -0.273371,0.32091 l -0.285257,0.24168 0.241677,-0.28525 c 0.01846,-0.0218 0.03346,-0.035 0.05151,-0.0555 -0.01365,0.0113 -0.02582,0.0203 -0.03962,0.0317 l -0.950857,0.78445 0,1.56892 c 0,0.86223 -0.03517,1.56891 -0.07924,1.56891 -0.203588,0 -0.902066,-0.52951 -1.160839,-0.87954 -0.15795,-0.21362 -0.344617,-0.38827 -0.412035,-0.38827 -0.06742,0 -0.396905,0.28526 -0.732953,0.63391 -0.435141,0.45144 -0.708536,0.6339 -0.95086,0.6339 l -0.340724,0 0,-1.8819 0,-1.88587 -0.380341,-0.52297 -0.380344,-0.52693 3.169525,0 c 1.082199,0 1.99463,0.009 2.567315,0.0238 -0.432598,-0.0277 -1.203023,-0.0399 -2.587125,-0.0555 l -3.213104,-0.0356 z m 0.126779,15.7248 0.06339,0 1.236113,0 1.236117,-0.004 0.237714,0 -0.206019,-0.11886 -0.637869,-0.36449 c -0.340305,-0.19521 -0.870976,-0.62054 -1.160839,-0.93501 l -0.114894,-0.12678 0,0.008 c -0.101959,-0.10774 -0.206873,-0.22074 -0.285257,-0.29714 -0.05492,-0.0535 -0.10223,-0.0995 -0.138667,-0.13075 -0.01822,-0.0156 -0.03346,-0.0258 -0.04754,-0.0357 -0.0071,-0.005 -0.0119,-0.0118 -0.01981,-0.0159 -0.0079,-0.004 -0.01675,-0.008 -0.03962,-0.008 -0.03591,0 -0.05235,0.0243 -0.05943,0.0357 -0.0071,0.0114 -0.009,0.0184 -0.01186,0.0277 -0.0057,0.0185 -0.008,0.0376 -0.01187,0.0634 -0.0078,0.0516 -0.01423,0.12279 -0.01981,0.20998 -0.01113,0.17437 -0.01981,0.41488 -0.01981,0.67748 l 0,0.95086 0,0.0634 z m 0.126783,-0.12677 0,-0.88747 c 0,-0.26038 0.005,-0.49926 0.01586,-0.66956 0.0049,-0.0765 0.0098,-0.13361 0.01586,-0.17829 0.03226,0.028 0.07242,0.0658 0.12282,0.1149 0.107519,0.10482 0.248664,0.24804 0.396192,0.40807 l 0.114894,0.12678 0,-0.0238 c 0.309521,0.31074 0.749447,0.67375 1.073677,0.85974 l 0.431848,0.24563 -0.998402,0.004 -1.172724,0 z m 0.602211,-5.26142 1.747199,0 0.99444,0 c 0.581594,-0.0173 0.990163,0.0414 1.034056,0.15848 0.06172,0.12736 0.08854,0.19279 0.0832,0.20206 l 0.07924,0.0832 0.443734,0.44373 4.00945,0 c 4.413541,0 4.564182,-0.0215 5.186137,-0.76069 l 0.320914,-0.38033 c -0.0526,-0.0374 -0.077,-0.0775 -0.05151,-0.10302 0.03904,-0.039 0.14379,-10e-6 0.229788,0.0872 0.115701,0.11657 0.10341,0.13643 -0.04358,0.0832 l 0.301104,0.28921 c 0.06986,0.0676 0.134305,0.12576 0.198094,0.18225 -0.157698,-0.20109 -0.153537,-0.20524 0.04754,-0.0475 0.164988,0.12939 0.241832,0.21956 0.217904,0.25356 0.575158,0.37345 1.372105,0.39617 4.4928,0.39619 3.728037,0 4.077284,-0.042 4.607699,-0.53882 0.280681,-0.26294 0.285256,-0.31722 0.285256,-3.35177 l 0,-3.08236 -4.465068,0 -3.973793,0 3.942098,0.0317 4.433374,0.0357 -4.441299,0.0277 -4.441296,0.0317 -0.816152,0.82408 c -0.449213,0.45324 -0.860887,0.82407 -0.9152,0.82407 -0.05431,0 -0.0874,-1.35498 -0.07131,-3.01105 l 0.03168,-3.01105 0.03568,2.97143 0.03168,2.64655 0,-2.60297 0,-2.93973 0.43977,0.18225 c 0.365176,0.15257 1.578753,0.1862 7.163129,0.1862 l 6.723353,0 -0.01187,5.54668 c -0.0095,5.26747 -0.0202,5.58348 -0.269409,6.29943 -0.183123,0.52609 -0.44537,0.93663 -0.863694,1.35497 -0.970834,0.97082 -1.155655,0.99838 -6.616385,0.9984 -4.400702,0 -4.700825,0.0142 -5.162364,0.2496 -0.08387,0.0428 -0.173263,0.099 -0.261483,0.15848 7.77e-4,0.004 0,0.007 0,0.0118 0,0.0227 -0.156892,0.17961 -0.34865,0.34865 l -0.305066,0.27337 -0.07132,0.0872 c 0.05304,0.0618 0.09112,0.109 0.09112,0.12282 0,0.0348 -0.199679,-0.12795 -0.443734,-0.36449 -0.213545,-0.20699 -0.394253,-0.40238 -0.435808,-0.47147 -0.09942,-0.0667 -0.199916,-0.12853 -0.289218,-0.17432 -0.436301,-0.22376 -0.797246,-0.24169 -4.972192,-0.24169 -4.299116,0 -4.531944,-0.0123 -5.229717,-0.27336 -1.430678,-0.5353 -2.561749,-2.00617 -2.638629,-3.43102 l -0.03168,-0.60617 z m 1.113293,-4.81767 c 0.160808,-0.10977 0.312267,-0.24943 0.471469,-0.42789 -0.04405,0.0414 -0.0773,0.0742 -0.126782,0.11886 l -0.344687,0.30903 z m 9.504612,10.77638 0,-0.38034 0,-0.38034 0.776537,0 c 0.762127,0 1.632304,0.34087 1.632304,0.64182 0,0.064 -0.541989,0.11886 -1.204418,0.11886 l -1.204423,0 z m 3.335925,-8.68449 0.03172,0.0436 0.590323,0.82012 c 0.241576,0.33679 0.402132,0.585 0.574475,0.77257 0.172348,0.18757 0.359716,0.31277 0.637869,0.38827 0.556297,0.15098 1.471465,0.12517 3.482513,0.12678 l 3.518175,0.004 0.06339,0 0,-0.0634 0,-1.9651 0,-1.96511 0,-0.0634 -0.06339,0 -3.458744,0 -0.06339,0 -3.395355,0 -0.02377,0 -0.01981,0.0198 -0.915199,0.92313 -0.919162,0.92312 -0.03962,0.0357 z m 0.134708,7.9872 0.198094,-0.22187 c 0.01946,-0.0221 0.02974,-0.0356 0.04754,-0.0555 -0.05455,0.0504 -0.104545,0.0993 -0.138667,0.14263 l -0.106969,0.13471 z m 0.03168,-7.97136 0.879542,-0.88747 0.899352,-0.90331 3.431012,0 0.06339,0 3.331962,0 0,1.90171 0,1.90172 -3.454782,-0.004 c -2.012036,-10e-4 -2.933021,0.0177 -3.450819,-0.12282 -0.258897,-0.0703 -0.417626,-0.17363 -0.578438,-0.34865 -0.160815,-0.17503 -0.319328,-0.42154 -0.56259,-0.76069 l -0.558629,-0.77653 z m 0.717106,8.47451 c 0.0027,-0.0792 0.165232,-0.18897 0.431845,-0.34468 0.347894,-0.20318 0.72566,-0.22461 3.858898,-0.19413 l 3.47063,0.0357 -0.891431,0.34864 c -0.882527,0.34566 -0.913381,0.34865 -3.906437,0.34865 -2.191487,0 -2.969372,-0.0199 -2.963505,-0.19413 z m 2.099808,-4.95238 c -0.0016,0 7.76e-4,-0.004 0,-0.004 0.02943,-0.005 0.167872,-0.0105 0.423923,-0.0159 1.024204,-0.0213 2.735744,-0.0212 3.80343,0 1.067687,0.0212 0.229793,0.0396 -1.862096,0.0396 -1.43817,5e-5 -2.299565,-0.008 -2.365257,-0.0198 z m 9.464995,2.92785 0.241673,-0.28525 c 0.226966,-0.26808 0.32884,-0.34313 0.32884,-0.24168 0,0.0241 -0.128365,0.15243 -0.285257,0.28526 l -0.285256,0.24167 z m 1.473827,-8.30019 c 1.2e-5,-0.98811 0.0057,-1.96746 0.01586,-2.70598 0.0051,-0.36925 0.01144,-0.56993 0.01586,-0.6141 0.01136,0.10421 0.01981,1.33245 0.01981,3.37951 -1.9e-5,2.01068 -0.0088,3.21056 -0.01981,3.328 -0.0044,-0.0538 -0.01078,-0.26149 -0.01586,-0.64183 -0.01012,-0.76066 -0.01586,-1.7575 -0.01586,-2.7456 z"
       style="fill:#ffffff;stroke:none" />
    <g
       transform="translate(236.33677,711.00002)"
       height="125"
       width="125"
       id="identity-barcode">
    </g>
    <!-- % if(identity.images && imageKey) { % -->
    <% if(identity.image) { %>
      <%
        var /*image = identity.images[imageKey],*/
            image = identity.image,
            ratio = 224 / image.height;
        var randomId = "identity-image-" + Math.floor(Math.random() * 1000000);
        var displayImageWidth = 175.46666,
            displayImageHeight = 224,
            displayImageX = 54.976284,
            displayImageY = 619.7193;
      %>
      <image
         id="<%= randomId %>"
         xlink:href="<%= (image.protocol || '') + image.url %>"
         x="<%= (image.x || ((image.width - displayImageWidth/ratio) / -2)) * ratio + displayImageX %>"
         y="<%= (image.y || 0) * ratio + displayImageY %>"
         width="<%= (image.width || 0) * ratio || displayImageWidth %>"
         height="<%= (image.height || 0) * ratio || displayImageHeight %>"
         clip-path="url(#clipPath3160)" />
    <% } %>
  </g>
</svg>
